# 3ds Max Wavefront OBJ Exporter v0.97b - (c)2007 guruware
# File Created: 22.04.2023 12:32:31

mtllib Chess.mtl

#
# object obj_17
#

v  -3.7530 0.2791 -3.8365
v  3.8355 0.2732 -3.8365
v  3.8355 0.2732 3.7520
v  1.7276 0.2732 3.3304
v  2.5708 0.2791 -3.4149
v  -1.6450 0.2732 3.3304
v  -0.8019 0.2732 -3.4149
v  -3.3314 0.2732 -1.7285
v  -3.7530 0.2732 3.7520
v  3.4139 0.2732 0.8009
v  3.4139 0.2791 3.3304
v  -3.3314 0.2732 1.6441
# 12 vertices

vn 0.0000 -1.0000 -0.0000
vn 0.0000 1.0000 -0.0000
# 2 vertex normals

vt 0.0000 1.0000 0.0000
vt 1.0000 1.0000 0.0000
vt 1.0000 0.0000 0.0000
vt 0.7222 0.0556 0.0000
vt 0.8333 0.9444 0.0000
vt 0.2778 0.0556 0.0000
vt 0.3889 0.9444 0.0000
vt 0.0556 0.7222 0.0000
vt 0.0000 0.0000 0.0000
vt 0.9444 0.3889 0.0000
vt 0.9444 0.0556 0.0000
vt 0.0556 0.2778 0.0000
# 12 texture coords

g obj_17
usemtl Material__264
s off
f 1/1/1 2/2/1 3/3/1 
f 4/4/2 5/5/2 6/6/2 
f 7/7/2 8/8/2 6/6/2 
f 3/3/1 9/9/1 1/1/1 
f 2/2/2 5/5/2 10/10/2 
f 2/2/2 1/1/2 5/5/2 
f 10/10/2 5/5/2 4/4/2 
f 2/2/2 10/10/2 11/11/2 
f 6/6/2 9/9/2 3/3/2 
f 8/8/2 12/12/2 6/6/2 
f 8/8/2 1/1/2 9/9/2 
f 8/8/2 7/7/2 1/1/2 
f 6/6/2 5/5/2 7/7/2 
f 1/1/2 7/7/2 5/5/2 
f 12/12/2 8/8/2 9/9/2 
f 9/9/2 6/6/2 12/12/2 
f 4/4/2 6/6/2 3/3/2 
f 2/2/2 11/11/2 3/3/2 
f 11/11/2 10/10/2 4/4/2 
f 11/11/2 4/4/2 3/3/2 
# 0 polygons - 20 triangles

