# 3ds Max Wavefront OBJ Exporter v0.97b - (c)2007 guruware
# File Created: 15.04.2012 23:08:19

mtllib fire_rocks.mtl

#
# object Stone_F_1_LOD3
#

v  0.7066 0.2542 -8.0936
v  0.9576 1.8054 -6.8208
v  -0.5785 -0.6259 -6.5489
v  1.4406 2.7052 -9.2257
v  -0.7065 -0.4049 -9.5461
v  -3.9889 4.9790 -8.0988
v  -5.4015 2.7212 -9.4199
v  -4.7581 1.6671 -6.6455
v  -2.8174 3.7761 -5.1735
v  -2.8436 5.9349 -6.5855
v  -3.3244 4.3215 -10.3286
v  -2.6156 5.3067 -10.5376
v  -0.6874 1.6478 -5.1177
v  0.8508 3.5867 -5.6409
v  -2.7494 1.7026 -5.3258
v  -1.0430 4.8223 -6.1007
v  1.5581 3.8309 -8.0984
v  0.6568 5.1029 -8.0897
v  0.6281 5.0754 -9.7378
v  0.3939 2.6941 -11.2086
v  -1.7441 4.7007 -10.8939
v  -1.7494 2.7137 -11.5707
v  -3.4449 1.0230 -10.4817
v  -3.8342 2.7138 -11.1016
v  -2.9627 -0.8322 -8.0836
v  -3.9030 0.5619 -9.6071
v  -4.0946 0.3494 -6.4604
# 27 vertices

vn 0.8115 -0.5817 -0.0558
vn 0.8733 -0.3032 0.3813
vn 0.3247 -0.8159 0.4784
vn 0.9517 -0.1441 -0.2710
vn 0.2923 -0.7975 -0.5278
vn -0.7774 0.6272 0.0484
vn -0.9636 0.0664 -0.2591
vn -0.8786 -0.0912 0.4689
vn -0.3228 0.3035 0.8965
vn -0.3076 0.8536 0.4205
vn -0.6086 0.4956 -0.6197
vn -0.3113 0.6970 -0.6460
vn 0.2705 -0.2397 0.9324
vn 0.6236 0.2573 0.7382
vn -0.2851 -0.2727 0.9189
vn 0.2779 0.6403 0.7161
vn 0.9716 0.2297 0.0567
vn 0.5599 0.8138 0.1556
vn 0.5753 0.7071 -0.4111
vn 0.5532 -0.1052 -0.8264
vn 0.0363 0.4918 -0.8699
vn 0.0089 -0.1302 -0.9914
vn -0.3430 -0.5713 -0.7457
vn -0.5195 0.0303 -0.8539
vn -0.3510 -0.9338 -0.0695
vn -0.6107 -0.6732 -0.4170
vn -0.6215 -0.5997 0.5041
# 27 vertex normals

vt 0.2645 0.2829 0.0000
vt 0.4974 0.3766 0.0000
vt 0.2657 0.3726 0.0000
vt 0.4961 0.1985 0.0000
vt 0.3899 0.1197 0.0000
vt 0.2811 0.1632 0.0000
vt 0.3879 0.7301 0.0000
vt 0.2657 0.7758 0.0000
vt 0.2717 0.5977 0.0000
vt 0.4006 0.5972 0.0000
vt 0.5074 0.7771 0.0000
vt 0.3310 0.8538 0.0000
vt 0.4458 0.8541 0.0000
vt 0.3929 0.4891 0.0000
vt 0.5041 0.4869 0.0000
vt 0.2647 0.4849 0.0000
vt 0.4965 0.6021 0.0000
vt 0.6709 0.3601 0.0000
vt 0.6140 0.3543 0.0000
vt 0.6205 0.4869 0.0000
vt 0.7287 0.3836 0.0000
vt 0.7080 0.4701 0.0000
vt 0.6762 0.6072 0.0000
vt 0.7234 0.5871 0.0000
vt 0.9088 0.3634 0.0000
vt 0.8418 0.4060 0.0000
vt 0.7991 0.5414 0.0000
vt 0.9384 0.4871 0.0000
vt 0.9918 0.4904 0.0000
vt 0.9306 0.5586 0.0000
vt 0.8408 0.6118 0.0000
vt 0.9545 0.5948 0.0000
vt 0.0685 0.3783 0.0000
vt 0.1397 0.4148 0.0000
vt 0.0809 0.4870 0.0000
vt 0.0109 0.4870 0.0000
vt 0.1548 0.4888 0.0000
vt 0.0560 0.5881 0.0000
# 38 texture coords

g Stone_F_1_LOD3
usemtl 09___Default
s 1
f 1/1/1 2/2/2 3/3/3 
f 2/2/2 1/1/1 4/4/4 
f 5/5/5 1/1/1 3/6/3 
f 1/1/1 5/5/5 4/4/4 
f 6/7/6 7/8/7 8/9/8 
f 8/9/8 9/10/9 6/7/6 
f 10/11/10 6/7/6 9/10/9 
f 7/8/7 6/7/6 11/12/11 
f 6/7/6 10/11/10 12/13/12 
f 12/13/12 11/12/11 6/7/6 
f 3/3/3 2/2/2 13/14/13 
f 14/15/14 13/14/13 2/2/2 
f 13/14/13 15/16/15 3/3/3 
f 15/16/15 13/14/13 9/10/9 
f 9/10/9 8/9/8 15/16/15 
f 13/14/13 14/15/14 16/17/16 
f 16/17/16 9/10/9 13/14/13 
f 9/10/9 16/17/16 10/11/10 
f 17/18/17 14/15/14 2/2/2 
f 2/2/2 4/19/4 17/18/17 
f 14/15/14 17/18/17 18/20/18 
f 17/18/17 4/21/4 19/22/19 
f 19/22/19 18/20/18 17/18/17 
f 14/15/14 18/20/18 16/17/16 
f 10/23/10 16/17/16 18/20/18 
f 18/20/18 19/22/19 10/23/10 
f 12/24/12 10/23/10 19/22/19 
f 4/21/4 5/25/5 20/26/20 
f 20/26/20 19/22/19 4/21/4 
f 19/22/19 20/26/20 21/27/21 
f 22/28/22 21/27/21 20/26/20 
f 20/26/20 5/25/5 23/29/23 
f 23/29/23 22/28/22 20/26/20 
f 21/27/21 12/24/12 19/22/19 
f 21/27/21 22/28/22 24/30/24 
f 23/29/23 24/30/24 22/28/22 
f 21/27/21 24/30/24 11/31/11 
f 11/31/11 12/24/12 21/27/21 
f 7/32/7 11/31/11 24/30/24 
f 24/30/24 23/29/23 7/32/7 
f 5/33/5 3/3/3 25/34/25 
f 5/33/5 25/34/25 26/35/26 
f 26/35/26 23/36/23 5/33/5 
f 27/37/27 26/35/26 25/34/25 
f 25/34/25 3/3/3 27/37/27 
f 15/16/15 27/37/27 3/3/3 
f 27/37/27 15/16/15 8/9/8 
f 23/36/23 26/35/26 7/38/7 
f 26/35/26 27/37/27 7/38/7 
f 8/9/8 7/38/7 27/37/27 
# 0 polygons - 50 triangles

#
# object Stone_F_3_LOD3
#

v  4.2298 -0.3954 -3.6464
v  4.4949 -0.6020 -4.8102
v  5.4513 -0.0220 -4.8920
v  4.9213 0.4216 -3.4544
v  5.5566 1.6039 -4.8102
v  5.1783 1.6142 -3.5959
v  4.3678 -0.3205 -5.4001
v  5.0838 0.5391 -5.6099
v  5.2493 1.5732 -5.4001
v  0.7926 2.6704 -4.1248
v  1.4996 3.1148 -3.8235
v  0.8977 3.3609 -4.7072
v  0.6375 2.5518 -4.5195
v  2.1665 3.3531 -4.1248
v  2.1916 3.5467 -4.5195
v  1.7050 3.2062 -5.4144
v  1.0926 2.7085 -5.2598
v  2.3750 3.2327 -5.1916
v  3.3103 1.6115 -3.1711
v  2.3457 0.6659 -3.4977
v  3.8912 2.6175 -3.4472
v  4.0716 2.9299 -4.5195
v  3.9137 2.5951 -5.4931
v  3.4285 1.7546 -5.9947
v  2.4468 0.7794 -5.4931
v  2.2296 0.4649 -4.5195
# 26 vertices

vn 0.0133 -0.8089 0.5877
vn 0.1106 -0.9836 -0.1423
vn 0.8310 -0.5336 -0.1573
vn 0.5574 -0.2759 0.7830
vn 0.9351 0.3460 -0.0765
vn 0.7118 0.2721 0.6475
vn 0.0544 -0.7105 -0.7016
vn 0.4942 -0.2265 -0.8393
vn 0.6660 0.3433 -0.6623
vn -0.7769 0.0360 0.6286
vn -0.2725 0.5403 0.7962
vn -0.6838 0.7020 -0.1991
vn -0.9830 -0.1691 -0.0710
vn 0.0491 0.7956 0.6038
vn 0.0649 0.9977 0.0201
vn -0.2130 0.6543 -0.7256
vn -0.7176 0.1822 -0.6722
vn 0.1689 0.8657 -0.4713
vn -0.0499 0.0598 0.9970
vn -0.5058 -0.5232 0.6858
vn 0.2655 0.6037 0.7517
vn 0.4871 0.8732 -0.0141
vn 0.3580 0.6630 -0.6575
vn 0.0084 0.0488 -0.9988
vn -0.4682 -0.5220 -0.7129
vn -0.6357 -0.7701 -0.0535
# 26 vertex normals

vt 0.9677 0.9326 0.0000
vt 0.8684 0.9641 0.0000
vt 0.8567 0.8514 0.0000
vt 0.9812 0.8516 0.0000
vt 0.8648 0.7327 0.0000
vt 0.9657 0.7664 0.0000
vt 0.7734 0.9393 0.0000
vt 0.7340 0.8490 0.0000
vt 0.7710 0.7592 0.0000
vt 0.3971 0.8606 0.0000
vt 0.3278 0.7238 0.0000
vt 0.5477 0.7212 0.0000
vt 0.5322 0.9327 0.0000
vt 0.3907 0.5721 0.0000
vt 0.5276 0.5080 0.0000
vt 0.7623 0.7180 0.0000
vt 0.6899 0.8701 0.0000
vt 0.6697 0.5709 0.0000
vt 0.5938 0.4116 0.0000
vt 0.5012 0.4712 0.0000
vt 0.5043 0.2441 0.0000
vt 0.6216 0.2372 0.0000
vt 0.4152 0.4056 0.0000
vt 0.3870 0.2318 0.0000
vt 0.5070 0.0298 0.0000
vt 0.5997 0.0595 0.0000
vt 0.4190 0.0666 0.0000
vt 0.2728 0.4393 0.0000
vt 0.1697 0.4889 0.0000
vt 0.1654 0.3051 0.0000
vt 0.3143 0.2989 0.0000
vt 0.0525 0.4430 0.0000
vt 0.0303 0.3065 0.0000
vt 0.1690 0.0550 0.0000
vt 0.2592 0.0942 0.0000
vt 0.0692 0.1007 0.0000
vt 0.9214 0.4216 0.0000
vt 0.8193 0.4894 0.0000
vt 0.8157 0.2603 0.0000
vt 0.9610 0.2489 0.0000
vt 0.7284 0.4343 0.0000
vt 0.6697 0.2572 0.0000
vt 0.8162 0.0308 0.0000
vt 0.9311 0.0511 0.0000
vt 0.7270 0.0632 0.0000
vt 0.2644 0.9208 0.0000
vt 0.1745 0.9602 0.0000
vt 0.1747 0.7385 0.0000
vt 0.3129 0.7404 0.0000
vt 0.0750 0.9077 0.0000
vt 0.0359 0.7380 0.0000
vt 0.1752 0.5159 0.0000
vt 0.2674 0.5679 0.0000
vt 0.0567 0.5317 0.0000
# 54 texture coords

g Stone_F_3_LOD3
usemtl 08___Default
s 1
f 28/39/28 29/40/29 30/41/30 
f 30/41/30 31/42/31 28/39/28 
f 31/42/31 30/41/30 32/43/32 
f 32/43/32 33/44/33 31/42/31 
f 29/40/29 34/45/34 35/46/35 
f 35/46/35 30/41/30 29/40/29 
f 30/41/30 35/46/35 36/47/36 
f 36/47/36 32/43/32 30/41/30 
f 37/48/37 38/49/38 39/50/39 
f 39/50/39 40/51/40 37/48/37 
f 38/49/38 41/52/41 42/53/42 
f 42/53/42 39/50/39 38/49/38 
f 40/51/40 39/50/39 43/54/43 
f 43/54/43 44/55/44 40/51/40 
f 39/50/39 42/53/42 45/56/45 
f 45/56/45 43/54/43 39/50/39 
f 28/57/28 31/58/31 46/59/46 
f 46/59/46 47/60/47 28/57/28 
f 31/58/31 33/61/33 48/62/48 
f 48/62/48 46/59/46 31/58/31 
f 47/60/47 46/59/46 38/63/38 
f 38/63/38 37/64/37 47/60/47 
f 46/59/46 48/62/48 41/65/41 
f 41/65/41 38/63/38 46/59/46 
f 33/66/33 32/67/32 49/68/49 
f 49/68/49 48/69/48 33/66/33 
f 32/67/32 36/70/36 50/71/50 
f 50/71/50 49/68/49 32/67/32 
f 48/69/48 49/68/49 42/72/42 
f 42/72/42 41/73/41 48/69/48 
f 49/68/49 50/71/50 45/74/45 
f 45/74/45 42/72/42 49/68/49 
f 36/75/36 35/76/35 51/77/51 
f 51/77/51 50/78/50 36/75/36 
f 35/76/35 34/79/34 52/80/52 
f 52/80/52 51/77/51 35/76/35 
f 50/78/50 51/77/51 43/81/43 
f 43/81/43 45/82/45 50/78/50 
f 51/77/51 52/80/52 44/83/44 
f 44/83/44 43/81/43 51/77/51 
f 34/84/34 29/85/29 53/86/53 
f 53/86/53 52/87/52 34/84/34 
f 29/85/29 28/88/28 47/89/47 
f 47/89/47 53/86/53 29/85/29 
f 52/87/52 53/86/53 40/90/40 
f 40/90/40 44/91/44 52/87/52 
f 53/86/53 47/89/47 37/92/37 
f 37/92/37 40/90/40 53/86/53 
# 0 polygons - 48 triangles

#
# object Stone_F_1_LOD01
#

v  8.9980 1.3280 0.0836
v  8.0787 2.6024 1.3564
v  8.7117 -0.2029 1.6283
v  7.7840 3.5802 -1.0485
v  8.4649 -0.1372 -1.3689
v  2.3369 1.3488 0.0784
v  2.9345 -1.2466 -1.2428
v  4.1348 -1.5370 1.5317
v  4.0158 1.3265 3.0037
v  2.4708 2.8345 1.5917
v  3.2717 1.3538 -2.1514
v  3.0763 2.5515 -2.3604
v  7.0269 1.3278 3.0595
v  6.7435 3.7865 2.5363
v  5.5301 -0.0916 2.8514
v  4.5307 3.3211 2.0765
v  7.0711 4.4593 0.0788
v  5.5343 4.7214 0.0874
v  5.5335 4.6817 -1.5606
v  7.0517 2.8322 -3.0314
v  4.1210 2.7393 -2.7167
v  5.5223 1.3305 -3.3935
v  5.5188 -1.0639 -2.3046
v  4.0480 -0.1436 -2.9244
v  7.1716 -2.0347 0.0936
v  5.5210 -1.7138 -1.4299
v  5.5358 -1.9996 1.7167
# 27 vertices

vn 0.9851 0.1625 -0.0558
vn 0.8319 0.4031 0.3813
vn 0.8065 -0.3474 0.4784
vn 0.7749 0.5711 -0.2710
vn 0.7706 -0.3572 -0.5278
vn -0.9932 -0.1062 0.0484
vn -0.7283 -0.6344 -0.2591
vn -0.5568 -0.6857 0.4689
vn -0.4429 -0.0136 0.8965
vn -0.8211 0.3861 0.4205
vn -0.7808 -0.0799 -0.6197
vn -0.7130 0.2728 -0.6460
vn 0.3607 0.0217 0.9324
vn 0.2590 0.6229 0.7382
vn -0.0088 -0.3944 0.9189
vn -0.2562 0.6493 0.7161
vn 0.5246 0.8495 0.0567
vn -0.1795 0.9714 0.1556
vn -0.0932 0.9068 -0.4111
vn 0.4655 0.3168 -0.8264
vn -0.3221 0.3735 -0.8699
vn 0.0983 -0.0858 -0.9914
vn 0.1614 -0.6465 -0.7457
vn -0.3888 -0.3460 -0.8539
vn 0.4121 -0.9085 -0.0695
vn 0.0442 -0.9079 -0.4170
vn -0.0154 -0.8635 0.5041
# 27 vertex normals

vt 0.2645 0.2829 0.0000
vt 0.4974 0.3766 0.0000
vt 0.2657 0.3726 0.0000
vt 0.4961 0.1985 0.0000
vt 0.3899 0.1197 0.0000
vt 0.2811 0.1632 0.0000
vt 0.3879 0.7301 0.0000
vt 0.2657 0.7758 0.0000
vt 0.2717 0.5977 0.0000
vt 0.4006 0.5972 0.0000
vt 0.5074 0.7771 0.0000
vt 0.3310 0.8538 0.0000
vt 0.4458 0.8541 0.0000
vt 0.3929 0.4891 0.0000
vt 0.5041 0.4869 0.0000
vt 0.2647 0.4849 0.0000
vt 0.4965 0.6021 0.0000
vt 0.6709 0.3601 0.0000
vt 0.6140 0.3543 0.0000
vt 0.6205 0.4869 0.0000
vt 0.7287 0.3836 0.0000
vt 0.7080 0.4701 0.0000
vt 0.6762 0.6072 0.0000
vt 0.7234 0.5871 0.0000
vt 0.9088 0.3634 0.0000
vt 0.8418 0.4060 0.0000
vt 0.7991 0.5414 0.0000
vt 0.9384 0.4871 0.0000
vt 0.9918 0.4904 0.0000
vt 0.9306 0.5586 0.0000
vt 0.8408 0.6118 0.0000
vt 0.9545 0.5948 0.0000
vt 0.0685 0.3783 0.0000
vt 0.1397 0.4148 0.0000
vt 0.0809 0.4870 0.0000
vt 0.0109 0.4870 0.0000
vt 0.1548 0.4888 0.0000
vt 0.0560 0.5881 0.0000
# 38 texture coords

g Stone_F_1_LOD01
usemtl 09___Default
s 1
f 54/93/54 55/94/55 56/95/56 
f 55/94/55 54/93/54 57/96/57 
f 58/97/58 54/93/54 56/98/56 
f 54/93/54 58/97/58 57/96/57 
f 59/99/59 60/100/60 61/101/61 
f 61/101/61 62/102/62 59/99/59 
f 63/103/63 59/99/59 62/102/62 
f 60/100/60 59/99/59 64/104/64 
f 59/99/59 63/103/63 65/105/65 
f 65/105/65 64/104/64 59/99/59 
f 56/95/56 55/94/55 66/106/66 
f 67/107/67 66/106/66 55/94/55 
f 66/106/66 68/108/68 56/95/56 
f 68/108/68 66/106/66 62/102/62 
f 62/102/62 61/101/61 68/108/68 
f 66/106/66 67/107/67 69/109/69 
f 69/109/69 62/102/62 66/106/66 
f 62/102/62 69/109/69 63/103/63 
f 70/110/70 67/107/67 55/94/55 
f 55/94/55 57/111/57 70/110/70 
f 67/107/67 70/110/70 71/112/71 
f 70/110/70 57/113/57 72/114/72 
f 72/114/72 71/112/71 70/110/70 
f 67/107/67 71/112/71 69/109/69 
f 63/115/63 69/109/69 71/112/71 
f 71/112/71 72/114/72 63/115/63 
f 65/116/65 63/115/63 72/114/72 
f 57/113/57 58/117/58 73/118/73 
f 73/118/73 72/114/72 57/113/57 
f 72/114/72 73/118/73 74/119/74 
f 75/120/75 74/119/74 73/118/73 
f 73/118/73 58/117/58 76/121/76 
f 76/121/76 75/120/75 73/118/73 
f 74/119/74 65/116/65 72/114/72 
f 74/119/74 75/120/75 77/122/77 
f 76/121/76 77/122/77 75/120/75 
f 74/119/74 77/122/77 64/123/64 
f 64/123/64 65/116/65 74/119/74 
f 60/124/60 64/123/64 77/122/77 
f 77/122/77 76/121/76 60/124/60 
f 58/125/58 56/95/56 78/126/78 
f 58/125/58 78/126/78 79/127/79 
f 79/127/79 76/128/76 58/125/58 
f 80/129/80 79/127/79 78/126/78 
f 78/126/78 56/95/56 80/129/80 
f 68/108/68 80/129/80 56/95/56 
f 80/129/80 68/108/68 61/101/61 
f 76/128/76 79/127/79 60/130/60 
f 79/127/79 80/129/80 60/130/60 
f 61/101/61 60/130/60 80/129/80 
# 0 polygons - 50 triangles

#
# object Stone_F_1_LOD02
#

v  -0.3463 0.2558 9.1632
v  0.9281 1.8178 9.0034
v  -1.8772 1.7368 9.6876
v  1.9058 -0.1176 7.5457
v  -1.8115 -0.7355 7.9753
v  -0.3255 3.5819 3.3919
v  -2.9209 2.1390 3.2489
v  -3.2113 3.9415 5.6756
v  -0.3478 5.2759 6.3086
v  1.1602 4.8255 4.2645
v  -0.3205 1.1835 3.0866
v  0.8772 1.1002 2.8128
v  -0.3465 3.8186 8.9442
v  2.1122 3.5072 8.4371
v  -1.7659 4.3868 7.5438
v  1.6468 4.2154 6.2908
v  2.7849 1.2152 7.4920
v  3.0471 1.9911 6.1654
v  3.0074 0.5642 5.3407
v  1.1579 -1.4686 5.9201
v  1.0650 0.2692 3.5394
v  -0.3438 -1.0175 4.4146
v  -2.7382 -0.0728 4.9560
v  -1.8179 0.1259 3.3724
v  -3.7090 1.1777 7.5865
v  -3.3881 0.6836 5.3952
v  -3.6739 3.4013 6.9814
# 27 vertices

vn 0.1625 -0.5409 0.8253
vn 0.4031 -0.0858 0.9111
vn -0.3474 0.0110 0.9377
vn 0.5711 -0.6221 0.5356
vn -0.3572 -0.8424 0.4034
vn -0.1062 0.5385 -0.8359
vn -0.6344 0.1398 -0.7603
vn -0.6857 0.6844 -0.2477
vn -0.0136 0.9978 0.0647
vn 0.3861 0.7747 -0.5008
vn -0.0799 -0.1462 -0.9860
vn 0.2728 -0.2029 -0.9404
vn 0.0217 0.6271 0.7786
vn 0.6229 0.5098 0.5934
vn -0.3944 0.8002 0.4519
vn 0.6493 0.7483 0.1362
vn 0.8495 -0.2132 0.4827
vn 0.9714 0.2245 -0.0777
vn 0.9068 -0.3094 -0.2862
vn 0.3168 -0.9484 -0.0101
vn 0.3735 -0.5923 -0.7139
vn -0.0858 -0.9078 -0.4106
vn -0.6465 -0.7265 -0.2330
vn -0.3460 -0.5451 -0.7636
vn -0.9085 -0.2662 0.3221
vn -0.9079 -0.3832 -0.1702
vn -0.8635 0.4443 0.2387
# 27 vertex normals

vt 0.2645 0.2829 0.0000
vt 0.4974 0.3766 0.0000
vt 0.2657 0.3726 0.0000
vt 0.4961 0.1985 0.0000
vt 0.3899 0.1197 0.0000
vt 0.2811 0.1632 0.0000
vt 0.3879 0.7301 0.0000
vt 0.2657 0.7758 0.0000
vt 0.2717 0.5977 0.0000
vt 0.4006 0.5972 0.0000
vt 0.5074 0.7771 0.0000
vt 0.3310 0.8538 0.0000
vt 0.4458 0.8541 0.0000
vt 0.3929 0.4891 0.0000
vt 0.5041 0.4869 0.0000
vt 0.2647 0.4849 0.0000
vt 0.4965 0.6021 0.0000
vt 0.6709 0.3601 0.0000
vt 0.6140 0.3543 0.0000
vt 0.6205 0.4869 0.0000
vt 0.7287 0.3836 0.0000
vt 0.7080 0.4701 0.0000
vt 0.6762 0.6072 0.0000
vt 0.7234 0.5871 0.0000
vt 0.9088 0.3634 0.0000
vt 0.8418 0.4060 0.0000
vt 0.7991 0.5414 0.0000
vt 0.9384 0.4871 0.0000
vt 0.9918 0.4904 0.0000
vt 0.9306 0.5586 0.0000
vt 0.8408 0.6118 0.0000
vt 0.9545 0.5948 0.0000
vt 0.0685 0.3783 0.0000
vt 0.1397 0.4148 0.0000
vt 0.0809 0.4870 0.0000
vt 0.0109 0.4870 0.0000
vt 0.1548 0.4888 0.0000
vt 0.0560 0.5881 0.0000
# 38 texture coords

g Stone_F_1_LOD02
usemtl 09___Default
s 1
f 81/131/81 82/132/82 83/133/83 
f 82/132/82 81/131/81 84/134/84 
f 85/135/85 81/131/81 83/136/83 
f 81/131/81 85/135/85 84/134/84 
f 86/137/86 87/138/87 88/139/88 
f 88/139/88 89/140/89 86/137/86 
f 90/141/90 86/137/86 89/140/89 
f 87/138/87 86/137/86 91/142/91 
f 86/137/86 90/141/90 92/143/92 
f 92/143/92 91/142/91 86/137/86 
f 83/133/83 82/132/82 93/144/93 
f 94/145/94 93/144/93 82/132/82 
f 93/144/93 95/146/95 83/133/83 
f 95/146/95 93/144/93 89/140/89 
f 89/140/89 88/139/88 95/146/95 
f 93/144/93 94/145/94 96/147/96 
f 96/147/96 89/140/89 93/144/93 
f 89/140/89 96/147/96 90/141/90 
f 97/148/97 94/145/94 82/132/82 
f 82/132/82 84/149/84 97/148/97 
f 94/145/94 97/148/97 98/150/98 
f 97/148/97 84/151/84 99/152/99 
f 99/152/99 98/150/98 97/148/97 
f 94/145/94 98/150/98 96/147/96 
f 90/153/90 96/147/96 98/150/98 
f 98/150/98 99/152/99 90/153/90 
f 92/154/92 90/153/90 99/152/99 
f 84/151/84 85/155/85 100/156/100 
f 100/156/100 99/152/99 84/151/84 
f 99/152/99 100/156/100 101/157/101 
f 102/158/102 101/157/101 100/156/100 
f 100/156/100 85/155/85 103/159/103 
f 103/159/103 102/158/102 100/156/100 
f 101/157/101 92/154/92 99/152/99 
f 101/157/101 102/158/102 104/160/104 
f 103/159/103 104/160/104 102/158/102 
f 101/157/101 104/160/104 91/161/91 
f 91/161/91 92/154/92 101/157/101 
f 87/162/87 91/161/91 104/160/104 
f 104/160/104 103/159/103 87/162/87 
f 85/163/85 83/133/83 105/164/105 
f 85/163/85 105/164/105 106/165/106 
f 106/165/106 103/166/103 85/163/85 
f 107/167/107 106/165/106 105/164/105 
f 105/164/105 83/133/83 107/167/107 
f 95/146/95 107/167/107 83/133/83 
f 107/167/107 95/146/95 88/139/88 
f 103/166/103 106/165/106 87/168/87 
f 106/165/106 107/167/107 87/168/87 
f 88/139/88 87/168/87 107/167/107 
# 0 polygons - 50 triangles

#
# object Stone_F_1_LOD04
#

v  -7.2350 0.1080 0.0836
v  -6.7185 1.5920 1.3564
v  -8.6534 -0.5356 1.6283
v  -6.0866 2.3942 -1.0485
v  -8.7411 -0.2958 -1.3689
v  -11.0387 5.5764 0.0784
v  -12.8219 3.5982 -1.2428
v  -12.3713 2.4483 1.5317
v  -10.0939 4.1883 3.0037
v  -9.7449 6.3189 1.5917
v  -10.4985 4.8134 -2.1514
v  -9.6294 5.6605 -2.3604
v  -8.3658 1.7224 3.0595
v  -6.5143 3.3648 2.5363
v  -10.3870 2.1345 2.8514
v  -8.1648 4.9105 2.0765
v  -5.7753 3.4824 0.0788
v  -6.4421 4.8917 0.0874
v  -6.4751 4.8695 -1.5606
v  -7.1193 2.5651 -3.0314
v  -8.8764 4.9125 -2.7167
v  -9.2266 2.9565 -3.3935
v  -11.1900 1.5860 -2.3046
v  -11.2797 3.3187 -2.9244
v  -11.0372 -0.3247 0.0936
v  -11.7211 1.2114 -1.4299
v  -11.9467 1.0354 1.7167
# 27 vertices

vn 0.6982 -0.7137 -0.0558
vn 0.8074 -0.4503 0.3813
vn 0.1780 -0.8599 0.4784
vn 0.9122 -0.3072 -0.2710
vn 0.1494 -0.8361 -0.5278
vn -0.6567 0.7526 0.0484
vn -0.9374 0.2327 -0.2591
vn -0.8810 0.0628 0.4689
vn -0.2652 0.3550 0.8965
vn -0.1547 0.8940 0.4205
vn -0.5133 0.5938 -0.6197
vn -0.1855 0.7405 -0.6460
vn 0.2247 -0.2830 0.9324
vn 0.6588 0.1451 0.7382
vn -0.3281 -0.2191 0.9189
vn 0.3849 0.5823 0.7161
vn 0.9967 0.0575 0.0567
vn 0.6927 0.7042 0.1556
vn 0.6894 0.5965 -0.4111
vn 0.5265 -0.1996 -0.8264
vn 0.1212 0.4781 -0.8699
vn -0.0139 -0.1298 -0.9914
vn -0.4370 -0.5030 -0.7457
vn -0.5064 0.1200 -0.8539
vn -0.5079 -0.8586 -0.0695
vn -0.7183 -0.5569 -0.4170
vn -0.7162 -0.4826 0.5041
# 27 vertex normals

vt 0.2645 0.2829 0.0000
vt 0.4974 0.3766 0.0000
vt 0.2657 0.3726 0.0000
vt 0.4961 0.1985 0.0000
vt 0.3899 0.1197 0.0000
vt 0.2811 0.1632 0.0000
vt 0.3879 0.7301 0.0000
vt 0.2657 0.7758 0.0000
vt 0.2717 0.5977 0.0000
vt 0.4006 0.5972 0.0000
vt 0.5074 0.7771 0.0000
vt 0.3310 0.8538 0.0000
vt 0.4458 0.8541 0.0000
vt 0.3929 0.4891 0.0000
vt 0.5041 0.4869 0.0000
vt 0.2647 0.4849 0.0000
vt 0.4965 0.6021 0.0000
vt 0.6709 0.3601 0.0000
vt 0.6140 0.3543 0.0000
vt 0.6205 0.4869 0.0000
vt 0.7287 0.3836 0.0000
vt 0.7080 0.4701 0.0000
vt 0.6762 0.6072 0.0000
vt 0.7234 0.5871 0.0000
vt 0.9088 0.3634 0.0000
vt 0.8418 0.4060 0.0000
vt 0.7991 0.5414 0.0000
vt 0.9384 0.4871 0.0000
vt 0.9918 0.4904 0.0000
vt 0.9306 0.5586 0.0000
vt 0.8408 0.6118 0.0000
vt 0.9545 0.5948 0.0000
vt 0.0685 0.3783 0.0000
vt 0.1397 0.4148 0.0000
vt 0.0809 0.4870 0.0000
vt 0.0109 0.4870 0.0000
vt 0.1548 0.4888 0.0000
vt 0.0560 0.5881 0.0000
# 38 texture coords

g Stone_F_1_LOD04
usemtl 09___Default
s 1
f 108/169/108 109/170/109 110/171/110 
f 109/170/109 108/169/108 111/172/111 
f 112/173/112 108/169/108 110/174/110 
f 108/169/108 112/173/112 111/172/111 
f 113/175/113 114/176/114 115/177/115 
f 115/177/115 116/178/116 113/175/113 
f 117/179/117 113/175/113 116/178/116 
f 114/176/114 113/175/113 118/180/118 
f 113/175/113 117/179/117 119/181/119 
f 119/181/119 118/180/118 113/175/113 
f 110/171/110 109/170/109 120/182/120 
f 121/183/121 120/182/120 109/170/109 
f 120/182/120 122/184/122 110/171/110 
f 122/184/122 120/182/120 116/178/116 
f 116/178/116 115/177/115 122/184/122 
f 120/182/120 121/183/121 123/185/123 
f 123/185/123 116/178/116 120/182/120 
f 116/178/116 123/185/123 117/179/117 
f 124/186/124 121/183/121 109/170/109 
f 109/170/109 111/187/111 124/186/124 
f 121/183/121 124/186/124 125/188/125 
f 124/186/124 111/189/111 126/190/126 
f 126/190/126 125/188/125 124/186/124 
f 121/183/121 125/188/125 123/185/123 
f 117/191/117 123/185/123 125/188/125 
f 125/188/125 126/190/126 117/191/117 
f 119/192/119 117/191/117 126/190/126 
f 111/189/111 112/193/112 127/194/127 
f 127/194/127 126/190/126 111/189/111 
f 126/190/126 127/194/127 128/195/128 
f 129/196/129 128/195/128 127/194/127 
f 127/194/127 112/193/112 130/197/130 
f 130/197/130 129/196/129 127/194/127 
f 128/195/128 119/192/119 126/190/126 
f 128/195/128 129/196/129 131/198/131 
f 130/197/130 131/198/131 129/196/129 
f 128/195/128 131/198/131 118/199/118 
f 118/199/118 119/192/119 128/195/128 
f 114/200/114 118/199/118 131/198/131 
f 131/198/131 130/197/130 114/200/114 
f 112/201/112 110/171/110 132/202/132 
f 112/201/112 132/202/132 133/203/133 
f 133/203/133 130/204/130 112/201/112 
f 134/205/134 133/203/133 132/202/132 
f 132/202/132 110/171/110 134/205/134 
f 122/184/122 134/205/134 110/171/110 
f 134/205/134 122/184/122 115/177/115 
f 130/204/130 133/203/133 114/206/114 
f 133/203/133 134/205/134 114/206/114 
f 115/177/115 114/206/114 134/205/134 
# 0 polygons - 50 triangles

#
# object Stone_F_3_LOD01
#

v  4.0989 -0.1769 5.6478
v  4.4943 -0.7413 4.6515
v  5.4647 -0.2000 4.5001
v  4.7789 0.6717 5.6465
v  5.5913 1.3676 4.0668
v  5.0738 1.7603 5.1603
v  4.4425 -0.6669 3.9918
v  5.1947 0.0933 3.6022
v  5.3545 1.1430 3.4864
v  0.8014 2.5053 3.8108
v  1.4768 3.0365 4.0338
v  0.9873 2.9739 3.0539
v  0.6912 2.2631 3.4599
v  2.1788 3.1782 3.7521
v  2.2537 3.2352 3.3219
v  1.8686 2.6158 2.5335
v  1.2327 2.1824 2.7671
v  2.5083 2.7254 2.8128
v  3.1693 1.8580 5.3418
v  2.2313 0.8392 5.2260
v  3.7978 2.7330 4.8270
v  4.1084 2.6877 3.7400
v  4.0591 2.0547 2.9143
v  3.6197 1.0884 2.6564
v  2.5673 0.3073 3.3262
v  2.2317 0.3182 4.3168
# 26 vertices

vn -0.0712 -0.5767 0.8138
vn 0.1074 -0.9748 0.1954
vn 0.8332 -0.5396 0.1209
vn 0.4566 0.0012 0.8897
vn 0.9442 0.3211 -0.0737
vn 0.6363 0.4795 0.6043
vn 0.1223 -0.8971 -0.4246
vn 0.5845 -0.4746 -0.6581
vn 0.7454 0.1250 -0.6548
vn -0.8442 0.2211 0.4882
vn -0.3532 0.7621 0.5426
vn -0.6421 0.5873 -0.4927
vn -0.9711 -0.2020 -0.1273
vn -0.0065 0.9483 0.3174
vn 0.0815 0.9523 -0.2941
vn -0.1139 0.3821 -0.9171
vn -0.6304 -0.0574 -0.7741
vn 0.2396 0.6714 -0.7013
vn -0.1650 0.3761 0.9118
vn -0.5926 -0.2847 0.7535
vn 0.1874 0.8183 0.5434
vn 0.5022 0.8317 -0.2369
vn 0.4452 0.4233 -0.7891
vn 0.1261 -0.2747 -0.9532
vn -0.3917 -0.7324 -0.5569
vn -0.6399 -0.7586 0.1229
# 26 vertex normals

vt 0.9677 0.9326 0.0000
vt 0.8684 0.9641 0.0000
vt 0.8567 0.8514 0.0000
vt 0.9812 0.8516 0.0000
vt 0.8648 0.7327 0.0000
vt 0.9657 0.7664 0.0000
vt 0.7734 0.9393 0.0000
vt 0.7340 0.8490 0.0000
vt 0.7710 0.7592 0.0000
vt 0.3971 0.8606 0.0000
vt 0.3278 0.7238 0.0000
vt 0.5477 0.7212 0.0000
vt 0.5322 0.9327 0.0000
vt 0.3907 0.5721 0.0000
vt 0.5276 0.5080 0.0000
vt 0.7623 0.7180 0.0000
vt 0.6899 0.8701 0.0000
vt 0.6697 0.5709 0.0000
vt 0.5938 0.4116 0.0000
vt 0.5012 0.4712 0.0000
vt 0.5043 0.2441 0.0000
vt 0.6216 0.2372 0.0000
vt 0.4152 0.4056 0.0000
vt 0.3870 0.2318 0.0000
vt 0.5070 0.0298 0.0000
vt 0.5997 0.0595 0.0000
vt 0.4190 0.0666 0.0000
vt 0.2728 0.4393 0.0000
vt 0.1697 0.4889 0.0000
vt 0.1654 0.3051 0.0000
vt 0.3143 0.2989 0.0000
vt 0.0525 0.4430 0.0000
vt 0.0303 0.3065 0.0000
vt 0.1690 0.0550 0.0000
vt 0.2592 0.0942 0.0000
vt 0.0692 0.1007 0.0000
vt 0.9214 0.4216 0.0000
vt 0.8193 0.4894 0.0000
vt 0.8157 0.2603 0.0000
vt 0.9610 0.2489 0.0000
vt 0.7284 0.4343 0.0000
vt 0.6697 0.2572 0.0000
vt 0.8162 0.0308 0.0000
vt 0.9311 0.0511 0.0000
vt 0.7270 0.0632 0.0000
vt 0.2644 0.9208 0.0000
vt 0.1745 0.9602 0.0000
vt 0.1747 0.7385 0.0000
vt 0.3129 0.7404 0.0000
vt 0.0750 0.9077 0.0000
vt 0.0359 0.7380 0.0000
vt 0.1752 0.5159 0.0000
vt 0.2674 0.5679 0.0000
vt 0.0567 0.5317 0.0000
# 54 texture coords

g Stone_F_3_LOD01
usemtl 08___Default
s 1
f 135/207/135 136/208/136 137/209/137 
f 137/209/137 138/210/138 135/207/135 
f 138/210/138 137/209/137 139/211/139 
f 139/211/139 140/212/140 138/210/138 
f 136/208/136 141/213/141 142/214/142 
f 142/214/142 137/209/137 136/208/136 
f 137/209/137 142/214/142 143/215/143 
f 143/215/143 139/211/139 137/209/137 
f 144/216/144 145/217/145 146/218/146 
f 146/218/146 147/219/147 144/216/144 
f 145/217/145 148/220/148 149/221/149 
f 149/221/149 146/218/146 145/217/145 
f 147/219/147 146/218/146 150/222/150 
f 150/222/150 151/223/151 147/219/147 
f 146/218/146 149/221/149 152/224/152 
f 152/224/152 150/222/150 146/218/146 
f 135/225/135 138/226/138 153/227/153 
f 153/227/153 154/228/154 135/225/135 
f 138/226/138 140/229/140 155/230/155 
f 155/230/155 153/227/153 138/226/138 
f 154/228/154 153/227/153 145/231/145 
f 145/231/145 144/232/144 154/228/154 
f 153/227/153 155/230/155 148/233/148 
f 148/233/148 145/231/145 153/227/153 
f 140/234/140 139/235/139 156/236/156 
f 156/236/156 155/237/155 140/234/140 
f 139/235/139 143/238/143 157/239/157 
f 157/239/157 156/236/156 139/235/139 
f 155/237/155 156/236/156 149/240/149 
f 149/240/149 148/241/148 155/237/155 
f 156/236/156 157/239/157 152/242/152 
f 152/242/152 149/240/149 156/236/156 
f 143/243/143 142/244/142 158/245/158 
f 158/245/158 157/246/157 143/243/143 
f 142/244/142 141/247/141 159/248/159 
f 159/248/159 158/245/158 142/244/142 
f 157/246/157 158/245/158 150/249/150 
f 150/249/150 152/250/152 157/246/157 
f 158/245/158 159/248/159 151/251/151 
f 151/251/151 150/249/150 158/245/158 
f 141/252/141 136/253/136 160/254/160 
f 160/254/160 159/255/159 141/252/141 
f 136/253/136 135/256/135 154/257/154 
f 154/257/154 160/254/160 136/253/136 
f 159/255/159 160/254/160 147/258/147 
f 147/258/147 151/259/151 159/255/159 
f 160/254/160 154/257/154 144/260/144 
f 144/260/144 147/258/147 160/254/160 
# 0 polygons - 48 triangles

#
# object Stone_F_3_LOD02
#

v  -7.2259 0.2681 4.4403
v  -6.9269 0.7760 3.3820
v  -6.3088 -0.0508 2.9436
v  -6.5182 -0.5575 4.4415
v  -4.8528 -0.5180 3.5117
v  -5.3579 -0.9252 4.6057
v  -6.4382 1.1596 3.1422
v  -5.5273 0.5385 2.8593
v  -4.6594 0.0724 3.2719
v  -4.4358 2.6202 7.2908
v  -4.1114 1.7961 7.2280
v  -3.5635 2.7315 7.0588
v  -4.3929 2.9956 7.0648
v  -3.7329 1.3956 6.6908
v  -3.3947 1.5643 6.4648
v  -3.3708 2.5367 6.0096
v  -3.9232 3.0331 6.3180
v  -3.3979 1.8740 5.7663
v  -5.6416 0.3020 6.0490
v  -6.4280 1.4476 6.0745
v  -4.5781 -0.2043 5.8537
v  -3.8477 0.2098 5.0955
v  -3.7675 0.9676 4.3853
v  -4.3590 1.8147 4.0307
v  -5.5092 2.5002 4.6417
v  -6.2037 2.1726 5.3519
# 26 vertices

vn -0.9755 -0.1834 0.1214
vn -0.8331 0.1989 -0.5161
vn -0.3745 -0.4536 -0.8087
vn -0.5368 -0.8359 0.1148
vn 0.4011 -0.7646 -0.5044
vn 0.0271 -0.9926 0.1182
vn -0.3604 0.5107 -0.7806
vn 0.1626 0.1434 -0.9762
vn 0.6206 -0.2125 -0.7548
vn -0.2674 0.2409 0.9330
vn 0.1540 -0.3582 0.9208
vn 0.6812 0.5091 0.5261
vn -0.1829 0.8512 0.4920
vn 0.4837 -0.5532 0.6782
vn 0.9057 -0.2695 0.3272
vn 0.8787 0.4527 -0.1513
vn 0.3970 0.9174 0.0286
vn 0.9906 -0.0395 -0.1306
vn -0.3527 -0.5505 0.7567
vn -0.7850 0.1099 0.6097
vn 0.2613 -0.7698 0.5824
vn 0.8307 -0.5567 0.0005
vn 0.8923 -0.0387 -0.4497
vn 0.4501 0.5618 -0.6942
vn -0.2144 0.8902 -0.4019
vn -0.7179 0.6917 0.0792
# 26 vertex normals

vt 0.9677 0.9326 0.0000
vt 0.8684 0.9641 0.0000
vt 0.8567 0.8514 0.0000
vt 0.9812 0.8516 0.0000
vt 0.8648 0.7327 0.0000
vt 0.9657 0.7664 0.0000
vt 0.7734 0.9393 0.0000
vt 0.7340 0.8490 0.0000
vt 0.7710 0.7592 0.0000
vt 0.3971 0.8606 0.0000
vt 0.3278 0.7238 0.0000
vt 0.5477 0.7212 0.0000
vt 0.5322 0.9327 0.0000
vt 0.3907 0.5721 0.0000
vt 0.5276 0.5080 0.0000
vt 0.7623 0.7180 0.0000
vt 0.6899 0.8701 0.0000
vt 0.6697 0.5709 0.0000
vt 0.5938 0.4116 0.0000
vt 0.5012 0.4712 0.0000
vt 0.5043 0.2441 0.0000
vt 0.6216 0.2372 0.0000
vt 0.4152 0.4056 0.0000
vt 0.3870 0.2318 0.0000
vt 0.5070 0.0298 0.0000
vt 0.5997 0.0595 0.0000
vt 0.4190 0.0666 0.0000
vt 0.2728 0.4393 0.0000
vt 0.1697 0.4889 0.0000
vt 0.1654 0.3051 0.0000
vt 0.3143 0.2989 0.0000
vt 0.0525 0.4430 0.0000
vt 0.0303 0.3065 0.0000
vt 0.1690 0.0550 0.0000
vt 0.2592 0.0942 0.0000
vt 0.0692 0.1007 0.0000
vt 0.9214 0.4216 0.0000
vt 0.8193 0.4894 0.0000
vt 0.8157 0.2603 0.0000
vt 0.9610 0.2489 0.0000
vt 0.7284 0.4343 0.0000
vt 0.6697 0.2572 0.0000
vt 0.8162 0.0308 0.0000
vt 0.9311 0.0511 0.0000
vt 0.7270 0.0632 0.0000
vt 0.2644 0.9208 0.0000
vt 0.1745 0.9602 0.0000
vt 0.1747 0.7385 0.0000
vt 0.3129 0.7404 0.0000
vt 0.0750 0.9077 0.0000
vt 0.0359 0.7380 0.0000
vt 0.1752 0.5159 0.0000
vt 0.2674 0.5679 0.0000
vt 0.0567 0.5317 0.0000
# 54 texture coords

g Stone_F_3_LOD02
usemtl 08___Default
s 1
f 161/261/161 162/262/162 163/263/163 
f 163/263/163 164/264/164 161/261/161 
f 164/264/164 163/263/163 165/265/165 
f 165/265/165 166/266/166 164/264/164 
f 162/262/162 167/267/167 168/268/168 
f 168/268/168 163/263/163 162/262/162 
f 163/263/163 168/268/168 169/269/169 
f 169/269/169 165/265/165 163/263/163 
f 170/270/170 171/271/171 172/272/172 
f 172/272/172 173/273/173 170/270/170 
f 171/271/171 174/274/174 175/275/175 
f 175/275/175 172/272/172 171/271/171 
f 173/273/173 172/272/172 176/276/176 
f 176/276/176 177/277/177 173/273/173 
f 172/272/172 175/275/175 178/278/178 
f 178/278/178 176/276/176 172/272/172 
f 161/279/161 164/280/164 179/281/179 
f 179/281/179 180/282/180 161/279/161 
f 164/280/164 166/283/166 181/284/181 
f 181/284/181 179/281/179 164/280/164 
f 180/282/180 179/281/179 171/285/171 
f 171/285/171 170/286/170 180/282/180 
f 179/281/179 181/284/181 174/287/174 
f 174/287/174 171/285/171 179/281/179 
f 166/288/166 165/289/165 182/290/182 
f 182/290/182 181/291/181 166/288/166 
f 165/289/165 169/292/169 183/293/183 
f 183/293/183 182/290/182 165/289/165 
f 181/291/181 182/290/182 175/294/175 
f 175/294/175 174/295/174 181/291/181 
f 182/290/182 183/293/183 178/296/178 
f 178/296/178 175/294/175 182/290/182 
f 169/297/169 168/298/168 184/299/184 
f 184/299/184 183/300/183 169/297/169 
f 168/298/168 167/301/167 185/302/185 
f 185/302/185 184/299/184 168/298/168 
f 183/300/183 184/299/184 176/303/176 
f 176/303/176 178/304/178 183/300/183 
f 184/299/184 185/302/185 177/305/177 
f 177/305/177 176/303/176 184/299/184 
f 167/306/167 162/307/162 186/308/186 
f 186/308/186 185/309/185 167/306/167 
f 162/307/162 161/310/161 180/311/180 
f 180/311/180 186/308/186 162/307/162 
f 185/309/185 186/308/186 173/312/173 
f 173/312/173 177/313/177 185/309/185 
f 186/308/186 180/311/180 170/314/170 
f 170/314/170 173/312/173 186/308/186 
# 0 polygons - 48 triangles

#
# object Stone_F_3_LOD04
#

v  -7.0483 0.2940 -4.5004
v  -7.1839 1.4667 -4.7718
v  -6.5809 1.5131 -5.7163
v  -6.2294 0.0544 -5.1746
v  -4.9604 1.3400 -5.7883
v  -5.0258 0.1282 -5.4075
v  -6.8724 2.0403 -4.6401
v  -5.9881 2.1995 -5.3388
v  -4.9642 1.9317 -5.4827
v  -4.0309 0.6104 -1.0021
v  -3.5898 0.2826 -1.6994
v  -3.3068 1.1529 -1.0942
v  -4.1303 1.0116 -0.8502
v  -3.3216 0.5680 -2.3618
v  -3.1056 0.9512 -2.3837
v  -3.4053 1.8652 -1.9058
v  -3.9232 1.7405 -1.3034
v  -3.3777 1.6392 -2.5747
v  -5.0902 -0.2901 -3.5392
v  -6.0354 0.0918 -2.5947
v  -4.0587 -0.0725 -4.0999
v  -3.6831 0.9801 -4.2758
v  -3.9660 1.9714 -4.1267
v  -4.7868 2.5206 -3.6597
v  -5.8082 2.0774 -2.6972
v  -6.1812 1.1236 -2.4847
# 26 vertices

vn -0.8402 -0.5416 -0.0288
vn -0.9717 0.1968 -0.1310
vn -0.5070 0.1844 -0.8420
vn -0.3080 -0.7680 -0.5615
vn 0.3686 0.0542 -0.9280
vn 0.2498 -0.6639 -0.7049
vn -0.6688 0.7401 -0.0702
vn -0.1690 0.8492 -0.5003
vn 0.3933 0.6400 -0.6601
vn -0.0150 -0.6273 0.7786
vn 0.4892 -0.8243 0.2850
vn 0.6980 0.1616 0.6977
vn -0.1848 0.0833 0.9792
vn 0.7614 -0.6475 -0.0316
vn 0.9961 -0.0762 -0.0445
vn 0.6895 0.6885 0.2250
vn 0.2050 0.6631 0.7199
vn 0.8940 0.4216 -0.1521
vn 0.0028 -0.9986 0.0530
vn -0.5710 -0.6539 0.4963
vn 0.5659 -0.7851 -0.2517
vn 0.8824 -0.0363 -0.4691
vn 0.7059 0.6183 -0.3456
vn 0.1048 0.9945 -0.0093
vn -0.4907 0.7424 0.4561
vn -0.7786 0.0984 0.6197
# 26 vertex normals

vt 0.9677 0.9326 0.0000
vt 0.8684 0.9641 0.0000
vt 0.8567 0.8514 0.0000
vt 0.9812 0.8516 0.0000
vt 0.8648 0.7327 0.0000
vt 0.9657 0.7664 0.0000
vt 0.7734 0.9393 0.0000
vt 0.7340 0.8490 0.0000
vt 0.7710 0.7592 0.0000
vt 0.3971 0.8606 0.0000
vt 0.3278 0.7238 0.0000
vt 0.5477 0.7212 0.0000
vt 0.5322 0.9327 0.0000
vt 0.3907 0.5721 0.0000
vt 0.5276 0.5080 0.0000
vt 0.7623 0.7180 0.0000
vt 0.6899 0.8701 0.0000
vt 0.6697 0.5709 0.0000
vt 0.5938 0.4116 0.0000
vt 0.5012 0.4712 0.0000
vt 0.5043 0.2441 0.0000
vt 0.6216 0.2372 0.0000
vt 0.4152 0.4056 0.0000
vt 0.3870 0.2318 0.0000
vt 0.5070 0.0298 0.0000
vt 0.5997 0.0595 0.0000
vt 0.4190 0.0666 0.0000
vt 0.2728 0.4393 0.0000
vt 0.1697 0.4889 0.0000
vt 0.1654 0.3051 0.0000
vt 0.3143 0.2989 0.0000
vt 0.0525 0.4430 0.0000
vt 0.0303 0.3065 0.0000
vt 0.1690 0.0550 0.0000
vt 0.2592 0.0942 0.0000
vt 0.0692 0.1007 0.0000
vt 0.9214 0.4216 0.0000
vt 0.8193 0.4894 0.0000
vt 0.8157 0.2603 0.0000
vt 0.9610 0.2489 0.0000
vt 0.7284 0.4343 0.0000
vt 0.6697 0.2572 0.0000
vt 0.8162 0.0308 0.0000
vt 0.9311 0.0511 0.0000
vt 0.7270 0.0632 0.0000
vt 0.2644 0.9208 0.0000
vt 0.1745 0.9602 0.0000
vt 0.1747 0.7385 0.0000
vt 0.3129 0.7404 0.0000
vt 0.0750 0.9077 0.0000
vt 0.0359 0.7380 0.0000
vt 0.1752 0.5159 0.0000
vt 0.2674 0.5679 0.0000
vt 0.0567 0.5317 0.0000
# 54 texture coords

g Stone_F_3_LOD04
usemtl 08___Default
s 1
f 187/315/187 188/316/188 189/317/189 
f 189/317/189 190/318/190 187/315/187 
f 190/318/190 189/317/189 191/319/191 
f 191/319/191 192/320/192 190/318/190 
f 188/316/188 193/321/193 194/322/194 
f 194/322/194 189/317/189 188/316/188 
f 189/317/189 194/322/194 195/323/195 
f 195/323/195 191/319/191 189/317/189 
f 196/324/196 197/325/197 198/326/198 
f 198/326/198 199/327/199 196/324/196 
f 197/325/197 200/328/200 201/329/201 
f 201/329/201 198/326/198 197/325/197 
f 199/327/199 198/326/198 202/330/202 
f 202/330/202 203/331/203 199/327/199 
f 198/326/198 201/329/201 204/332/204 
f 204/332/204 202/330/202 198/326/198 
f 187/333/187 190/334/190 205/335/205 
f 205/335/205 206/336/206 187/333/187 
f 190/334/190 192/337/192 207/338/207 
f 207/338/207 205/335/205 190/334/190 
f 206/336/206 205/335/205 197/339/197 
f 197/339/197 196/340/196 206/336/206 
f 205/335/205 207/338/207 200/341/200 
f 200/341/200 197/339/197 205/335/205 
f 192/342/192 191/343/191 208/344/208 
f 208/344/208 207/345/207 192/342/192 
f 191/343/191 195/346/195 209/347/209 
f 209/347/209 208/344/208 191/343/191 
f 207/345/207 208/344/208 201/348/201 
f 201/348/201 200/349/200 207/345/207 
f 208/344/208 209/347/209 204/350/204 
f 204/350/204 201/348/201 208/344/208 
f 195/351/195 194/352/194 210/353/210 
f 210/353/210 209/354/209 195/351/195 
f 194/352/194 193/355/193 211/356/211 
f 211/356/211 210/353/210 194/352/194 
f 209/354/209 210/353/210 202/357/202 
f 202/357/202 204/358/204 209/354/209 
f 210/353/210 211/356/211 203/359/203 
f 203/359/203 202/357/202 210/353/210 
f 193/360/193 188/361/188 212/362/212 
f 212/362/212 211/363/211 193/360/193 
f 188/361/188 187/364/187 206/365/206 
f 206/365/206 212/362/212 188/361/188 
f 211/363/211 212/362/212 199/366/199 
f 199/366/199 203/367/203 211/363/211 
f 212/362/212 206/365/206 196/368/196 
f 196/368/196 199/366/199 212/362/212 
# 0 polygons - 48 triangles

