# 3ds Max Wavefront OBJ Exporter v0.97b - (c)2007 guruware
# File Created: 26.07.2011 13:47:43

mtllib spaceCompound.mtl

#
# object Window
#

v  -8.6007 1.3993 10.0000
v  -8.6007 8.6007 10.0000
v  8.6007 8.6007 10.0000
v  8.6007 1.3993 10.0000
# 4 vertices

vn 0.0000 0.0000 -1.0000
# 1 vertex normals

vt 0.0000 0.0000 0.0000
vt 0.0000 1.0000 0.0000
vt 1.0000 1.0000 0.0000
vt 1.0000 0.0000 0.0000
# 4 texture coords

g Window
usemtl Window
f 1/1/1 2/2/1 3/3/1 
f 3/3/1 4/4/1 1/1/1 
# 2 faces

#
# object DoorWay1
#

v  15.0000 7.6721 -3.5444
v  15.0000 7.6721 3.6507
v  10.0000 7.6721 3.5444
v  10.0000 7.6721 -3.6507
v  15.0000 0.0000 3.6507
v  10.0000 0.0000 3.5444
v  15.0000 0.0000 -3.5444
v  10.0000 0.0000 -3.6507
# 8 vertices

vn 0.0000 -1.0000 -0.0000
vn 0.0213 0.0000 -0.9998
vn 0.0213 -0.0000 -0.9998
vn 0.0000 1.0000 -0.0000
vn -0.0213 -0.0000 0.9998
vn -0.0213 0.0000 0.9998
# 6 vertex normals

vt 0.5000 0.2911 0.8836
vt 0.5000 1.7301 0.8836
vt 1.5000 1.7089 0.8836
vt 1.5000 0.2699 0.8836
vt 1.5000 1.7672 0.8651
vt 1.5000 0.2328 0.8651
vt 0.5000 0.2328 0.8544
vt 0.5000 1.7672 0.8544
vt 0.5000 1.7089 0.1164
vt 1.5000 1.7301 0.1164
vt 1.5000 0.2911 0.1164
vt 0.5000 0.2699 0.1164
vt 0.5000 0.2328 0.1456
vt 0.5000 1.7672 0.1456
vt 1.5000 1.7672 0.1349
vt 1.5000 0.2328 0.1349
# 16 texture coords

g DoorWay1
usemtl MetalPanels
f 5/5/2 6/6/2 7/7/2 
f 7/7/2 8/8/2 5/5/2 
f 6/9/3 9/10/3 10/11/3 
f 10/11/4 7/12/4 6/9/4 
f 10/13/5 9/14/5 11/15/5 
f 11/15/5 12/16/5 10/13/5 
f 11/17/6 5/18/6 8/19/6 
f 8/19/7 12/20/7 11/17/7 
# 8 faces

#
# object DoorWay3
#

v  -15.0000 7.6721 3.5444
v  -15.0000 7.6721 -3.6507
v  -10.0000 7.7028 -3.6317
v  -10.0000 7.7028 3.5386
v  -10.0000 0.0000 3.5386
v  -15.0000 0.0000 3.5444
v  -15.0000 0.0000 -3.6507
v  -10.0000 0.0000 -3.6317
# 8 vertices

vn 0.0061 -1.0000 -0.0000
vn -0.0012 0.0000 -1.0000
vn -0.0012 -0.0000 -1.0000
vn 0.0000 1.0000 -0.0000
vn -0.0038 -0.0000 1.0000
vn -0.0038 0.0000 1.0000
# 6 vertex normals

vt 1.5000 1.7195 0.8821
vt 1.5000 0.2805 0.8821
vt 0.5000 0.2843 0.8851
vt 0.5000 1.7184 0.8851
vt 1.5000 1.7703 0.8592
vt 1.5000 0.2297 0.8592
vt 0.5000 0.2297 0.8598
vt 0.5000 1.7641 0.8598
vt 0.5000 0.2805 0.1149
vt 0.5000 1.7195 0.1149
vt 1.5000 1.7184 0.1149
vt 1.5000 0.2843 0.1149
vt 0.5000 0.2297 0.1421
vt 0.5000 1.7703 0.1421
vt 1.5000 1.7641 0.1402
vt 1.5000 0.2297 0.1402
# 16 texture coords

g DoorWay3
usemtl MetalPanels
f 13/21/8 14/22/8 15/23/8 
f 15/23/8 16/24/8 13/21/8 
f 16/25/9 17/26/9 18/27/9 
f 18/27/10 13/28/10 16/25/10 
f 19/29/11 18/30/11 17/31/11 
f 17/31/11 20/32/11 19/29/11 
f 20/33/12 15/34/12 14/35/12 
f 14/35/13 19/36/13 20/33/13 
# 8 faces

#
# object MainRoom
#

v  10.0000 10.0000 -10.0000
v  10.0000 10.0000 10.0000
v  -10.0000 10.0000 10.0000
v  -10.0000 10.0000 -10.0000
v  10.0000 0.0000 3.5444
v  10.0000 0.0000 10.0000
v  10.0000 7.6721 3.5444
v  3.6270 0.0000 -10.0000
v  10.0000 0.0000 -10.0000
v  3.6270 7.6842 -10.0000
v  -10.0000 0.0000 -3.6317
v  -10.0000 0.0000 -10.0000
v  -10.0000 7.7028 -3.6317
v  10.0000 0.0000 -3.6507
v  10.0000 7.6721 -3.6507
v  -3.5401 0.0000 -10.0000
v  -3.5401 7.6842 -10.0000
v  -10.0000 0.0000 10.0000
v  -10.0000 0.0000 3.5386
v  -10.0000 7.7028 3.5386
v  -8.6007 1.3993 10.0000
v  8.6007 1.3993 10.0000
v  8.6007 8.6007 10.0000
v  -8.6007 8.6007 10.0000
# 24 vertices

vn 0.0000 -1.0000 -0.0000
vn -1.0000 -0.0000 0.0000
vn -1.0000 0.0000 0.0000
vn -1.0000 0.0000 -0.0000
vn 0.0000 0.0000 1.0000
vn -0.0000 0.0000 1.0000
vn 1.0000 0.0000 -0.0000
vn -1.0000 -0.0000 -0.0000
vn -0.0000 -0.0000 1.0000
vn 0.0000 -0.0000 -1.0000
vn 0.0000 0.0000 -1.0000
vn -0.0000 0.0000 -1.0000
vn 0.0000 1.0000 -0.0000
# 13 vertex normals

vt -1.0000 -1.0000 1.0000
vt -1.0000 3.0000 1.0000
vt 3.0000 3.0000 1.0000
vt 3.0000 -1.0000 1.0000
vt 0.2911 0.0000 -0.5000
vt -1.0000 0.0000 -0.5000
vt -1.0000 2.0000 -0.5000
vt 0.2911 1.5344 -0.5000
vt 0.2746 0.0000 -0.5000
vt 0.2746 1.5368 -0.5000
vt 0.2737 0.0000 1.5000
vt -1.0000 0.0000 1.5000
vt -1.0000 2.0000 1.5000
vt 0.2737 1.5406 1.5000
vt 3.0000 0.0000 -0.5000
vt 1.7301 0.0000 -0.5000
vt 1.7301 1.5344 -0.5000
vt 3.0000 2.0000 -0.5000
vt 1.7080 0.0000 -0.5000
vt 1.7080 1.5368 -0.5000
vt 3.0000 0.0000 1.5000
vt 1.7077 0.0000 1.5000
vt 1.7077 1.5406 1.5000
vt 3.0000 2.0000 1.5000
vt -0.7201 0.2799 1.5000
vt 2.7201 0.2799 1.5000
vt 2.7201 1.7201 1.5000
vt -0.7201 1.7201 1.5000
vt -1.0000 3.0000 0.0000
vt 3.0000 3.0000 0.0000
vt 3.0000 1.7089 0.0000
vt 3.0000 0.2699 0.0000
vt 3.0000 -1.0000 0.0000
vt 1.7254 -1.0000 0.0000
vt 0.2920 -1.0000 0.0000
vt -1.0000 -1.0000 0.0000
vt -1.0000 0.2737 0.0000
vt -1.0000 1.7077 0.0000
# 38 texture coords

g MainRoom
usemtl MetalPanels
f 21/37/14 22/38/14 23/39/14 
f 23/39/14 24/40/14 21/37/14 
f 25/41/15 26/42/16 22/43/17 
f 22/43/17 27/44/17 25/41/15 
f 28/45/18 29/42/18 21/43/19 
f 21/43/19 30/46/19 28/45/18 
f 31/47/20 32/48/20 24/49/20 
f 24/49/20 33/50/20 31/47/20 
f 29/51/15 34/52/15 35/53/21 
f 35/53/21 21/54/21 29/51/15 
f 21/54/21 35/53/21 27/44/17 
f 27/44/17 22/43/17 21/54/21 
f 32/51/18 36/55/18 37/56/22 
f 37/56/22 24/54/22 32/51/18 
f 24/54/22 37/56/22 30/46/19 
f 30/46/19 21/43/19 24/54/22 
f 38/57/20 39/58/20 40/59/20 
f 40/59/20 23/60/20 38/57/20 
f 23/60/20 40/59/20 33/50/20 
f 33/50/20 24/49/20 23/60/20 
f 38/48/23 41/61/23 42/62/23 
f 42/62/24 26/57/24 38/48/24 
f 26/57/25 42/62/25 43/63/25 
f 43/63/25 22/60/25 26/57/25 
f 22/60/23 43/63/23 44/64/23 
f 44/64/24 23/49/24 22/60/24 
f 23/49/25 44/64/25 41/61/25 
f 41/61/25 38/48/25 23/49/25 
f 38/65/26 26/66/26 25/67/26 
f 38/65/26 25/67/26 34/68/26 
f 38/65/26 34/68/26 29/69/26 
f 38/65/26 29/69/26 28/70/26 
f 38/65/26 28/70/26 36/71/26 
f 36/71/26 32/72/26 31/73/26 
f 36/71/26 31/73/26 39/74/26 
f 38/65/26 36/71/26 39/74/26 
# 36 faces

#
# object Room1
#

v  -10.0000 0.0000 -35.0000
v  -10.0000 0.0000 -15.0000
v  -3.5444 0.0000 -15.0000
v  3.6507 0.0000 -15.0000
v  10.0000 0.0000 -15.0000
v  10.0000 0.0000 -35.0000
v  10.0000 10.0000 -15.0000
v  -10.0000 10.0000 -15.0000
v  -10.0000 10.0000 -35.0000
v  10.0000 10.0000 -35.0000
v  -3.5444 7.7103 -15.0080
v  3.6507 7.7103 -15.0080
# 12 vertices

vn 0.0000 1.0000 -0.0000
vn 0.0000 -1.0000 -0.0000
vn 1.0000 0.0000 0.0000
vn -1.0000 0.0000 -0.0000
vn -0.0000 0.0000 1.0000
vn -0.0007 0.0003 -1.0000
vn -0.0007 0.0017 -1.0000
vn -0.0006 -0.0004 -1.0000
vn -0.0000 0.0000 -1.0000
vn 0.0003 0.0019 -1.0000
vn 0.0010 0.0008 -1.0000
vn 0.0006 -0.0006 -1.0000
vn -0.0000 -0.0010 -1.0000
# 13 vertex normals

vt -6.0000 -6.0000 0.5000
vt -6.0000 -2.0000 0.5000
vt -4.7089 -2.0000 0.5000
vt -3.2699 -2.0000 0.5000
vt -2.0000 -2.0000 0.5000
vt -2.0000 -6.0000 0.5000
vt 4.0000 -2.0000 1.5000
vt 8.0000 -2.0000 1.5000
vt 8.0000 -6.0000 1.5000
vt 4.0000 -6.0000 1.5000
vt -2.0000 3.0000 4.0000
vt -2.0000 1.0000 4.0000
vt -6.0000 1.0000 4.0000
vt -6.0000 3.0000 4.0000
vt 8.0000 3.0000 2.0000
vt 8.0000 1.0000 2.0000
vt 4.0000 1.0000 2.0000
vt 4.0000 3.0000 2.0000
vt 8.0000 3.0000 -3.0000
vt 8.0000 1.0000 -3.0000
vt 4.0000 1.0000 -3.0000
vt 4.0000 3.0000 -3.0000
vt -6.0000 3.0000 -1.0000
vt -4.7089 2.5421 -1.0008
vt -4.7089 1.0000 -1.0000
vt -6.0000 1.0000 -1.0000
vt -3.2699 2.5421 -1.0008
vt -2.0000 3.0000 -1.0000
vt -2.0000 1.0000 -1.0000
vt -3.2699 1.0000 -1.0000
# 30 texture coords

g Room1
usemtl MetalPanels
f 45/75/27 46/76/27 47/77/27 
f 45/75/27 47/77/27 48/78/27 
f 45/75/27 48/78/27 49/79/27 
f 45/75/27 49/79/27 50/80/27 
f 51/81/28 52/82/28 53/83/28 
f 53/83/28 54/84/28 51/81/28 
f 52/85/29 46/86/29 45/87/29 
f 45/87/29 53/88/29 52/85/29 
f 54/89/30 50/90/30 49/91/30 
f 49/91/30 51/92/30 54/89/30 
f 53/93/31 45/94/31 50/95/31 
f 50/95/31 54/96/31 53/93/31 
f 52/97/32 55/98/33 47/99/34 
f 47/99/34 46/100/35 52/97/32 
f 56/101/36 51/102/37 49/103/38 
f 49/103/38 48/104/39 56/101/36 
f 55/98/33 52/97/32 51/102/37 
f 51/102/37 56/101/36 55/98/33 
# 18 faces

#
# object Room2
#

v  -35.0000 0.0000 10.0000
v  -15.0000 0.0000 10.0000
v  -15.0000 0.0000 3.5444
v  -15.0000 0.0000 -3.6507
v  -15.0000 0.0000 -10.0000
v  -35.0000 0.0000 -10.0000
v  -35.0000 10.0000 10.0000
v  -35.0000 10.0000 -10.0000
v  -15.0000 10.0000 -10.0000
v  -15.0000 10.0000 10.0000
v  -15.0000 7.6721 3.5444
v  -15.0000 7.6721 -3.6507
# 12 vertices

vn 0.0000 1.0000 -0.0000
vn 0.0000 -1.0000 -0.0000
vn 0.0000 0.0000 -1.0000
vn -1.0000 0.0000 0.0000
vn -0.0000 0.0000 1.0000
vn 1.0000 0.0000 -0.0000
# 6 vertex normals

vt -1.0000 3.0000 0.0000
vt 3.0000 3.0000 0.0000
vt 3.0000 1.7089 0.0000
vt 3.0000 0.2699 0.0000
vt 3.0000 -1.0000 0.0000
vt -1.0000 -1.0000 0.0000
vt 3.0000 3.0000 1.0000
vt 3.0000 -1.0000 1.0000
vt -1.0000 -1.0000 1.0000
vt -1.0000 3.0000 1.0000
vt -1.0000 0.0000 1.5000
vt -1.0000 2.0000 1.5000
vt 3.0000 2.0000 1.5000
vt 3.0000 0.0000 1.5000
vt 0.2911 0.0000 -0.5000
vt -1.0000 0.0000 -0.5000
vt -1.0000 2.0000 -0.5000
vt 0.2911 1.5344 -0.5000
vt 3.0000 2.0000 -0.5000
vt 3.0000 0.0000 -0.5000
vt 1.7301 0.0000 -0.5000
vt 1.7301 1.5344 -0.5000
# 22 texture coords

g Room2
usemtl MetalPanels
f 57/105/40 58/106/40 59/107/40 
f 57/105/40 59/107/40 60/108/40 
f 57/105/40 60/108/40 61/109/40 
f 57/105/40 61/109/40 62/110/40 
f 63/111/41 64/112/41 65/113/41 
f 65/113/41 66/114/41 63/111/41 
f 57/115/42 63/116/42 66/117/42 
f 66/117/42 58/118/42 57/115/42 
f 59/119/43 58/120/43 66/121/43 
f 66/121/43 67/122/43 59/119/43 
f 61/120/44 65/121/44 64/123/44 
f 64/123/44 62/124/44 61/120/44 
f 62/115/45 64/116/45 63/117/45 
f 63/117/45 57/118/45 62/115/45 
f 61/124/43 60/125/43 68/126/43 
f 68/126/43 65/123/43 61/124/43 
f 65/123/43 68/126/43 67/122/43 
f 67/122/43 66/121/43 65/123/43 
# 18 faces

#
# object Room3
#

v  35.0000 0.0000 -10.0000
v  15.0000 0.0000 -10.0000
v  15.0000 0.0000 -3.5444
v  15.0000 0.0000 3.6507
v  15.0000 0.0000 10.0000
v  35.0000 0.0000 10.0000
v  35.0000 10.0000 -10.0000
v  35.0000 10.0000 10.0000
v  15.0000 10.0000 10.0000
v  15.0000 10.0000 -10.0000
v  15.0000 7.6721 -3.5444
v  15.0000 7.6721 3.6507
# 12 vertices

vn 0.0000 1.0000 -0.0000
vn 0.0000 -1.0000 -0.0000
vn 0.0000 0.0000 1.0000
vn 1.0000 0.0000 -0.0000
vn -0.0000 0.0000 -1.0000
vn -1.0000 0.0000 0.0000
# 6 vertex normals

vt 3.0000 -1.0000 0.0000
vt -1.0000 -1.0000 0.0000
vt -1.0000 0.2911 0.0000
vt -1.0000 1.7301 0.0000
vt -1.0000 3.0000 0.0000
vt 3.0000 3.0000 0.0000
vt -1.0000 -1.0000 1.0000
vt -1.0000 3.0000 1.0000
vt 3.0000 3.0000 1.0000
vt 3.0000 -1.0000 1.0000
vt -1.0000 0.0000 -0.5000
vt -1.0000 2.0000 -0.5000
vt 3.0000 2.0000 -0.5000
vt 3.0000 0.0000 -0.5000
vt 0.2911 0.0000 1.5000
vt -1.0000 0.0000 1.5000
vt -1.0000 2.0000 1.5000
vt 0.2911 1.5344 1.5000
vt 3.0000 2.0000 1.5000
vt 3.0000 0.0000 1.5000
vt 1.7301 0.0000 1.5000
vt 1.7301 1.5344 1.5000
# 22 texture coords

g Room3
usemtl MetalPanels
f 69/127/46 70/128/46 71/129/46 
f 69/127/46 71/129/46 72/130/46 
f 69/127/46 72/130/46 73/131/46 
f 69/127/46 73/131/46 74/132/46 
f 75/133/47 76/134/47 77/135/47 
f 77/135/47 78/136/47 75/133/47 
f 69/137/48 75/138/48 78/139/48 
f 78/139/48 70/140/48 69/137/48 
f 71/141/49 70/142/49 78/143/49 
f 78/143/49 79/144/49 71/141/49 
f 73/142/50 77/143/50 76/145/50 
f 76/145/50 74/146/50 73/142/50 
f 74/137/51 76/138/51 75/139/51 
f 75/139/51 69/140/51 74/137/51 
f 73/146/49 72/147/49 80/148/49 
f 80/148/49 77/145/49 73/146/49 
f 77/145/49 80/148/49 79/144/49 
f 79/144/49 78/143/49 77/145/49 
# 18 faces

#
# object DoorWay2
#

v  3.6270 7.6842 -10.0000
v  -3.5401 7.6842 -10.0000
v  -3.5444 7.7103 -15.0080
v  3.6507 7.7103 -15.0080
v  -3.5401 0.0000 -10.0000
v  -3.5444 0.0000 -15.0000
v  3.6507 0.0000 -15.0000
v  3.6270 0.0000 -10.0000
# 8 vertices

vn 0.0000 -1.0000 -0.0052
vn 1.0000 0.0000 -0.0009
vn 1.0000 -0.0000 -0.0009
vn 0.0000 1.0000 -0.0000
vn -1.0000 0.0000 -0.0047
vn -1.0000 -0.0000 -0.0047
# 6 vertex normals

vt 0.2852 1.5008 0.8829
vt 1.7187 1.5008 0.8829
vt 1.7195 0.4992 0.8855
vt 0.2805 0.4992 0.8855
vt 1.5008 1.7658 0.8593
vt 1.5008 0.2290 0.8593
vt 0.5008 0.2290 0.8598
vt 0.4992 1.7710 0.8598
vt 1.7195 0.5008 0.1145
vt 0.2805 0.5008 0.1145
vt 0.2813 1.5008 0.1145
vt 1.7148 1.5008 0.1145
vt 0.4992 0.2290 0.1426
vt 0.4992 1.7658 0.1426
vt 1.5008 1.7710 0.1402
vt 1.4992 0.2290 0.1402
# 16 texture coords

g DoorWay2
usemtl MetalPanels
f 81/149/52 82/150/52 83/151/52 
f 83/151/52 84/152/52 81/149/52 
f 82/153/53 85/154/53 86/155/53 
f 86/155/54 83/156/54 82/153/54 
f 87/157/55 86/158/55 85/159/55 
f 85/159/55 88/160/55 87/157/55 
f 88/161/56 81/162/56 84/163/56 
f 84/163/57 87/164/57 88/161/57 
# 8 faces

