mtllib ponte.mtl
# 3ds Max Wavefront OBJ Exporter v0.97b - (c)2007 guruware
# File Created: 24.06.2012 18:53:02

mtllib ponte.mtl

#
# object
#

v  -6.4914 1.2502 -4.2668
v  -8.0808 0.5355 -4.2671
v  -8.0854 2.5613 -4.2668
v  -0.0000 2.5613 -4.2668
v  -0.0000 1.2502 -4.2668
v  -15.8473 3.3021 -4.8487
v  -15.8473 2.7954 -4.8487
v  -15.8473 2.5613 -4.2668
v  -15.8473 3.3021 4.8487
v  -15.8473 2.5613 4.2668
v  -15.8473 2.7954 4.8487
v  -8.0644 -4.5125 -4.2671
v  -8.0808 0.5355 4.2671
v  -8.0644 -4.5125 4.2671
v  -6.4914 1.2502 4.2668
v  -8.0854 2.5613 4.2668
v  0.0000 2.5613 4.2668
v  0.0000 1.2502 4.2668
v  6.4914 1.2502 -4.2668
v  8.0854 2.5613 -4.2668
v  8.0808 0.5355 -4.2671
v  15.8473 3.3021 -4.8487
v  15.8473 2.5613 -4.2668
v  15.8473 2.7954 -4.8487
v  15.8473 3.3021 4.8487
v  15.8473 2.5613 4.2668
v  15.8473 2.7954 4.8487
v  8.0644 -4.5125 -4.2671
v  8.0808 0.5355 4.2671
v  8.0644 -4.5125 4.2671
v  6.4914 1.2502 4.2668
v  8.0854 2.5613 4.2668
v  -6.4850 4.3122 -4.7670
v  -6.1450 3.0609 -4.7670
v  -6.4850 3.0609 -4.7670
v  -6.1450 4.3122 -4.7670
v  -6.4850 3.0609 -4.5556
v  -6.1450 4.3122 -4.5556
v  -6.4850 4.3122 -4.5556
v  -6.1450 3.0609 -4.5556
v  -10.6662 4.3122 -4.7670
v  -10.3263 3.0609 -4.7670
v  -10.6662 3.0609 -4.7670
v  -10.3263 4.3122 -4.7670
v  -10.6662 3.0609 -4.5556
v  -10.3263 4.3122 -4.5556
v  -10.6662 4.3122 -4.5556
v  -10.3263 3.0609 -4.5556
v  -14.2712 4.3122 -4.7670
v  -13.9447 3.0609 -4.7670
v  -14.2712 3.0609 -4.7670
v  -13.9447 4.3122 -4.7670
v  -14.2712 3.0609 -4.5556
v  -13.9447 4.3122 -4.5556
v  -14.2712 4.3122 -4.5556
v  -13.9447 3.0609 -4.5556
v  -2.5200 4.3122 -4.7670
v  -2.1696 3.0609 -4.7670
v  -2.5200 3.0609 -4.7670
v  -2.1696 4.3122 -4.7670
v  -2.5200 3.0609 -4.5556
v  -2.1696 4.3122 -4.5556
v  -2.5200 4.3122 -4.5556
v  -2.1696 3.0609 -4.5556
v  -15.8564 -4.5125 -4.2671
v  -8.0854 2.7954 -4.8487
v  -8.0854 3.3021 -4.8487
v  -0.0000 2.7954 -4.8487
v  -0.0000 3.3021 -4.8487
v  -15.2705 3.2585 -4.8484
v  -15.8453 3.2585 -4.7592
v  -14.5802 4.5125 -4.7745
v  -14.3815 4.0870 -4.8484
v  14.3815 4.0870 -4.8484
v  14.5802 4.5125 -4.7745
v  15.2705 3.2585 -4.8484
v  15.8453 3.2585 -4.7592
v  -15.8453 3.2585 -4.5640
v  -14.5802 4.5125 -4.5247
v  14.5802 4.5125 -4.5247
v  15.8453 3.2585 -4.5640
v  -15.2705 3.2585 -4.4580
v  -14.3815 4.0870 -4.4580
v  14.3815 4.0870 -4.4580
v  15.2705 3.2585 -4.4580
v  -6.1450 3.0609 4.7670
v  -6.4850 4.3122 4.7670
v  -6.4850 3.0609 4.7670
v  -6.1450 4.3122 4.7670
v  -6.1450 4.3122 4.5556
v  -6.4850 3.0609 4.5556
v  -6.4850 4.3122 4.5556
v  -6.1450 3.0609 4.5556
v  -10.3263 3.0609 4.7670
v  -10.6662 4.3122 4.7670
v  -10.6662 3.0609 4.7670
v  -10.3263 4.3122 4.7670
v  -10.3263 4.3122 4.5556
v  -10.6662 3.0609 4.5556
v  -10.6662 4.3122 4.5556
v  -10.3263 3.0609 4.5556
v  -13.9447 3.0609 4.7670
v  -14.2712 4.3122 4.7670
v  -14.2712 3.0609 4.7670
v  -13.9447 4.3122 4.7670
v  -13.9447 4.3122 4.5556
v  -14.2712 3.0609 4.5556
v  -14.2712 4.3122 4.5556
v  -13.9447 3.0609 4.5556
v  -2.1696 3.0609 4.7670
v  -2.5200 4.3122 4.7670
v  -2.5200 3.0609 4.7670
v  -2.1696 4.3122 4.7670
v  -2.1696 4.3122 4.5556
v  -2.5200 3.0609 4.5556
v  -2.5200 4.3122 4.5556
v  -2.1696 3.0609 4.5556
v  0.0000 3.3021 4.8487
v  -8.0854 3.3021 4.8487
v  -15.8564 -4.5125 4.2671
v  -8.0854 2.7954 4.8487
v  0.0000 2.7954 4.8487
v  -15.2705 3.2585 4.8484
v  -14.5802 4.5125 4.7745
v  -15.8453 3.2585 4.7592
v  -14.3815 4.0870 4.8484
v  14.3815 4.0870 4.8484
v  14.5802 4.5125 4.7745
v  15.2705 3.2585 4.8484
v  15.8453 3.2585 4.7592
v  -15.8453 3.2585 4.5640
v  -14.5802 4.5125 4.5247
v  14.5802 4.5125 4.5247
v  15.8453 3.2585 4.5640
v  -15.2705 3.2585 4.4580
v  -14.3815 4.0870 4.4580
v  14.3815 4.0870 4.4580
v  15.2705 3.2585 4.4580
v  6.2655 3.0609 -4.7670
v  6.6055 4.3122 -4.7670
v  6.6055 3.0609 -4.7670
v  6.2655 4.3122 -4.7670
v  6.2655 4.3122 -4.5556
v  6.6055 3.0609 -4.5556
v  6.6055 4.3122 -4.5556
v  6.2655 3.0609 -4.5556
v  10.4468 3.0609 -4.7670
v  10.7867 4.3122 -4.7670
v  10.7867 3.0609 -4.7670
v  10.4468 4.3122 -4.7670
v  10.4468 4.3122 -4.5556
v  10.7867 3.0609 -4.5556
v  10.7867 4.3122 -4.5556
v  10.4468 3.0609 -4.5556
v  13.9447 3.0609 -4.7670
v  14.2712 4.3122 -4.7670
v  14.2712 3.0609 -4.7670
v  13.9447 4.3122 -4.7670
v  13.9447 4.3122 -4.5556
v  14.2712 3.0609 -4.5556
v  14.2712 4.3122 -4.5556
v  13.9447 3.0609 -4.5556
v  2.1696 3.0609 -4.7670
v  2.5200 4.3122 -4.7670
v  2.5200 3.0609 -4.7670
v  2.1696 4.3122 -4.7670
v  2.1696 4.3122 -4.5556
v  2.5200 3.0609 -4.5556
v  2.5200 4.3122 -4.5556
v  2.1696 3.0609 -4.5556
v  15.8564 -4.5125 -4.2671
v  8.0854 2.7954 -4.8487
v  8.0854 3.3021 -4.8487
v  6.6055 4.3122 4.7670
v  6.2655 3.0609 4.7670
v  6.6055 3.0609 4.7670
v  6.2655 4.3122 4.7670
v  6.6055 3.0609 4.5556
v  6.2655 4.3122 4.5556
v  6.6055 4.3122 4.5556
v  6.2655 3.0609 4.5556
v  10.7867 4.3122 4.7670
v  10.4468 3.0609 4.7670
v  10.7867 3.0609 4.7670
v  10.4468 4.3122 4.7670
v  10.7867 3.0609 4.5556
v  10.4468 4.3122 4.5556
v  10.7867 4.3122 4.5556
v  10.4468 3.0609 4.5556
v  14.2712 4.3122 4.7670
v  13.9447 3.0609 4.7670
v  14.2712 3.0609 4.7670
v  13.9447 4.3122 4.7670
v  14.2712 3.0609 4.5556
v  13.9447 4.3122 4.5556
v  14.2712 4.3122 4.5556
v  13.9447 3.0609 4.5556
v  2.5200 4.3122 4.7670
v  2.1696 3.0609 4.7670
v  2.5200 3.0609 4.7670
v  2.1696 4.3122 4.7670
v  2.5200 3.0609 4.5556
v  2.1696 4.3122 4.5556
v  2.5200 4.3122 4.5556
v  2.1696 3.0609 4.5556
v  8.0854 3.3021 4.8487
v  15.8564 -4.5125 4.2671
v  8.0854 2.7954 4.8487
# 208 vertices

vn 0.0000 0.0000 -1.0000
vn 0.0000 0.0001 -1.0000
vn 0.0000 -0.5597 -0.8287
vn 0.0000 -0.5598 -0.8286
vn 0.0000 0.0000 -1.0000
vn 0.0000 -0.5597 -0.8287
vn 0.0000 -0.5598 -0.8286
vn 0.0000 0.0000 -1.0000
vn 0.0000 0.0000 -1.0000
vn -0.7071 0.7071 -0.0000
vn -1.0000 0.0000 -0.0000
vn -1.0000 0.0000 -0.0000
vn -1.0000 0.0000 -0.0000
vn -0.7071 0.7071 -0.0000
vn -0.7071 0.7071 -0.0000
vn -0.7071 0.7071 -0.0000
vn -1.0000 0.0000 -0.0000
vn -1.0000 0.0000 -0.0000
vn -0.7071 0.7071 -0.0000
vn -1.0000 0.0000 -0.0000
vn -1.0000 0.0000 -0.0000
vn 1.0000 0.0032 -0.0000
vn 1.0000 0.0032 -0.0000
vn 1.0000 0.0032 -0.0000
vn 1.0000 0.0032 -0.0000
vn 1.0000 0.0032 -0.0000
vn 1.0000 0.0032 -0.0000
vn 0.0000 0.0000 1.0000
vn 0.0000 -0.5597 0.8287
vn 0.0000 0.0001 1.0000
vn 0.0000 -0.5598 0.8286
vn 0.0000 -0.5597 0.8287
vn 0.0000 0.0000 1.0000
vn 0.0000 -0.5598 0.8286
vn 0.0000 0.0000 1.0000
vn 0.0000 0.0000 1.0000
vn -0.0000 0.0000 -1.0000
vn -0.0000 -0.5597 -0.8287
vn -0.0000 0.0001 -1.0000
vn 0.0000 -0.5598 -0.8286
vn -0.0000 -0.5597 -0.8287
vn -0.0000 0.0000 -1.0000
vn 0.0000 -0.5598 -0.8286
vn -0.0000 0.0000 -1.0000
vn 0.0000 0.0000 -1.0000
vn 0.7071 0.7071 -0.0000
vn 1.0000 0.0000 -0.0000
vn 1.0000 0.0000 -0.0000
vn 0.7071 0.7071 -0.0000
vn 1.0000 0.0000 -0.0000
vn 0.7071 0.7071 -0.0000
vn 1.0000 0.0000 -0.0000
vn 0.7071 0.7071 -0.0000
vn 1.0000 0.0000 -0.0000
vn 1.0000 0.0000 -0.0000
vn 0.7071 0.7071 -0.0000
vn 1.0000 0.0000 -0.0000
vn -1.0000 0.0032 -0.0000
vn -1.0000 0.0032 -0.0000
vn -1.0000 0.0032 -0.0000
vn -1.0000 0.0032 -0.0000
vn -1.0000 0.0032 -0.0000
vn -1.0000 0.0032 -0.0000
vn -0.0000 0.0000 1.0000
vn -0.0000 0.0001 1.0000
vn -0.0000 -0.5597 0.8287
vn 0.0000 -0.5598 0.8286
vn -0.0000 0.0000 1.0000
vn -0.0000 -0.5597 0.8287
vn 0.0000 -0.5598 0.8286
vn 0.0000 0.0000 1.0000
vn -0.0000 0.0000 1.0000
vn 0.0000 0.0000 -1.0000
vn 0.7071 0.0000 -0.7071
vn 0.0000 0.0000 -1.0000
vn 0.7071 0.0000 -0.7071
vn 0.0000 0.0000 -1.0000
vn 0.7071 0.0000 -0.7071
vn -0.7071 0.0000 0.7071
vn 0.0000 0.0000 1.0000
vn -0.7071 0.0000 0.7071
vn 0.0000 0.0000 1.0000
vn -0.7071 0.0000 0.7071
vn 0.0000 0.0000 1.0000
vn -0.7071 0.0000 0.7071
vn -1.0000 0.0000 -0.0000
vn -1.0000 0.0000 -0.0000
vn -1.0000 0.0000 -0.0000
vn -0.7071 0.0000 0.7071
vn -0.7071 0.0000 0.7071
vn 0.7071 0.0000 -0.7071
vn 1.0000 0.0000 -0.0000
vn 0.7071 0.0000 -0.7071
vn 1.0000 0.0000 -0.0000
vn 0.7071 0.0000 -0.7071
vn 1.0000 0.0000 -0.0000
vn 0.0000 0.0000 -1.0000
vn 0.7071 0.0000 -0.7071
vn 0.0000 0.0000 -1.0000
vn 0.7071 0.0000 -0.7071
vn 0.0000 0.0000 -1.0000
vn 0.7071 0.0000 -0.7071
vn -0.7071 0.0000 0.7071
vn 0.0000 0.0000 1.0000
vn -0.7071 0.0000 0.7071
vn 0.0000 0.0000 1.0000
vn -0.7071 0.0000 0.7071
vn 0.0000 0.0000 1.0000
vn -0.7071 0.0000 0.7071
vn -1.0000 0.0000 -0.0000
vn -1.0000 0.0000 -0.0000
vn -1.0000 0.0000 -0.0000
vn -0.7071 0.0000 0.7071
vn -0.7071 0.0000 0.7071
vn 0.7071 0.0000 -0.7071
vn 1.0000 0.0000 -0.0000
vn 0.7071 0.0000 -0.7071
vn 1.0000 0.0000 -0.0000
vn 0.7071 0.0000 -0.7071
vn 1.0000 0.0000 -0.0000
vn 0.0000 0.0000 -1.0000
vn 0.7071 0.0000 -0.7071
vn 0.0000 0.0000 -1.0000
vn 0.7071 0.0000 -0.7071
vn 0.0000 0.0000 -1.0000
vn 0.7071 0.0000 -0.7071
vn -0.7071 0.0000 0.7071
vn 0.0000 0.0000 1.0000
vn -0.7071 0.0000 0.7071
vn 0.0000 0.0000 1.0000
vn -0.7071 0.0000 0.7071
vn 0.0000 0.0000 1.0000
vn -0.7071 0.0000 0.7071
vn -1.0000 0.0000 -0.0000
vn -1.0000 0.0000 -0.0000
vn -1.0000 0.0000 -0.0000
vn -0.7071 0.0000 0.7071
vn -0.7071 0.0000 0.7071
vn 0.7071 0.0000 -0.7071
vn 1.0000 0.0000 -0.0000
vn 0.7071 0.0000 -0.7071
vn 1.0000 0.0000 -0.0000
vn 0.7071 0.0000 -0.7071
vn 1.0000 0.0000 -0.0000
vn 0.0000 0.0000 -1.0000
vn 0.7071 0.0000 -0.7071
vn 0.0000 0.0000 -1.0000
vn 0.7071 0.0000 -0.7071
vn 0.0000 0.0000 -1.0000
vn 0.7071 0.0000 -0.7071
vn -0.7071 0.0000 0.7071
vn 0.0000 0.0000 1.0000
vn -0.7071 0.0000 0.7071
vn 0.0000 0.0000 1.0000
vn -0.7071 0.0000 0.7071
vn 0.0000 0.0000 1.0000
vn -0.7071 0.0000 0.7071
vn -1.0000 0.0000 -0.0000
vn -1.0000 0.0000 -0.0000
vn -1.0000 0.0000 -0.0000
vn -0.7071 0.0000 0.7071
vn -0.7071 0.0000 0.7071
vn -0.0000 0.0000 -1.0000
vn 0.0000 0.0001 -1.0000
vn 0.0000 0.0000 -1.0000
vn 0.0000 0.0001 -1.0000
vn -0.0000 0.0000 -1.0000
vn -0.0000 -0.5595 -0.8288
vn -0.0000 -0.5595 -0.8288
vn 0.0000 -0.5597 -0.8287
vn 0.0000 0.0001 -1.0000
vn 0.0000 -0.5598 -0.8286
vn 0.0000 -0.5597 -0.8287
vn -0.0000 -0.5595 -0.8288
vn 0.0000 -0.5597 -0.8287
vn 0.0000 -0.5598 -0.8286
vn 0.0000 -0.5598 -0.8286
vn 0.0000 0.0000 -1.0000
vn 0.0000 -0.5598 -0.8286
vn 0.0000 -0.5598 -0.8286
vn 0.0000 -0.5598 -0.8286
vn 0.0000 0.0000 -1.0000
vn 0.0000 0.0000 -1.0000
vn 0.0000 -0.5597 -0.8287
vn 0.0000 -0.5598 -0.8286
vn 0.0000 -0.5598 -0.8286
vn 0.0000 -0.5598 -0.8286
vn 0.0000 -0.5597 -0.8287
vn 0.0000 -0.5598 -0.8286
vn 0.0000 0.0000 -1.0000
vn 0.0000 -0.5598 -0.8286
vn 0.0000 -0.5598 -0.8286
vn 0.0000 -0.5598 -0.8286
vn 0.0000 0.0000 -1.0000
vn 0.0000 0.0000 -1.0000
vn -0.1462 0.1382 -0.9796
vn -0.1517 0.1411 -0.9783
vn -0.0629 0.1471 -0.9871
vn -0.1462 0.1382 -0.9796
vn -0.0629 0.1471 -0.9871
vn -0.0539 0.1462 -0.9878
vn -0.0629 0.1471 -0.9871
vn 0.0539 0.1463 -0.9878
vn -0.0539 0.1462 -0.9878
vn -0.0629 0.1471 -0.9871
vn 0.0629 0.1472 -0.9871
vn 0.0539 0.1463 -0.9878
vn 0.1463 0.1382 -0.9795
vn 0.0539 0.1463 -0.9878
vn 0.0629 0.1472 -0.9871
vn 0.1463 0.1382 -0.9795
vn 0.0629 0.1472 -0.9871
vn 0.1517 0.1412 -0.9783
vn -0.7040 0.7102 -0.0000
vn -0.3796 0.9252 -0.0000
vn -0.7040 0.7102 -0.0000
vn -0.3796 0.9252 -0.0000
vn -0.7040 0.7102 -0.0000
vn -0.3779 0.9258 -0.0000
vn 0.3779 0.9258 -0.0000
vn -0.3796 0.9252 -0.0000
vn -0.3779 0.9258 -0.0000
vn -0.3796 0.9252 -0.0000
vn 0.3779 0.9258 -0.0000
vn 0.3796 0.9252 -0.0000
vn 0.7040 0.7102 -0.0000
vn 0.3796 0.9252 -0.0000
vn 0.3779 0.9258 -0.0000
vn 0.3796 0.9252 -0.0000
vn 0.7040 0.7102 -0.0000
vn 0.7040 0.7102 -0.0000
vn 0.2637 -0.3170 0.9110
vn -0.0623 0.1361 0.9887
vn -0.1794 0.1505 0.9722
vn -0.0623 0.1361 0.9887
vn 0.2637 -0.3170 0.9110
vn 0.1953 -0.4887 0.8503
vn -0.1953 -0.4887 0.8503
vn -0.0623 0.1361 0.9887
vn 0.1953 -0.4887 0.8503
vn -0.0623 0.1361 0.9887
vn -0.1953 -0.4887 0.8503
vn 0.0623 0.1361 0.9887
vn -0.2637 -0.3170 0.9110
vn 0.0623 0.1361 0.9887
vn -0.1953 -0.4887 0.8503
vn 0.0623 0.1361 0.9887
vn -0.2637 -0.3170 0.9110
vn 0.1794 0.1505 0.9722
vn 0.6817 -0.7316 -0.0000
vn 0.1953 -0.4887 0.8503
vn 0.2637 -0.3170 0.9110
vn 0.1953 -0.4887 0.8503
vn 0.6817 -0.7316 -0.0000
vn 0.3663 -0.9305 -0.0000
vn -0.3663 -0.9305 -0.0000
vn 0.1953 -0.4887 0.8503
vn 0.3663 -0.9305 -0.0000
vn 0.1953 -0.4887 0.8503
vn -0.3663 -0.9305 -0.0000
vn -0.1953 -0.4887 0.8503
vn -0.6817 -0.7316 -0.0000
vn -0.1953 -0.4887 0.8503
vn -0.3663 -0.9305 -0.0000
vn -0.1953 -0.4887 0.8503
vn -0.6817 -0.7316 -0.0000
vn -0.2637 -0.3170 0.9110
vn 0.7071 0.0000 -0.7071
vn 1.0000 0.0000 -0.0000
vn 0.7071 0.0000 -0.7071
vn 1.0000 0.0000 -0.0000
vn 0.7071 0.0000 -0.7071
vn 1.0000 0.0000 -0.0000
vn 0.4101 -0.9120 -0.0000
vn 0.2097 -0.9778 -0.0000
vn 0.4101 -0.9120 -0.0000
vn 0.2097 -0.9778 -0.0000
vn 0.4101 -0.9120 -0.0000
vn 0.2097 -0.9778 -0.0000
vn 0.2097 -0.9778 -0.0000
vn 0.0000 -1.0000 -0.0000
vn 0.2097 -0.9778 -0.0000
vn 0.0000 -1.0000 -0.0000
vn 0.2097 -0.9778 -0.0000
vn 0.0000 -1.0000 -0.0000
vn 0.0000 0.0000 1.0000
vn -0.7071 0.0000 0.7071
vn -0.7071 0.0000 0.7071
vn -0.7071 0.0000 0.7071
vn 0.0000 0.0000 1.0000
vn 0.0000 0.0000 1.0000
vn 0.7071 0.0000 -0.7071
vn 0.0000 0.0000 -1.0000
vn 0.0000 0.0000 -1.0000
vn 0.0000 0.0000 -1.0000
vn 0.7071 0.0000 -0.7071
vn 0.7071 0.0000 -0.7071
vn -0.7071 0.0000 0.7071
vn -1.0000 0.0000 -0.0000
vn -0.7071 0.0000 0.7071
vn -1.0000 0.0000 -0.0000
vn -0.7071 0.0000 0.7071
vn -1.0000 0.0000 -0.0000
vn 0.7071 0.0000 -0.7071
vn 1.0000 0.0000 -0.0000
vn 1.0000 0.0000 -0.0000
vn 1.0000 0.0000 -0.0000
vn 0.7071 0.0000 -0.7071
vn 0.7071 0.0000 -0.7071
vn 0.0000 0.0000 1.0000
vn -0.7071 0.0000 0.7071
vn -0.7071 0.0000 0.7071
vn -0.7071 0.0000 0.7071
vn 0.0000 0.0000 1.0000
vn 0.0000 0.0000 1.0000
vn 0.7071 0.0000 -0.7071
vn 0.0000 0.0000 -1.0000
vn 0.0000 0.0000 -1.0000
vn 0.0000 0.0000 -1.0000
vn 0.7071 0.0000 -0.7071
vn 0.7071 0.0000 -0.7071
vn -0.7071 0.0000 0.7071
vn -1.0000 0.0000 -0.0000
vn -0.7071 0.0000 0.7071
vn -1.0000 0.0000 -0.0000
vn -0.7071 0.0000 0.7071
vn -1.0000 0.0000 -0.0000
vn 0.7071 0.0000 -0.7071
vn 1.0000 0.0000 -0.0000
vn 1.0000 0.0000 -0.0000
vn 1.0000 0.0000 -0.0000
vn 0.7071 0.0000 -0.7071
vn 0.7071 0.0000 -0.7071
vn 0.0000 0.0000 1.0000
vn -0.7071 0.0000 0.7071
vn -0.7071 0.0000 0.7071
vn -0.7071 0.0000 0.7071
vn 0.0000 0.0000 1.0000
vn 0.0000 0.0000 1.0000
vn 0.7071 0.0000 -0.7071
vn 0.0000 0.0000 -1.0000
vn 0.0000 0.0000 -1.0000
vn 0.0000 0.0000 -1.0000
vn 0.7071 0.0000 -0.7071
vn 0.7071 0.0000 -0.7071
vn -0.7071 0.0000 0.7071
vn -1.0000 0.0000 -0.0000
vn -0.7071 0.0000 0.7071
vn -1.0000 0.0000 -0.0000
vn -0.7071 0.0000 0.7071
vn -1.0000 0.0000 -0.0000
vn 0.7071 0.0000 -0.7071
vn 1.0000 0.0000 -0.0000
vn 1.0000 0.0000 -0.0000
vn 1.0000 0.0000 -0.0000
vn 0.7071 0.0000 -0.7071
vn 0.7071 0.0000 -0.7071
vn 0.0000 0.0000 1.0000
vn -0.7071 0.0000 0.7071
vn -0.7071 0.0000 0.7071
vn -0.7071 0.0000 0.7071
vn 0.0000 0.0000 1.0000
vn 0.0000 0.0000 1.0000
vn 0.7071 0.0000 -0.7071
vn 0.0000 0.0000 -1.0000
vn 0.0000 0.0000 -1.0000
vn 0.0000 0.0000 -1.0000
vn 0.7071 0.0000 -0.7071
vn 0.7071 0.0000 -0.7071
vn -0.7071 0.0000 0.7071
vn -1.0000 0.0000 -0.0000
vn -0.7071 0.0000 0.7071
vn -1.0000 0.0000 -0.0000
vn -0.7071 0.0000 0.7071
vn -1.0000 0.0000 -0.0000
vn 0.0000 1.0000 -0.0000
vn 0.0000 1.0000 -0.0000
vn 0.0000 1.0000 -0.0000
vn 0.0000 1.0000 -0.0000
vn 0.0000 1.0000 -0.0000
vn 0.0000 1.0000 -0.0000
vn 0.0000 1.0000 -0.0000
vn -0.7071 0.7071 -0.0000
vn -0.7071 0.7071 -0.0000
vn -0.7071 0.7071 -0.0000
vn 0.0000 1.0000 -0.0000
vn 0.0000 1.0000 -0.0000
vn 0.0000 0.0001 1.0000
vn -0.0000 0.0000 1.0000
vn 0.0000 0.0000 1.0000
vn -0.0000 0.0000 1.0000
vn 0.0000 0.0001 1.0000
vn -0.0000 -0.5595 0.8288
vn -0.0000 -0.5595 0.8288
vn 0.0000 0.0001 1.0000
vn 0.0000 -0.5597 0.8287
vn 0.0000 -0.5597 0.8287
vn 0.0000 -0.5598 0.8286
vn -0.0000 -0.5595 0.8288
vn 0.0000 -0.5598 0.8286
vn 0.0000 -0.5597 0.8287
vn 0.0000 -0.5598 0.8286
vn 0.0000 -0.5598 0.8286
vn 0.0000 0.0000 1.0000
vn 0.0000 -0.5598 0.8286
vn 0.0000 0.0000 1.0000
vn 0.0000 -0.5598 0.8286
vn 0.0000 0.0000 1.0000
vn 0.0000 -0.5598 0.8286
vn 0.0000 -0.5597 0.8287
vn 0.0000 -0.5598 0.8286
vn 0.0000 -0.5597 0.8287
vn 0.0000 -0.5598 0.8286
vn 0.0000 -0.5598 0.8286
vn 0.0000 -0.5598 0.8286
vn 0.0000 0.0000 1.0000
vn 0.0000 -0.5598 0.8286
vn 0.0000 0.0000 1.0000
vn 0.0000 -0.5598 0.8286
vn 0.0000 0.0000 1.0000
vn 0.2808 -0.3187 0.9053
vn -0.0629 0.1472 0.9871
vn -0.1517 0.1412 0.9783
vn 0.2808 -0.3187 0.9053
vn 0.1926 -0.4811 0.8552
vn -0.0629 0.1472 0.9871
vn -0.0629 0.1472 0.9871
vn 0.1926 -0.4811 0.8552
vn -0.1926 -0.4812 0.8552
vn -0.0629 0.1472 0.9871
vn -0.1926 -0.4812 0.8552
vn 0.0629 0.1471 0.9871
vn -0.2809 -0.3187 0.9053
vn 0.0629 0.1471 0.9871
vn -0.1926 -0.4812 0.8552
vn -0.2809 -0.3187 0.9053
vn 0.1517 0.1411 0.9783
vn 0.0629 0.1471 0.9871
vn -0.3796 0.9252 -0.0000
vn -0.7040 0.7102 -0.0000
vn -0.7040 0.7102 -0.0000
vn -0.7040 0.7102 -0.0000
vn -0.3796 0.9252 -0.0000
vn -0.3779 0.9258 -0.0000
vn -0.3796 0.9252 -0.0000
vn 0.3779 0.9258 -0.0000
vn -0.3779 0.9258 -0.0000
vn 0.3779 0.9258 -0.0000
vn -0.3796 0.9252 -0.0000
vn 0.3796 0.9252 -0.0000
vn 0.3796 0.9252 -0.0000
vn 0.7040 0.7102 -0.0000
vn 0.3779 0.9258 -0.0000
vn 0.7040 0.7102 -0.0000
vn 0.3796 0.9252 -0.0000
vn 0.7040 0.7102 -0.0000
vn -0.0623 0.1361 -0.9887
vn -0.1689 0.1448 -0.9749
vn -0.1794 0.1505 -0.9722
vn -0.1689 0.1448 -0.9749
vn -0.0623 0.1361 -0.9887
vn -0.0488 0.1324 -0.9900
vn -0.0623 0.1361 -0.9887
vn 0.0488 0.1324 -0.9900
vn -0.0488 0.1324 -0.9900
vn 0.0488 0.1324 -0.9900
vn -0.0623 0.1361 -0.9887
vn 0.0623 0.1361 -0.9887
vn 0.0623 0.1361 -0.9887
vn 0.1688 0.1448 -0.9749
vn 0.0488 0.1324 -0.9900
vn 0.1688 0.1448 -0.9749
vn 0.0623 0.1361 -0.9887
vn 0.1794 0.1505 -0.9722
vn 0.3663 -0.9305 -0.0000
vn 0.2808 -0.3187 0.9053
vn 0.6817 -0.7316 -0.0000
vn 0.2808 -0.3187 0.9053
vn 0.3663 -0.9305 -0.0000
vn 0.1926 -0.4811 0.8552
vn 0.3663 -0.9305 -0.0000
vn -0.1926 -0.4812 0.8552
vn 0.1926 -0.4811 0.8552
vn -0.1926 -0.4812 0.8552
vn 0.3663 -0.9305 -0.0000
vn -0.3663 -0.9305 -0.0000
vn -0.3663 -0.9305 -0.0000
vn -0.2809 -0.3187 0.9053
vn -0.1926 -0.4812 0.8552
vn -0.2809 -0.3187 0.9053
vn -0.3663 -0.9305 -0.0000
vn -0.6817 -0.7316 -0.0000
vn 0.7071 0.0000 -0.7071
vn 1.0000 0.0000 -0.0000
vn 1.0000 0.0000 -0.0000
vn 1.0000 0.0000 -0.0000
vn 0.7071 0.0000 -0.7071
vn 0.7071 0.0000 -0.7071
vn 0.0000 0.0000 -1.0000
vn 0.7071 0.0000 -0.7071
vn 0.7071 0.0000 -0.7071
vn 0.7071 0.0000 -0.7071
vn 0.0000 0.0000 -1.0000
vn 0.0000 0.0000 -1.0000
vn -0.7071 0.0000 0.7071
vn 0.0000 0.0000 1.0000
vn 0.0000 0.0000 1.0000
vn 0.0000 0.0000 1.0000
vn -0.7071 0.0000 0.7071
vn -0.7071 0.0000 0.7071
vn 0.7071 0.0000 -0.7071
vn 1.0000 0.0000 -0.0000
vn 0.7071 0.0000 -0.7071
vn 1.0000 0.0000 -0.0000
vn 0.7071 0.0000 -0.7071
vn 1.0000 0.0000 -0.0000
vn -0.7071 0.0000 0.7071
vn -1.0000 0.0000 -0.0000
vn -1.0000 0.0000 -0.0000
vn -1.0000 0.0000 -0.0000
vn -0.7071 0.0000 0.7071
vn -0.7071 0.0000 0.7071
vn 0.0000 0.0000 -1.0000
vn 0.7071 0.0000 -0.7071
vn 0.7071 0.0000 -0.7071
vn 0.7071 0.0000 -0.7071
vn 0.0000 0.0000 -1.0000
vn 0.0000 0.0000 -1.0000
vn -0.7071 0.0000 0.7071
vn 0.0000 0.0000 1.0000
vn 0.0000 0.0000 1.0000
vn 0.0000 0.0000 1.0000
vn -0.7071 0.0000 0.7071
vn -0.7071 0.0000 0.7071
vn 0.7071 0.0000 -0.7071
vn 1.0000 0.0000 -0.0000
vn 0.7071 0.0000 -0.7071
vn 1.0000 0.0000 -0.0000
vn 0.7071 0.0000 -0.7071
vn 1.0000 0.0000 -0.0000
vn -0.7071 0.0000 0.7071
vn -1.0000 0.0000 -0.0000
vn -1.0000 0.0000 -0.0000
vn -1.0000 0.0000 -0.0000
vn -0.7071 0.0000 0.7071
vn -0.7071 0.0000 0.7071
vn 0.0000 0.0000 -1.0000
vn 0.7071 0.0000 -0.7071
vn 0.7071 0.0000 -0.7071
vn 0.7071 0.0000 -0.7071
vn 0.0000 0.0000 -1.0000
vn 0.0000 0.0000 -1.0000
vn -0.7071 0.0000 0.7071
vn 0.0000 0.0000 1.0000
vn 0.0000 0.0000 1.0000
vn 0.0000 0.0000 1.0000
vn -0.7071 0.0000 0.7071
vn -0.7071 0.0000 0.7071
vn 0.7071 0.0000 -0.7071
vn 1.0000 0.0000 -0.0000
vn 0.7071 0.0000 -0.7071
vn 1.0000 0.0000 -0.0000
vn 0.7071 0.0000 -0.7071
vn 1.0000 0.0000 -0.0000
vn -0.7071 0.0000 0.7071
vn -1.0000 0.0000 -0.0000
vn -1.0000 0.0000 -0.0000
vn -1.0000 0.0000 -0.0000
vn -0.7071 0.0000 0.7071
vn -0.7071 0.0000 0.7071
vn 0.0000 0.0000 -1.0000
vn 0.7071 0.0000 -0.7071
vn 0.7071 0.0000 -0.7071
vn 0.7071 0.0000 -0.7071
vn 0.0000 0.0000 -1.0000
vn 0.0000 0.0000 -1.0000
vn -0.7071 0.0000 0.7071
vn 0.0000 0.0000 1.0000
vn 0.0000 0.0000 1.0000
vn 0.0000 0.0000 1.0000
vn -0.7071 0.0000 0.7071
vn -0.7071 0.0000 0.7071
vn 0.7071 0.0000 -0.7071
vn 1.0000 0.0000 -0.0000
vn 0.7071 0.0000 -0.7071
vn 1.0000 0.0000 -0.0000
vn 0.7071 0.0000 -0.7071
vn 1.0000 0.0000 -0.0000
vn -0.0000 0.0001 -1.0000
vn 0.0000 0.0000 -1.0000
vn 0.0000 0.0000 -1.0000
vn 0.0000 0.0000 -1.0000
vn -0.0000 0.0001 -1.0000
vn 0.0000 -0.5595 -0.8288
vn 0.0000 -0.5595 -0.8288
vn -0.0000 0.0001 -1.0000
vn -0.0000 -0.5597 -0.8287
vn -0.0000 -0.5597 -0.8287
vn 0.0000 -0.5598 -0.8286
vn 0.0000 -0.5595 -0.8288
vn 0.0000 -0.5598 -0.8286
vn -0.0000 -0.5597 -0.8287
vn 0.0000 -0.5598 -0.8286
vn 0.0000 -0.5598 -0.8286
vn 0.0000 0.0000 -1.0000
vn 0.0000 -0.5598 -0.8286
vn 0.0000 0.0000 -1.0000
vn 0.0000 -0.5598 -0.8286
vn 0.0000 0.0000 -1.0000
vn 0.0000 -0.5598 -0.8286
vn -0.0000 -0.5597 -0.8287
vn 0.0000 -0.5598 -0.8286
vn -0.0000 -0.5597 -0.8287
vn 0.0000 -0.5598 -0.8286
vn 0.0000 -0.5598 -0.8286
vn 0.0000 -0.5598 -0.8286
vn 0.0000 0.0000 -1.0000
vn 0.0000 -0.5598 -0.8286
vn 0.0000 0.0000 -1.0000
vn 0.0000 -0.5598 -0.8286
vn 0.0000 0.0000 -1.0000
vn -0.7071 0.0000 0.7071
vn -1.0000 0.0000 -0.0000
vn -1.0000 0.0000 -0.0000
vn -1.0000 0.0000 -0.0000
vn -0.7071 0.0000 0.7071
vn -0.7071 0.0000 0.7071
vn -0.2097 -0.9778 -0.0000
vn -0.4101 -0.9120 -0.0000
vn -0.4101 -0.9120 -0.0000
vn -0.4101 -0.9120 -0.0000
vn -0.2097 -0.9778 -0.0000
vn -0.2097 -0.9778 -0.0000
vn 0.0000 -1.0000 -0.0000
vn -0.2097 -0.9778 -0.0000
vn -0.2097 -0.9778 -0.0000
vn -0.2097 -0.9778 -0.0000
vn 0.0000 -1.0000 -0.0000
vn 0.0000 -1.0000 -0.0000
vn 0.0000 0.0000 1.0000
vn -0.7071 0.0000 0.7071
vn 0.0000 0.0000 1.0000
vn -0.7071 0.0000 0.7071
vn 0.0000 0.0000 1.0000
vn -0.7071 0.0000 0.7071
vn 0.7071 0.0000 -0.7071
vn 0.0000 0.0000 -1.0000
vn 0.7071 0.0000 -0.7071
vn 0.0000 0.0000 -1.0000
vn 0.7071 0.0000 -0.7071
vn 0.0000 0.0000 -1.0000
vn 0.7071 0.0000 -0.7071
vn 1.0000 0.0000 -0.0000
vn 1.0000 0.0000 -0.0000
vn 1.0000 0.0000 -0.0000
vn 0.7071 0.0000 -0.7071
vn 0.7071 0.0000 -0.7071
vn -0.7071 0.0000 0.7071
vn -1.0000 0.0000 -0.0000
vn -0.7071 0.0000 0.7071
vn -1.0000 0.0000 -0.0000
vn -0.7071 0.0000 0.7071
vn -1.0000 0.0000 -0.0000
vn 0.0000 0.0000 1.0000
vn -0.7071 0.0000 0.7071
vn 0.0000 0.0000 1.0000
vn -0.7071 0.0000 0.7071
vn 0.0000 0.0000 1.0000
vn -0.7071 0.0000 0.7071
vn 0.7071 0.0000 -0.7071
vn 0.0000 0.0000 -1.0000
vn 0.7071 0.0000 -0.7071
vn 0.0000 0.0000 -1.0000
vn 0.7071 0.0000 -0.7071
vn 0.0000 0.0000 -1.0000
vn 0.7071 0.0000 -0.7071
vn 1.0000 0.0000 -0.0000
vn 1.0000 0.0000 -0.0000
vn 1.0000 0.0000 -0.0000
vn 0.7071 0.0000 -0.7071
vn 0.7071 0.0000 -0.7071
vn -0.7071 0.0000 0.7071
vn -1.0000 0.0000 -0.0000
vn -0.7071 0.0000 0.7071
vn -1.0000 0.0000 -0.0000
vn -0.7071 0.0000 0.7071
vn -1.0000 0.0000 -0.0000
vn 0.0000 0.0000 1.0000
vn -0.7071 0.0000 0.7071
vn 0.0000 0.0000 1.0000
vn -0.7071 0.0000 0.7071
vn 0.0000 0.0000 1.0000
vn -0.7071 0.0000 0.7071
vn 0.7071 0.0000 -0.7071
vn 0.0000 0.0000 -1.0000
vn 0.7071 0.0000 -0.7071
vn 0.0000 0.0000 -1.0000
vn 0.7071 0.0000 -0.7071
vn 0.0000 0.0000 -1.0000
vn 0.7071 0.0000 -0.7071
vn 1.0000 0.0000 -0.0000
vn 1.0000 0.0000 -0.0000
vn 1.0000 0.0000 -0.0000
vn 0.7071 0.0000 -0.7071
vn 0.7071 0.0000 -0.7071
vn -0.7071 0.0000 0.7071
vn -1.0000 0.0000 -0.0000
vn -0.7071 0.0000 0.7071
vn -1.0000 0.0000 -0.0000
vn -0.7071 0.0000 0.7071
vn -1.0000 0.0000 -0.0000
vn 0.0000 0.0000 1.0000
vn -0.7071 0.0000 0.7071
vn 0.0000 0.0000 1.0000
vn -0.7071 0.0000 0.7071
vn 0.0000 0.0000 1.0000
vn -0.7071 0.0000 0.7071
vn 0.7071 0.0000 -0.7071
vn 0.0000 0.0000 -1.0000
vn 0.7071 0.0000 -0.7071
vn 0.0000 0.0000 -1.0000
vn 0.7071 0.0000 -0.7071
vn 0.0000 0.0000 -1.0000
vn 0.7071 0.0000 -0.7071
vn 1.0000 0.0000 -0.0000
vn 1.0000 0.0000 -0.0000
vn 1.0000 0.0000 -0.0000
vn 0.7071 0.0000 -0.7071
vn 0.7071 0.0000 -0.7071
vn 0.0000 1.0000 -0.0000
vn 0.0000 1.0000 -0.0000
vn 0.0000 1.0000 -0.0000
vn 0.0000 1.0000 -0.0000
vn 0.0000 1.0000 -0.0000
vn 0.0000 1.0000 -0.0000
vn 0.7071 0.7071 -0.0000
vn 0.0000 1.0000 -0.0000
vn 0.7071 0.7071 -0.0000
vn 0.0000 1.0000 -0.0000
vn 0.7071 0.7071 -0.0000
vn 0.0000 1.0000 -0.0000
vn 0.0000 0.0000 1.0000
vn -0.0000 0.0001 1.0000
vn 0.0000 0.0000 1.0000
vn -0.0000 0.0001 1.0000
vn 0.0000 0.0000 1.0000
vn 0.0000 -0.5595 0.8288
vn 0.0000 -0.5595 0.8288
vn -0.0000 -0.5597 0.8287
vn -0.0000 0.0001 1.0000
vn 0.0000 -0.5598 0.8286
vn -0.0000 -0.5597 0.8287
vn 0.0000 -0.5595 0.8288
vn -0.0000 -0.5597 0.8287
vn 0.0000 -0.5598 0.8286
vn 0.0000 -0.5598 0.8286
vn 0.0000 0.0000 1.0000
vn 0.0000 -0.5598 0.8286
vn 0.0000 -0.5598 0.8286
vn 0.0000 -0.5598 0.8286
vn 0.0000 0.0000 1.0000
vn 0.0000 0.0000 1.0000
vn -0.0000 -0.5597 0.8287
vn 0.0000 -0.5598 0.8286
vn 0.0000 -0.5598 0.8286
vn 0.0000 -0.5598 0.8286
vn -0.0000 -0.5597 0.8287
vn 0.0000 -0.5598 0.8286
vn 0.0000 0.0000 1.0000
vn 0.0000 -0.5598 0.8286
vn 0.0000 -0.5598 0.8286
vn 0.0000 -0.5598 0.8286
vn 0.0000 0.0000 1.0000
vn 0.0000 0.0000 1.0000
vn -0.7071 0.0000 0.7071
vn -1.0000 0.0000 -0.0000
vn -0.7071 0.0000 0.7071
vn -1.0000 0.0000 -0.0000
vn -0.7071 0.0000 0.7071
vn -1.0000 0.0000 -0.0000
# 780 vertex normals

vt 0.5326 0.6076 1.0000
vt 0.4922 0.7535 1.0000
vt 0.6066 0.7539 1.0000
vt 0.6066 0.0117 1.0000
vt 0.5326 0.0117 1.0000
vt 0.9883 0.2560 1.0000
vt 0.9693 0.2560 1.0000
vt 0.6719 0.2560 1.0000
vt 0.6909 0.2560 1.0000
vt 0.4727 0.0117 1.0000
vt 0.4727 0.2969 1.0000
vt 0.0117 0.2969 1.0000
vt 0.0117 0.0117 1.0000
vt 0.5326 0.1580 1.0000
vt 0.4922 0.0121 1.0000
vt 0.5326 0.7539 1.0000
vt 0.9883 0.0117 1.0000
vt 0.9693 0.0117 1.0000
vt 0.6719 0.0117 1.0000
vt 0.6909 0.0117 1.0000
vt 0.8458 0.9883 1.0000
vt 0.9883 0.7734 1.0000
vt 0.8458 0.7734 1.0000
vt 0.9883 0.9883 1.0000
vt 0.0117 0.3203 1.0000
vt 0.4717 0.6004 1.0000
vt 0.4727 0.3203 1.0000
vt 0.0123 0.7128 1.0000
vt 0.4714 0.7128 1.0000
vt 0.0123 0.7258 1.0000
vt 0.4714 0.7258 1.0000
vt 0.0123 0.7539 1.0000
vt 0.4714 0.7539 1.0000
vt 0.6198 0.0117 1.0000
vt 0.6198 0.7539 1.0000
vt 0.6484 0.7539 1.0000
vt 0.6484 0.0117 1.0000
vt 0.0264 0.7734 1.0000
vt 0.0117 0.7734 1.0000
vt 0.0440 0.9865 1.0000
vt 0.0491 0.9142 1.0000
vt 0.7830 0.9142 1.0000
vt 0.7880 0.9865 1.0000
vt 0.8056 0.7734 1.0000
vt 0.8203 0.7734 1.0000
vt 0.0117 0.8313 1.0000
vt 0.0440 0.9462 1.0000
vt 0.0117 0.9379 1.0000
vt 0.0440 0.8098 1.0000
vt 0.7880 0.8098 1.0000
vt 0.7880 0.9462 1.0000
vt 0.8203 0.8313 1.0000
vt 0.8203 0.9379 1.0000
vt 0.0264 0.9865 1.0000
vt 0.0491 0.7734 1.0000
vt 0.0491 0.9865 1.0000
vt 0.7830 0.9865 1.0000
vt 0.7830 0.7734 1.0000
vt 0.8056 0.9865 1.0000
vt 0.9883 0.7539 1.0000
vt 0.6719 0.6609 1.0000
vt 0.6719 0.7539 1.0000
vt 0.9883 0.6609 1.0000
vt 0.6719 0.2813 1.0000
vt 0.9883 0.2813 1.0000
vt 0.0440 0.8137 1.0000
vt 0.0117 0.9286 1.0000
vt 0.0117 0.8221 1.0000
vt 0.0440 0.9501 1.0000
vt 0.7880 0.9501 1.0000
vt 0.7880 0.8137 1.0000
vt 0.8203 0.9286 1.0000
vt 0.8203 0.8221 1.0000
vt 0.0127 0.6004 1.0000
vt 0.4721 0.7128 1.0000
vt 0.0130 0.7128 1.0000
vt 0.4721 0.7258 1.0000
vt 0.0130 0.7258 1.0000
vt 0.4721 0.7539 1.0000
vt 0.0130 0.7539 1.0000
vt 0.6719 0.3742 1.0000
vt 0.9883 0.3742 1.0000
# 82 texture coords

g Opaque01
usemtl stone_material
s 1
f 1/1/1 2/2/2 3/3/3 
f 4/4/4 1/1/5 3/3/6 
f 4/4/7 5/5/8 1/1/9 
s 2
f 6/6/10 7/6/11 8/7/12 
f 8/7/13 9/8/14 6/6/15 
f 9/8/16 8/7/17 10/9/18 
f 9/8/19 10/9/20 11/8/21 
s 4
f 12/10/22 2/11/23 13/12/24 
f 12/10/25 13/12/26 14/13/27 
s 8
f 15/1/28 16/3/29 13/2/30 
f 17/4/31 16/3/32 15/1/33 
f 17/4/34 15/1/35 18/5/36 
s 1
f 19/14/37 20/4/38 21/15/39 
f 4/3/40 20/4/41 19/14/42 
f 4/3/43 19/14/44 5/16/45 
s 2
f 22/17/46 23/18/47 24/17/48 
f 25/19/49 23/18/50 22/17/51 
f 23/18/52 25/19/53 26/20/54 
f 26/20/55 25/19/56 27/19/57 
s 4
f 28/10/58 29/12/59 21/11/60 
f 28/10/61 30/13/62 29/12/63 
s 8
f 31/14/64 29/15/65 32/4/66 
f 17/3/67 31/14/68 32/4/69 
f 17/3/70 18/16/71 31/14/72 
s 1
f 33/21/73 34/22/74 35/23/75 
f 34/22/76 33/21/77 36/24/78 
s 2
f 37/23/79 38/24/80 39/21/81 
f 38/24/82 37/23/83 40/22/84 
f 37/23/85 33/24/86 35/22/87 
f 33/24/88 37/23/89 39/21/90 
s 1
f 36/24/91 40/23/92 34/22/93 
f 40/23/94 36/24/95 38/21/96 
f 41/21/97 42/22/98 43/23/99 
f 42/22/100 41/21/101 44/24/102 
s 2
f 45/23/103 46/24/104 47/21/105 
f 46/24/106 45/23/107 48/22/108 
f 45/23/109 41/24/110 43/22/111 
f 41/24/112 45/23/113 47/21/114 
s 1
f 44/24/115 48/23/116 42/22/117 
f 48/23/118 44/24/119 46/21/120 
f 49/21/121 50/22/122 51/23/123 
f 50/22/124 49/21/125 52/24/126 
s 2
f 53/23/127 54/24/128 55/21/129 
f 54/24/130 53/23/131 56/22/132 
f 53/23/133 49/24/134 51/22/135 
f 49/24/136 53/23/137 55/21/138 
s 1
f 52/24/139 56/23/140 50/22/141 
f 56/23/142 52/24/143 54/21/144 
f 57/21/145 58/22/146 59/23/147 
f 58/22/148 57/21/149 60/24/150 
s 2
f 61/23/151 62/24/152 63/21/153 
f 62/24/154 61/23/155 64/22/156 
f 61/23/157 57/24/158 59/22/159 
f 57/24/160 61/23/161 63/21/162 
s 1
f 65/25/163 2/26/164 12/27/165 
f 2/26/166 65/25/167 8/28/168 
f 8/28/169 3/29/170 2/26/171 
f 7/30/172 3/29/173 8/28/174 
f 3/29/175 7/30/176 66/31/177 
f 6/32/178 66/31/179 7/30/180 
f 66/31/181 6/32/182 67/33/183 
f 3/3/184 68/34/185 4/4/186 
f 68/34/187 3/3/188 66/35/189 
f 67/36/190 68/34/191 66/35/192 
f 68/34/193 67/36/194 69/37/195 
f 70/38/196 71/39/197 72/40/198 
f 70/38/199 72/40/200 73/41/201 
f 72/40/202 74/42/203 73/41/204 
f 72/40/205 75/43/206 74/42/207 
f 76/44/208 74/42/209 75/43/210 
f 76/44/211 75/43/212 77/45/213 
s 2
f 78/46/214 72/47/215 71/48/216 
f 72/47/217 78/46/218 79/49/219 
f 80/50/220 72/47/221 79/49/222 
f 72/47/223 80/50/224 75/51/225 
f 81/52/226 75/51/227 80/50/228 
f 75/51/229 81/52/230 77/53/231 
s 4
f 82/38/232 79/40/233 78/39/234 
f 79/40/235 82/38/236 83/41/237 
f 84/42/238 79/40/239 83/41/240 
f 79/40/241 84/42/242 80/43/243 
f 85/44/244 80/43/245 84/42/246 
f 80/43/247 85/44/248 81/45/249 
f 70/54/250 83/55/251 82/38/252 
f 83/55/253 70/54/254 73/56/255 
f 74/57/256 83/55/257 73/56/258 
f 83/55/259 74/57/260 84/58/261 
f 76/59/262 84/58/263 74/57/264 
f 84/58/265 76/59/266 85/44/267 
s 1
f 60/24/268 64/23/269 58/22/270 
f 64/23/271 60/24/272 62/21/273 
s 16
f 2/60/274 15/61/275 13/62/276 
f 15/61/277 2/60/278 1/63/279 
f 1/63/280 18/64/281 15/61/282 
f 18/64/283 1/63/284 5/65/285 
s 1
f 86/22/286 87/21/287 88/23/288 
f 87/21/289 86/22/290 89/24/291 
s 2
f 90/24/292 91/23/293 92/21/294 
f 91/23/295 90/24/296 93/22/297 
s 1
f 87/21/298 91/22/299 88/23/300 
f 91/22/301 87/21/302 92/24/303 
s 2
f 93/22/304 89/21/305 86/23/306 
f 89/21/307 93/22/308 90/24/309 
s 1
f 94/22/310 95/21/311 96/23/312 
f 95/21/313 94/22/314 97/24/315 
s 2
f 98/24/316 99/23/317 100/21/318 
f 99/23/319 98/24/320 101/22/321 
s 1
f 95/21/322 99/22/323 96/23/324 
f 99/22/325 95/21/326 100/24/327 
s 2
f 101/22/328 97/21/329 94/23/330 
f 97/21/331 101/22/332 98/24/333 
s 1
f 102/22/334 103/21/335 104/23/336 
f 103/21/337 102/22/338 105/24/339 
s 2
f 106/24/340 107/23/341 108/21/342 
f 107/23/343 106/24/344 109/22/345 
s 1
f 103/21/346 107/22/347 104/23/348 
f 107/22/349 103/21/350 108/24/351 
s 2
f 109/22/352 105/21/353 102/23/354 
f 105/21/355 109/22/356 106/24/357 
s 1
f 110/22/358 111/21/359 112/23/360 
f 111/21/361 110/22/362 113/24/363 
s 2
f 114/24/364 115/23/365 116/21/366 
f 115/23/367 114/24/368 117/22/369 
s 1
f 111/21/370 115/22/371 112/23/372 
f 115/22/373 111/21/374 116/24/375 
s 2
f 67/6/376 118/19/377 69/17/378 
f 118/19/379 67/6/380 119/8/381 
f 119/19/382 6/6/383 9/8/384 
f 6/6/385 119/19/386 67/17/387 
s 8
f 13/26/388 120/25/389 14/27/390 
f 120/25/391 13/26/392 10/28/393 
f 10/28/394 13/26/395 16/29/396 
f 16/29/397 11/30/398 10/28/399 
f 11/30/400 16/29/401 121/31/402 
f 121/31/403 9/32/404 11/30/405 
f 9/32/406 121/31/407 119/33/408 
f 122/34/409 16/3/410 17/4/411 
f 16/3/412 122/34/413 121/35/414 
f 122/34/415 119/36/416 121/35/417 
f 119/36/418 122/34/419 118/37/420 
s 1
f 123/38/421 124/40/422 125/39/423 
f 123/38/424 126/41/425 124/40/426 
f 124/40/427 126/41/428 127/42/429 
f 124/40/430 127/42/431 128/43/432 
f 129/44/433 128/43/434 127/42/435 
f 129/44/436 130/45/437 128/43/438 
s 2
f 124/66/439 131/67/440 125/68/441 
f 131/67/442 124/66/443 132/69/444 
f 124/66/445 133/70/446 132/69/447 
f 133/70/448 124/66/449 128/71/450 
f 128/71/451 134/72/452 133/70/453 
f 134/72/454 128/71/455 130/73/456 
s 4
f 132/40/457 135/38/458 131/39/459 
f 135/38/460 132/40/461 136/41/462 
f 132/40/463 137/42/464 136/41/465 
f 137/42/466 132/40/467 133/43/468 
f 133/43/469 138/44/470 137/42/471 
f 138/44/472 133/43/473 134/45/474 
s 1
f 136/56/475 123/38/476 135/54/477 
f 123/38/478 136/56/479 126/55/480 
f 136/56/481 127/58/482 126/55/483 
f 127/58/484 136/56/485 137/57/486 
f 137/57/487 129/44/488 127/58/489 
f 129/44/490 137/57/491 138/59/492 
s 2
f 117/22/493 113/21/494 110/23/495 
f 113/21/496 117/22/497 114/24/498 
s 1
f 139/23/499 140/24/500 141/22/501 
f 140/24/502 139/23/503 142/21/504 
s 2
f 143/21/505 144/22/506 145/24/507 
f 144/22/508 143/21/509 146/23/510 
s 1
f 140/24/511 144/23/512 141/22/513 
f 144/23/514 140/24/515 145/21/516 
s 2
f 146/23/517 142/24/518 139/22/519 
f 142/24/520 146/23/521 143/21/522 
s 1
f 147/23/523 148/24/524 149/22/525 
f 148/24/526 147/23/527 150/21/528 
s 2
f 151/21/529 152/22/530 153/24/531 
f 152/22/532 151/21/533 154/23/534 
s 1
f 148/24/535 152/23/536 149/22/537 
f 152/23/538 148/24/539 153/21/540 
s 2
f 154/23/541 150/24/542 147/22/543 
f 150/24/544 154/23/545 151/21/546 
s 1
f 155/23/547 156/24/548 157/22/549 
f 156/24/550 155/23/551 158/21/552 
s 2
f 159/21/553 160/22/554 161/24/555 
f 160/22/556 159/21/557 162/23/558 
s 1
f 156/24/559 160/23/560 157/22/561 
f 160/23/562 156/24/563 161/21/564 
s 2
f 162/23/565 158/24/566 155/22/567 
f 158/24/568 162/23/569 159/21/570 
s 1
f 163/23/571 164/24/572 165/22/573 
f 164/24/574 163/23/575 166/21/576 
s 2
f 167/21/577 168/22/578 169/24/579 
f 168/22/580 167/21/581 170/23/582 
s 1
f 164/24/583 168/23/584 165/22/585 
f 168/23/586 164/24/587 169/21/588 
f 21/74/589 171/27/590 28/25/591 
f 171/27/592 21/74/593 23/75/594 
f 23/75/595 21/74/596 20/76/597 
f 20/76/598 24/77/599 23/75/600 
f 24/77/601 20/76/602 172/78/603 
f 172/78/604 22/79/605 24/77/606 
f 22/79/607 172/78/608 173/80/609 
f 68/35/610 20/4/611 4/3/612 
f 20/4/613 68/35/614 172/34/615 
f 68/35/616 173/37/617 172/34/618 
f 173/37/619 68/35/620 69/36/621 
s 2
f 170/23/622 166/24/623 163/22/624 
f 166/24/625 170/23/626 167/21/627 
s 16
f 31/81/628 21/65/629 29/64/630 
f 21/65/631 31/81/632 19/82/633 
f 18/62/634 19/82/635 31/81/636 
f 19/82/637 18/62/638 5/60/639 
s 1
f 174/24/640 175/23/641 176/22/642 
f 175/23/643 174/24/644 177/21/645 
s 2
f 178/22/646 179/21/647 180/24/648 
f 179/21/649 178/22/650 181/23/651 
f 178/22/652 174/21/653 176/23/654 
f 174/21/655 178/22/656 180/24/657 
s 1
f 177/21/658 181/22/659 175/23/660 
f 181/22/661 177/21/662 179/24/663 
f 182/24/664 183/23/665 184/22/666 
f 183/23/667 182/24/668 185/21/669 
s 2
f 186/22/670 187/21/671 188/24/672 
f 187/21/673 186/22/674 189/23/675 
f 186/22/676 182/21/677 184/23/678 
f 182/21/679 186/22/680 188/24/681 
s 1
f 185/21/682 189/22/683 183/23/684 
f 189/22/685 185/21/686 187/24/687 
f 190/24/688 191/23/689 192/22/690 
f 191/23/691 190/24/692 193/21/693 
s 2
f 194/22/694 195/21/695 196/24/696 
f 195/21/697 194/22/698 197/23/699 
f 194/22/700 190/21/701 192/23/702 
f 190/21/703 194/22/704 196/24/705 
s 1
f 193/21/706 197/22/707 191/23/708 
f 197/22/709 193/21/710 195/24/711 
f 198/24/712 199/23/713 200/22/714 
f 199/23/715 198/24/716 201/21/717 
s 2
f 202/22/718 203/21/719 204/24/720 
f 203/21/721 202/22/722 205/23/723 
f 202/22/724 198/21/725 200/23/726 
f 198/21/727 202/22/728 204/24/729 
f 118/8/730 173/17/731 69/6/732 
f 173/17/733 118/8/734 206/19/735 
f 22/17/736 206/8/737 25/19/738 
f 206/8/739 22/17/740 173/6/741 
s 8
f 207/27/742 29/74/743 30/25/744 
f 29/74/745 207/27/746 26/75/747 
f 26/75/748 32/76/749 29/74/750 
f 27/77/751 32/76/752 26/75/753 
f 32/76/754 27/77/755 208/78/756 
f 25/79/757 208/78/758 27/77/759 
f 208/78/760 25/79/761 206/80/762 
f 32/4/763 122/35/764 17/3/765 
f 122/35/766 32/4/767 208/34/768 
f 206/37/769 122/35/770 208/34/771 
f 122/35/772 206/37/773 118/36/774 
s 1
f 201/21/775 205/22/776 199/23/777 
f 205/22/778 201/21/779 203/24/780 
# 0 polygons - 260 triangles


