# 3ds Max Wavefront OBJ Exporter v0.97b - (c)2007 guruware
# File Created: 29.03.2015 22:31:19

mtllib squareLight.mtl

#
# object square001
#

v  -1.0000 0.0000 -1.0000
v  -1.0000 0.0000 1.0000
v  1.0000 0.0000 -1.0000
v  1.0000 0.0000 1.0000
# 4 vertices

vn 0.0000 1.0000 -0.0000
# 1 vertex normals

vt 0.0000 1.0000 0.0000
vt 0.0000 0.0000 0.0000
vt 1.0000 1.0000 0.0000
vt 1.0000 0.0000 0.0000
# 4 texture coords

g square001
usemtl Material1
s 8
f 1/1/1 2/2/1 3/3/1 
f 4/4/1 3/3/1 2/2/1 
# 0 polygons - 2 triangles

