# 3ds Max Wavefront OBJ Exporter v0.97b - (c)2007 guruware
# File Created: 08.07.2012 14:42:27

mtllib mill_mainV2.mtl

#
# object Merged_mesh__02_Material4_bricks01
#

v  2.4428 0.0804 -3.7343
v  4.8884 0.0804 -7.9703
v  4.8884 3.0846 -7.9703
v  2.4428 3.0846 -3.7343
v  -2.4484 0.0804 -3.7343
v  -2.4484 3.0846 -3.7343
v  -4.8941 0.0804 -7.9703
v  -4.8941 3.0846 -7.9703
v  -0.0028 0.0804 -7.9703
v  -2.4484 0.0804 -12.2062
v  2.4428 0.0804 -12.2062
v  -2.4484 3.0846 -12.2062
v  2.4428 3.0846 -12.2062
v  -0.0028 3.0846 -7.9703
# 14 vertices

vn 0.8660 0.0000 0.5000
vn -0.5000 0.0000 0.8660
vn 0.0000 0.0000 1.0000
vn -0.8660 0.0000 0.5000
vn 0.0000 -1.0000 -0.0000
vn -0.8660 0.0000 -0.5000
vn 0.5000 0.0000 -0.8660
vn 0.0000 0.0000 -1.0000
vn 0.8660 0.0000 -0.5000
vn 0.0000 1.0000 -0.0000
# 10 vertex normals

vt -0.3679 -0.0053 1.0000
vt 1.3033 -0.0053 1.0000
vt 1.3033 0.9947 1.0000
vt -0.3679 0.9947 1.0000
vt -2.0392 -0.0053 1.0000
vt -2.0392 0.9947 1.0000
vt -3.7104 -0.0053 1.0000
vt -3.7104 0.9947 1.0000
vt 0.6443 1.0000 1.0000
vt 0.3557 1.0000 1.0000
vt 0.5000 0.5000 1.0000
vt 0.2113 0.5000 1.0000
vt 0.3557 0.0000 1.0000
vt 0.6443 0.0000 1.0000
vt 0.7887 0.5000 1.0000
vt -5.3816 -0.0053 1.0000
vt -5.3816 0.9947 1.0000
vt -7.0528 -0.0053 1.0000
vt -7.0528 0.9947 1.0000
vt 2.9745 -0.0053 1.0000
vt 2.9745 0.9947 1.0000
vt 1.7322 0.8631 1.0000
vt 2.4165 0.8631 1.0000
vt 0.3205 0.8631 1.0000
vt 1.0479 0.8631 1.0000
vt 0.3637 0.8631 1.0000
vt -0.3206 0.8631 1.0000
vt -1.0048 0.8631 1.0000
vt -1.6891 0.8631 1.0000
# 29 texture coords

g Merged_mesh__02_Material4_bricks01
usemtl _02_Material4_bricks01
f 1/1/1 2/2/1 3/3/1 
f 1/1/1 3/3/1 4/4/1 
f 5/5/2 1/1/3 4/4/3 
f 5/5/2 4/4/3 6/6/2 
f 7/7/4 5/5/2 6/6/2 
f 7/7/4 6/6/2 8/8/4 
f 1/9/5 5/10/5 9/11/5 
f 5/10/5 7/12/5 9/11/5 
f 7/12/5 10/13/5 9/11/5 
f 10/13/5 11/14/5 9/11/5 
f 11/14/5 2/15/5 9/11/5 
f 2/15/5 1/9/5 9/11/5 
f 10/16/6 7/7/6 8/8/6 
f 10/16/6 8/8/6 12/17/6 
f 11/18/7 10/16/8 12/17/8 
f 11/18/7 12/17/8 13/19/7 
f 2/2/9 11/20/7 13/21/7 
f 2/2/9 13/21/7 3/3/9 
f 3/22/10 13/23/10 14/24/10 
f 4/25/10 3/22/10 14/24/10 
f 6/26/10 4/25/10 14/24/10 
f 8/27/10 6/26/10 14/24/10 
f 12/28/10 8/27/10 14/24/10 
f 13/29/10 12/28/10 14/24/10 
# 0 polygons - 24 triangles

#
# object Merged_mesh__03_Material5_plank_wall_big01
#

v  1.2641 12.1292 -5.7759
v  2.5310 12.1292 -7.9703
v  2.8268 12.1292 -7.9703
v  1.4120 12.1292 -5.5198
v  -0.8360 12.5692 -3.9913
v  -1.3337 12.8591 -3.9913
v  -1.3337 12.5692 -3.9913
v  -0.8360 14.2398 -3.9913
v  -1.3337 13.8605 -3.9913
v  -0.8360 12.8591 -3.9913
v  0.8304 12.5692 -3.9913
v  0.8304 12.8591 -3.9913
v  1.3281 12.5692 -3.9913
v  1.3281 12.8591 -3.9913
v  1.3281 13.8605 -3.9913
v  0.8304 14.2398 -3.9913
v  0.6574 13.6473 -3.9913
v  -0.6630 13.6473 -3.9913
v  -0.6630 13.0573 -3.9913
v  0.6574 13.0573 -3.9913
v  1.4120 12.1292 -10.4207
v  -1.4176 12.1292 -10.4207
v  -1.4176 12.3722 -10.4207
v  1.4120 12.3722 -10.4207
v  -2.8324 12.1292 -7.9703
v  -2.8324 12.3722 -7.9703
v  -1.4176 12.1292 -5.5198
v  -1.4176 12.3722 -5.5198
v  1.4120 12.3722 -5.5198
v  2.8268 12.3722 -7.9703
v  1.2641 12.1292 -10.1646
v  -1.2697 12.1292 -10.1646
v  -2.5366 12.1292 -7.9703
v  -1.2697 12.1292 -5.7759
v  -1.3337 12.8591 -4.8109
v  -1.3337 12.5692 -4.8109
v  -1.3337 13.8605 -4.8109
v  1.3281 12.8591 -4.8109
v  1.3281 13.8605 -4.8109
v  1.3281 12.5692 -4.8109
v  -0.8360 14.2398 -4.8109
v  0.8304 14.2398 -4.8109
v  5.1917 2.9296 -7.9703
v  2.5944 2.9296 -3.4717
v  -0.0028 2.9296 -7.9703
v  -2.6000 2.9296 -3.4717
v  -5.1973 2.9296 -7.9703
v  -2.6000 2.9296 -12.4688
v  2.5944 2.9296 -12.4688
v  0.8304 12.5692 -4.8109
v  -0.8360 12.5692 -4.8109
v  -1.2697 12.3722 -10.1646
v  1.2641 12.3722 -10.1646
v  -2.5366 12.3722 -7.9703
v  -1.2697 12.3722 -5.7759
v  1.2641 12.3722 -5.7759
v  2.5310 12.3722 -7.9703
v  2.5944 3.1198 -3.4717
v  -2.6000 3.1198 -3.4717
v  2.1784 4.2025 -4.1922
v  -2.1841 4.2025 -4.1922
v  1.6283 6.8490 -5.1451
v  -1.6339 6.8490 -5.1451
v  1.3353 10.3681 -5.6526
v  -1.3409 10.3681 -5.6526
v  1.2641 12.3699 -5.7759
v  -1.2697 12.3699 -5.7759
v  -1.2697 12.3699 -10.1646
v  1.2641 12.3699 -10.1646
v  1.3353 10.3681 -10.2879
v  -1.3409 10.3681 -10.2879
v  1.6283 6.8490 -10.7954
v  -1.6339 6.8490 -10.7954
v  2.1784 4.2025 -11.7483
v  -2.1841 4.2025 -11.7483
v  2.5944 3.1198 -12.4688
v  -2.6000 3.1198 -12.4688
v  2.5310 12.3699 -7.9703
v  2.6734 10.3681 -7.9703
v  3.2594 6.8490 -7.9703
v  4.3597 4.2025 -7.9703
v  5.1917 3.1198 -7.9703
v  -2.5366 12.3699 -7.9703
v  -2.6790 10.3681 -7.9703
v  -3.2650 6.8490 -7.9703
v  -4.3653 4.2025 -7.9703
v  -5.1973 3.1198 -7.9703
# 87 vertices

vn 0.0000 -1.0000 -0.0000
vn 0.0000 0.0000 1.0000
vn 0.5000 0.0000 -0.8660
vn 0.0000 0.0000 -1.0000
vn -0.8660 0.0000 -0.5000
vn -0.8660 0.0000 0.5000
vn -0.5000 0.0000 0.8660
vn -0.3962 0.6100 0.6862
vn -0.5196 0.8000 0.3000
vn 0.0000 0.8000 0.6000
vn 0.8660 0.0000 0.5000
vn 0.8660 0.0000 -0.5000
vn -1.0000 0.0000 -0.0000
vn -0.8961 0.4438 -0.0000
vn 1.0000 0.0000 -0.0000
vn 0.8961 0.4438 -0.0000
vn -0.3199 0.9475 -0.0000
vn 0.3199 0.9475 -0.0000
vn 0.0000 1.0000 -0.0000
vn 0.4779 0.2942 0.8277
vn 0.5000 0.0000 0.8660
vn -0.4779 0.2942 0.8277
vn 0.4271 0.5199 0.7398
vn -0.4271 0.5199 0.7398
vn 0.4791 0.2861 0.8298
vn -0.4791 0.2861 0.8298
vn 0.4964 0.1195 0.8598
vn -0.4964 0.1195 0.8598
vn 0.4987 0.0709 0.8638
vn -0.4987 0.0709 0.8638
vn -0.4987 0.0709 -0.8638
vn 0.4987 0.0709 -0.8638
vn 0.4964 0.1195 -0.8598
vn -0.4964 0.1195 -0.8598
vn 0.4791 0.2861 -0.8298
vn -0.4791 0.2861 -0.8298
vn 0.4271 0.5199 -0.7398
vn -0.4271 0.5199 -0.7398
vn 0.4779 0.2942 -0.8277
vn -0.4779 0.2942 -0.8277
vn -0.5000 0.0000 -0.8660
vn 0.9975 0.0709 -0.0000
vn 0.9928 0.1195 -0.0000
vn 0.9582 0.2861 -0.0000
vn 0.8542 0.5199 -0.0000
vn 0.9557 0.2942 -0.0000
vn -0.9975 0.0709 -0.0000
vn -0.9928 0.1195 -0.0000
vn -0.9582 0.2861 -0.0000
vn -0.8542 0.5199 -0.0000
vn -0.9557 0.2942 -0.0000
# 51 vertex normals

vt 0.3763 0.2858 0.8461
vt 0.2526 0.5000 0.8461
vt 0.2237 0.5000 0.8461
vt 0.3619 0.2608 0.8461
vt 0.4187 0.8890 0.1115
vt 0.3701 0.9173 0.1115
vt 0.3701 0.8890 0.1115
vt 0.4187 1.0521 0.1115
vt 0.3701 1.0151 0.1115
vt 0.4187 0.9173 0.1115
vt 0.5813 0.8890 0.1115
vt 0.5813 0.9173 0.1115
vt 0.6299 0.8890 0.1115
vt 0.6299 0.9173 0.1115
vt 0.6299 1.0151 0.1115
vt 0.5813 1.0521 0.1115
vt 0.5645 0.9943 0.1115
vt 0.4355 0.9943 0.1115
vt 0.4355 0.9367 0.1115
vt 0.5645 0.9367 0.1115
vt 0.3619 0.8461 0.7392
vt 0.6381 0.8461 0.7392
vt 0.6381 0.8698 0.7392
vt 0.3619 0.8698 0.7392
vt 0.2608 0.8461 0.3619
vt 0.5000 0.8461 0.2237
vt 0.5000 0.8698 0.2237
vt 0.2608 0.8698 0.3619
vt 0.7392 0.8461 0.3619
vt 0.7392 0.8698 0.3619
vt 0.3619 0.8461 0.2608
vt 0.6381 0.8461 0.2608
vt 0.6381 0.8698 0.2608
vt 0.3619 0.8698 0.2608
vt 0.2608 0.8461 0.6381
vt 0.5000 0.8461 0.7763
vt 0.5000 0.8698 0.7763
vt 0.2608 0.8698 0.6381
vt 0.7392 0.8461 0.6381
vt 0.7392 0.8698 0.6381
vt 0.3763 0.7142 0.8461
vt 0.3619 0.7392 0.8461
vt 0.6237 0.7142 0.8461
vt 0.6381 0.7392 0.8461
vt 0.7474 0.5000 0.8461
vt 0.7763 0.5000 0.8461
vt 0.6237 0.2858 0.8461
vt 0.6381 0.2608 0.8461
vt 0.8085 0.9173 0.3701
vt 0.8085 0.8890 0.3701
vt 0.8885 0.8890 0.3701
vt 0.8885 0.9173 0.3701
vt 0.8085 1.0151 0.3701
vt 0.8885 1.0151 0.3701
vt 0.1915 0.9173 0.6299
vt 0.1915 1.0151 0.6299
vt 0.1115 1.0151 0.6299
vt 0.1115 0.9173 0.6299
vt 0.1915 0.8890 0.6299
vt 0.1115 0.8890 0.6299
vt 0.4187 0.1915 1.0521
vt 0.3701 0.1915 1.0151
vt 0.3701 0.1115 1.0151
vt 0.4187 0.1115 1.0521
vt 0.5813 0.1915 1.0521
vt 0.5813 0.1115 1.0521
vt 0.6299 0.1915 1.0151
vt 0.6299 0.1115 1.0151
vt -0.0072 0.5000 -0.0521
vt 0.2464 0.0608 -0.0521
vt 0.5000 0.5000 -0.0521
vt 0.7536 0.0608 -0.0521
vt 1.0072 0.5000 -0.0521
vt 0.7536 0.9392 -0.0521
vt 0.2464 0.9392 -0.0521
vt 0.4187 0.1915 0.8890
vt 0.3701 0.1915 0.8890
vt 0.3701 0.1115 0.8890
vt 0.4187 0.1115 0.8890
vt 0.5813 0.1915 0.8890
vt 0.5813 0.1115 0.8890
vt 0.6299 0.1915 0.8890
vt 0.6299 0.1115 0.8890
vt 0.3763 0.7142 0.8698
vt 0.6237 0.7142 0.8698
vt 0.6381 0.7392 0.8698
vt 0.3619 0.7392 0.8698
vt 0.2526 0.5000 0.8698
vt 0.2237 0.5000 0.8698
vt 0.3763 0.2858 0.8698
vt 0.3619 0.2608 0.8698
vt 0.6237 0.2858 0.8698
vt 0.6381 0.2608 0.8698
vt 0.7474 0.5000 0.8698
vt 0.7763 0.5000 0.8698
vt 0.7536 -0.0336 0.0608
vt 0.2464 -0.0521 0.0608
vt 0.7536 -0.0521 0.0608
vt 0.2464 -0.0336 0.0608
vt 0.7130 0.0721 0.1311
vt 0.2870 0.0721 0.1311
vt 0.6593 0.3305 0.2242
vt 0.3407 0.3305 0.2242
vt 0.6306 0.6741 0.2737
vt 0.3694 0.6741 0.2737
vt 0.6237 0.8696 0.2858
vt 0.3763 0.8696 0.2858
vt 0.6237 0.8696 0.7142
vt 0.3763 0.8696 0.7142
vt 0.3694 0.6741 0.7263
vt 0.6306 0.6741 0.7263
vt 0.3407 0.3305 0.7758
vt 0.6593 0.3305 0.7758
vt 0.2870 0.0721 0.8689
vt 0.7130 0.0721 0.8689
vt 0.2464 -0.0336 0.9392
vt 0.7536 -0.0336 0.9392
vt 0.2464 -0.0521 0.9392
vt 0.7536 -0.0521 0.9392
vt 0.5000 0.8696 0.7474
vt 0.2858 0.8696 0.6237
vt 0.2737 0.6741 0.6306
vt 0.5000 0.6741 0.7613
vt 0.2242 0.3305 0.6593
vt 0.5000 0.3305 0.8185
vt 0.1311 0.0721 0.7130
vt 0.5000 0.0721 0.9259
vt 0.0608 -0.0336 0.7536
vt 0.5000 -0.0336 1.0072
vt 0.0608 -0.0521 0.7536
vt 0.5000 -0.0521 1.0072
vt 0.7142 0.8696 0.6237
vt 0.7263 0.6741 0.6306
vt 0.7758 0.3305 0.6593
vt 0.8689 0.0721 0.7130
vt 0.9392 -0.0336 0.7536
vt 0.9392 -0.0521 0.7536
vt 0.5000 0.8696 0.2526
vt 0.2858 0.8696 0.3763
vt 0.2737 0.6741 0.3694
vt 0.5000 0.6741 0.2387
vt 0.2242 0.3305 0.3407
vt 0.5000 0.3305 0.1815
vt 0.1311 0.0721 0.2870
vt 0.5000 0.0721 0.0741
vt 0.0608 -0.0336 0.2464
vt 0.5000 -0.0336 -0.0072
vt 0.0608 -0.0521 0.2464
vt 0.5000 -0.0521 -0.0072
vt 0.9392 -0.0336 0.2464
vt 0.9392 -0.0521 0.2464
vt 0.8689 0.0721 0.2870
vt 0.7758 0.3305 0.3407
vt 0.7263 0.6741 0.3694
vt 0.7142 0.8696 0.3763
# 155 texture coords

g Merged_mesh__03_Material5_plank_wall_big01
usemtl _03_Material5_plank_wall_big01
f 15/30/11 16/31/11 17/32/11 
f 15/30/11 17/32/11 18/33/11 
f 19/34/12 20/35/12 21/36/12 
f 20/35/12 22/37/12 23/38/12 
f 20/35/12 24/39/12 22/37/12 
f 19/34/12 24/39/12 20/35/12 
f 25/40/12 24/39/12 19/34/12 
f 25/40/12 26/41/12 24/39/12 
f 27/42/12 26/41/12 25/40/12 
f 27/42/12 28/43/12 26/41/12 
f 26/41/12 28/43/12 29/44/12 
f 26/41/12 29/44/12 30/45/12 
f 26/41/12 30/45/12 31/46/12 
f 30/45/12 32/47/12 31/46/12 
f 30/45/12 22/37/12 32/47/12 
f 22/37/12 33/48/12 32/47/12 
f 22/37/12 24/39/12 33/48/12 
f 24/39/12 34/49/12 33/48/12 
f 24/39/12 26/41/12 34/49/12 
f 26/41/12 31/46/12 34/49/12 
f 34/49/12 31/46/12 32/47/12 
f 34/49/12 32/47/12 33/48/12 
f 35/50/13 36/51/14 37/52/14 
f 35/50/13 37/52/14 38/53/13 
f 36/54/15 39/55/15 40/56/15 
f 36/54/15 40/56/15 37/57/15 
f 39/55/16 41/58/17 42/59/18 
f 39/55/16 42/59/18 40/56/19 
f 41/60/17 18/61/12 43/62/20 
f 41/60/17 43/62/20 42/63/18 
f 18/64/21 17/65/21 44/66/21 
f 18/64/21 44/66/21 43/67/21 
f 17/65/22 35/68/13 38/69/13 
f 17/65/22 38/69/13 44/66/22 
f 16/31/11 45/70/11 35/71/11 
f 16/31/11 35/71/11 17/32/11 
f 45/70/11 46/72/11 36/73/11 
f 45/70/11 36/73/11 35/71/11 
f 46/72/11 47/74/11 39/75/11 
f 46/72/11 39/75/11 36/73/11 
f 47/74/11 48/76/11 41/77/11 
f 47/74/11 41/77/11 39/75/11 
f 48/76/11 15/30/11 18/33/11 
f 48/76/11 18/33/11 41/77/11 
f 49/78/23 50/79/23 21/80/23 
f 49/78/23 21/80/23 20/81/23 
f 51/82/24 49/78/23 20/81/23 
f 51/82/24 20/81/23 23/83/24 
f 52/84/25 53/85/26 29/86/26 
f 52/84/25 29/86/26 28/87/25 
f 54/88/25 52/84/25 28/87/25 
f 54/88/25 28/87/25 27/89/25 
f 55/90/27 51/91/24 23/92/24 
f 55/90/27 23/92/24 22/93/27 
f 56/94/28 55/90/27 22/93/27 
f 56/94/28 22/93/27 30/95/28 
f 53/96/26 56/94/28 30/95/28 
f 53/96/26 30/95/28 29/97/26 
f 57/98/11 58/99/11 59/100/11 
f 58/99/11 60/101/11 59/100/11 
f 60/101/11 61/102/11 59/100/11 
f 61/102/11 62/103/11 59/100/11 
f 62/103/11 63/104/11 59/100/11 
f 63/104/11 57/98/11 59/100/11 
f 64/105/11 54/106/11 27/107/11 
f 64/105/11 27/107/11 25/108/11 
f 65/109/11 64/105/11 25/108/11 
f 65/109/11 25/108/11 19/110/11 
f 50/111/11 65/109/11 19/110/11 
f 50/111/11 19/110/11 21/112/11 
f 66/113/29 67/114/29 38/115/29 
f 66/113/29 38/115/29 37/116/29 
f 68/117/29 66/113/29 37/116/29 
f 68/117/29 37/116/29 40/118/19 
f 69/119/29 68/117/29 40/118/19 
f 69/119/29 40/118/19 42/120/18 
f 70/121/29 69/119/29 42/120/18 
f 70/121/29 42/120/18 43/122/20 
f 71/123/29 70/121/29 43/122/20 
f 71/123/29 43/122/20 44/124/29 
f 67/114/29 71/123/29 44/124/29 
f 67/114/29 44/124/29 38/115/29 
f 72/125/30 60/126/17 58/127/31 
f 72/125/30 73/128/32 60/126/17 
f 73/128/32 72/125/30 74/129/33 
f 73/128/32 74/129/33 75/130/34 
f 75/130/34 74/129/33 76/131/35 
f 75/130/34 76/131/35 77/132/36 
f 78/133/37 77/132/36 76/131/35 
f 78/133/37 79/134/38 77/132/36 
f 80/135/39 79/134/38 78/133/37 
f 80/135/39 81/136/40 79/134/38 
f 82/137/41 83/138/42 84/139/43 
f 82/137/41 84/139/43 85/140/44 
f 85/140/44 84/139/43 86/141/45 
f 85/140/44 86/141/45 87/142/46 
f 88/143/47 87/142/46 86/141/45 
f 88/143/47 89/144/48 87/142/46 
f 90/145/49 89/144/48 88/143/47 
f 90/145/49 91/146/50 89/144/48 
f 91/146/50 90/145/49 63/147/13 
f 91/146/50 63/147/13 62/148/51 
f 92/149/52 80/150/39 78/151/37 
f 92/149/52 78/151/37 93/152/53 
f 93/152/53 78/151/37 76/153/35 
f 93/152/53 76/153/35 94/154/54 
f 74/155/33 94/154/54 76/153/35 
f 74/155/33 95/156/55 94/154/54 
f 72/157/30 95/156/55 74/155/33 
f 72/157/30 96/158/56 95/156/55 
f 96/158/56 72/157/30 58/159/31 
f 96/158/56 58/159/31 57/160/25 
f 83/161/42 92/149/52 93/152/53 
f 83/161/42 93/152/53 84/162/43 
f 84/162/43 93/152/53 94/154/54 
f 84/162/43 94/154/54 86/163/45 
f 95/156/55 86/163/45 94/154/54 
f 95/156/55 88/164/47 86/163/45 
f 96/158/56 88/164/47 95/156/55 
f 96/158/56 90/165/49 88/164/47 
f 90/165/49 96/158/56 57/160/25 
f 90/165/49 57/160/25 63/166/13 
f 97/167/57 82/168/41 85/169/44 
f 97/167/57 85/169/44 98/170/58 
f 98/170/58 85/169/44 87/171/46 
f 98/170/58 87/171/46 99/172/59 
f 89/173/48 99/172/59 87/171/46 
f 89/173/48 100/174/60 99/172/59 
f 91/175/50 100/174/60 89/173/48 
f 91/175/50 101/176/61 100/174/60 
f 101/176/61 91/175/50 62/177/51 
f 101/176/61 62/177/51 61/178/23 
f 73/179/32 61/178/23 60/180/17 
f 73/179/32 101/176/61 61/178/23 
f 101/176/61 73/179/32 75/181/34 
f 101/176/61 75/181/34 100/174/60 
f 100/174/60 75/181/34 77/182/36 
f 100/174/60 77/182/36 99/172/59 
f 79/183/38 99/172/59 77/182/36 
f 79/183/38 98/170/58 99/172/59 
f 81/184/40 98/170/58 79/183/38 
f 81/184/40 97/167/57 98/170/58 
# 0 polygons - 142 triangles

#
# object Merged_mesh__04_Material8_bright_planks01
#

v  -0.0028 13.0573 -4.5316
v  0.3077 13.2348 -4.5316
v  0.3077 13.2348 -3.0595
v  -0.0028 13.0573 -3.0595
v  -0.3133 13.2348 -4.5316
v  -0.3133 13.2348 -3.0595
v  -1.5911 12.3899 -11.0803
v  -1.5911 12.3899 -5.0480
v  -1.5911 12.6868 -5.0480
v  -1.5911 12.6868 -11.0803
v  -1.0763 12.3899 -5.0480
v  -1.0763 12.6868 -5.0480
v  -1.0763 12.3899 -11.0803
v  -1.0763 12.6868 -11.0803
v  1.0707 12.3899 -11.0803
v  1.0707 12.3899 -5.0480
v  1.0707 12.6868 -5.0480
v  1.0707 12.6868 -11.0803
v  1.5855 12.3899 -5.0480
v  1.5855 12.6868 -5.0480
v  1.5855 12.3899 -11.0803
v  1.5855 12.6868 -11.0803
v  1.1019 12.3943 -10.8002
v  0.9700 12.3943 -10.8482
v  0.9700 12.7820 -10.8482
v  1.1019 12.7820 -10.8002
v  -1.1075 12.3943 -5.1403
v  -1.1075 12.7820 -5.1403
v  -0.9756 12.3943 -5.0923
v  -0.9756 12.7820 -5.0923
v  2.0032 12.3943 -10.2517
v  1.8956 12.3943 -10.3419
v  1.8956 12.7820 -10.3419
v  2.0032 12.7820 -10.2517
v  -2.0088 12.3943 -5.6888
v  -2.0088 12.7820 -5.6888
v  -1.9012 12.3943 -5.5986
v  -1.9012 12.7820 -5.5986
v  2.6625 12.3943 -9.4280
v  2.5923 12.3943 -9.5496
v  2.5923 12.7820 -9.5496
v  2.6625 12.7820 -9.4280
v  -2.6681 12.3943 -6.5125
v  -2.6681 12.7820 -6.5125
v  -2.5979 12.3943 -6.3909
v  -2.5979 12.7820 -6.3909
v  3.0003 12.3943 -8.4285
v  2.9759 12.3943 -8.5668
v  2.9759 12.7820 -8.5668
v  3.0003 12.7820 -8.4285
v  -3.0059 12.3943 -7.5120
v  -3.0059 12.7820 -7.5120
v  -2.9816 12.3943 -7.3737
v  -2.9816 12.7820 -7.3737
v  2.9759 12.3943 -7.3737
v  3.0003 12.3943 -7.5120
v  3.0003 12.7820 -7.5120
v  2.9759 12.7820 -7.3737
v  -2.9816 12.3943 -8.5668
v  -2.9816 12.7820 -8.5668
v  -3.0059 12.3943 -8.4285
v  -3.0059 12.7820 -8.4285
v  2.5923 12.3943 -6.3909
v  2.6625 12.3943 -6.5125
v  2.6625 12.7820 -6.5125
v  2.5923 12.7820 -6.3909
v  -2.5979 12.3943 -9.5496
v  -2.5979 12.7820 -9.5496
v  -2.6681 12.3943 -9.4280
v  -2.6681 12.7820 -9.4280
v  1.8956 12.3943 -5.5986
v  2.0032 12.3943 -5.6888
v  2.0032 12.7820 -5.6888
v  1.8956 12.7820 -5.5986
v  -1.9012 12.3943 -10.3419
v  -1.9012 12.7820 -10.3419
v  -2.0088 12.3943 -10.2517
v  -2.0088 12.7820 -10.2517
v  0.9700 12.3943 -5.0923
v  1.1019 12.3943 -5.1403
v  1.1019 12.7820 -5.1403
v  0.9700 12.7820 -5.0923
v  -0.9756 12.3943 -10.8482
v  -0.9756 12.7820 -10.8482
v  -1.1075 12.3943 -10.8002
v  -1.1075 12.7820 -10.8002
v  -0.0730 12.3943 -4.9332
v  0.0674 12.3943 -4.9332
v  0.0674 12.7820 -4.9332
v  -0.0730 12.7820 -4.9332
v  0.0674 12.3943 -11.0073
v  0.0674 12.7820 -11.0073
v  -0.0730 12.3943 -11.0073
v  -0.0730 12.7820 -11.0073
v  0.3077 13.4698 -4.5316
v  0.3077 13.4698 -3.0595
v  -0.0028 13.6473 -4.5316
v  -0.0028 13.6473 -3.0595
v  -0.3133 13.4698 -4.5316
v  -0.3133 13.4698 -3.0595
# 100 vertices

vn 0.0000 -1.0000 -0.0000
vn 0.4962 -0.8682 -0.0000
vn -0.4962 -0.8682 -0.0000
vn -1.0000 0.0000 -0.0000
vn 0.0000 0.0000 1.0000
vn 1.0000 0.0000 -0.0000
vn 0.0000 0.0000 -1.0000
vn 0.3420 0.0000 -0.9397
vn -0.9397 0.0000 -0.3420
vn 0.9397 0.0000 0.3420
vn -0.3420 0.0000 0.9397
vn 0.6428 0.0000 -0.7660
vn -0.7660 0.0000 -0.6428
vn 0.7660 0.0000 0.6428
vn -0.6428 0.0000 0.7660
vn 0.8660 0.0000 -0.5000
vn -0.5000 0.0000 -0.8660
vn 0.5000 0.0000 0.8660
vn -0.8660 0.0000 0.5000
vn 0.9848 0.0000 -0.1736
vn -0.1736 0.0000 -0.9848
vn 0.1736 0.0000 0.9848
vn -0.9848 0.0000 0.1737
vn 0.9848 0.0000 0.1737
vn 0.1736 0.0000 -0.9848
vn -0.1736 0.0000 0.9848
vn -0.9848 0.0000 -0.1736
vn 0.8660 0.0000 0.5000
vn 0.5000 0.0000 -0.8660
vn -0.5000 0.0000 0.8660
vn -0.8660 0.0000 -0.5000
vn 0.6428 0.0000 0.7660
vn 0.7660 0.0000 -0.6428
vn -0.7660 0.0000 0.6428
vn -0.6428 0.0000 -0.7660
vn 0.3420 0.0000 0.9397
vn 0.9397 0.0000 -0.3420
vn -0.9397 0.0000 0.3420
vn -0.3420 0.0000 -0.9397
vn 0.4962 0.8682 -0.0000
vn 0.0000 1.0000 -0.0000
vn -0.4962 0.8682 -0.0000
# 42 vertex normals

vt 0.5000 0.2392 1.0000
vt 0.6613 0.2392 1.0000
vt 0.6613 0.7608 1.0000
vt 0.5000 0.7608 1.0000
vt 0.3387 0.2392 1.0000
vt 0.3387 0.7608 1.0000
vt 1.0000 0.5246 1.0000
vt 0.0000 0.5246 1.0000
vt 0.0000 0.4754 1.0000
vt 1.0000 0.4754 1.0000
vt 0.4754 0.4573 1.0000
vt 0.5246 0.4573 1.0000
vt 0.5246 0.5427 1.0000
vt 0.4754 0.5427 1.0000
vt 0.0000 0.4573 1.0000
vt 1.0000 0.4573 1.0000
vt 1.0000 0.5427 1.0000
vt 0.0000 0.5427 1.0000
vt 0.3189 0.0000 1.0000
vt 0.6811 0.0000 1.0000
vt 0.6811 1.0000 1.0000
vt 0.3189 1.0000 1.0000
vt 1.0000 0.4681 1.0000
vt 1.0000 0.5319 1.0000
vt 0.0000 0.5319 1.0000
vt 0.0000 0.4681 1.0000
vt 0.4884 0.0000 1.0000
vt 0.5116 0.0000 1.0000
vt 0.5116 1.0000 1.0000
vt 0.4884 1.0000 1.0000
vt 0.7579 0.2392 1.0000
vt 0.7579 0.7608 1.0000
vt 0.9192 0.2392 1.0000
vt 0.9192 0.7608 1.0000
vt 0.0808 0.2392 1.0000
vt 0.2421 0.2392 1.0000
vt 0.2421 0.7608 1.0000
vt 0.0808 0.7608 1.0000
vt 0.6074 0.4377 1.0000
vt 0.6074 0.5623 1.0000
vt 0.5000 0.6563 1.0000
vt 0.5000 0.3437 1.0000
vt 0.3926 0.5623 1.0000
vt 0.3926 0.4377 1.0000
# 44 texture coords

g Merged_mesh__04_Material8_bright_planks01
usemtl _04_Material8_bright_planks01
f 102/185/62 103/186/63 104/187/63 
f 102/185/62 104/187/63 105/188/62 
f 106/189/64 102/185/62 105/188/62 
f 106/189/64 105/188/62 107/190/64 
f 108/191/65 109/192/65 110/193/65 
f 108/191/65 110/193/65 111/194/65 
f 112/195/66 113/196/66 110/197/66 
f 112/195/66 110/197/66 109/198/66 
f 114/199/62 112/200/62 109/201/62 
f 114/199/62 109/201/62 108/202/62 
f 114/191/67 115/194/67 113/193/67 
f 114/191/67 113/193/67 112/192/67 
f 114/195/68 108/198/68 111/197/68 
f 114/195/68 111/197/68 115/196/68 
f 116/191/65 117/192/65 118/193/65 
f 116/191/65 118/193/65 119/194/65 
f 120/195/66 121/196/66 118/197/66 
f 120/195/66 118/197/66 117/198/66 
f 122/199/62 120/200/62 117/201/62 
f 122/199/62 117/201/62 116/202/62 
f 122/191/67 123/194/67 121/193/67 
f 122/191/67 121/193/67 120/192/67 
f 122/195/68 116/198/68 119/197/68 
f 122/195/68 119/197/68 123/196/68 
f 124/203/69 125/204/69 126/205/69 
f 124/203/69 126/205/69 127/206/69 
f 128/207/70 129/208/70 126/209/70 
f 128/207/70 126/209/70 125/210/70 
f 130/210/71 124/207/71 127/208/71 
f 130/210/71 127/208/71 131/209/71 
f 130/211/62 128/212/62 125/213/62 
f 130/211/62 125/213/62 124/214/62 
f 130/204/72 131/205/72 129/206/72 
f 130/204/72 129/206/72 128/203/72 
f 132/203/73 133/204/73 134/205/73 
f 132/203/73 134/205/73 135/206/73 
f 136/207/74 137/208/74 134/209/74 
f 136/207/74 134/209/74 133/210/74 
f 138/210/75 132/207/75 135/208/75 
f 138/210/75 135/208/75 139/209/75 
f 138/211/62 136/212/62 133/213/62 
f 138/211/62 133/213/62 132/214/62 
f 138/204/76 139/205/76 137/206/76 
f 138/204/76 137/206/76 136/203/76 
f 140/203/77 141/204/77 142/205/77 
f 140/203/77 142/205/77 143/206/77 
f 144/207/78 145/208/78 142/209/78 
f 144/207/78 142/209/78 141/210/78 
f 146/210/79 140/207/79 143/208/79 
f 146/210/79 143/208/79 147/209/79 
f 146/211/62 144/212/62 141/213/62 
f 146/211/62 141/213/62 140/214/62 
f 146/204/80 147/205/80 145/206/80 
f 146/204/80 145/206/80 144/203/80 
f 148/203/81 149/204/81 150/205/81 
f 148/203/81 150/205/81 151/206/81 
f 152/207/82 153/208/82 150/209/82 
f 152/207/82 150/209/82 149/210/82 
f 154/210/83 148/207/83 151/208/83 
f 154/210/83 151/208/83 155/209/83 
f 154/211/62 152/212/62 149/213/62 
f 154/211/62 149/213/62 148/214/62 
f 154/204/84 155/205/84 153/206/84 
f 154/204/84 153/206/84 152/203/84 
f 156/203/85 157/204/85 158/205/85 
f 156/203/85 158/205/85 159/206/85 
f 160/207/86 161/208/86 158/209/86 
f 160/207/86 158/209/86 157/210/86 
f 162/210/87 156/207/87 159/208/87 
f 162/210/87 159/208/87 163/209/87 
f 162/211/62 160/212/62 157/213/62 
f 162/211/62 157/213/62 156/214/62 
f 162/204/88 163/205/88 161/206/88 
f 162/204/88 161/206/88 160/203/88 
f 164/203/89 165/204/89 166/205/89 
f 164/203/89 166/205/89 167/206/89 
f 168/207/90 169/208/90 166/209/90 
f 168/207/90 166/209/90 165/210/90 
f 170/210/91 164/207/91 167/208/91 
f 170/210/91 167/208/91 171/209/91 
f 170/211/62 168/212/62 165/213/62 
f 170/211/62 165/213/62 164/214/62 
f 170/204/92 171/205/92 169/206/92 
f 170/204/92 169/206/92 168/203/92 
f 172/203/93 173/204/93 174/205/93 
f 172/203/93 174/205/93 175/206/93 
f 176/207/94 177/208/94 174/209/94 
f 176/207/94 174/209/94 173/210/94 
f 178/210/95 172/207/95 175/208/95 
f 178/210/95 175/208/95 179/209/95 
f 178/211/62 176/212/62 173/213/62 
f 178/211/62 173/213/62 172/214/62 
f 178/204/96 179/205/96 177/206/96 
f 178/204/96 177/206/96 176/203/96 
f 180/203/97 181/204/97 182/205/97 
f 180/203/97 182/205/97 183/206/97 
f 184/207/98 185/208/98 182/209/98 
f 184/207/98 182/209/98 181/210/98 
f 186/210/99 180/207/99 183/208/99 
f 186/210/99 183/208/99 187/209/99 
f 186/211/62 184/212/62 181/213/62 
f 186/211/62 181/213/62 180/214/62 
f 186/204/100 187/205/100 185/206/100 
f 186/204/100 185/206/100 184/203/100 
f 188/203/66 189/204/66 190/205/66 
f 188/203/66 190/205/66 191/206/66 
f 192/207/67 193/208/67 190/209/67 
f 192/207/67 190/209/67 189/210/67 
f 194/210/65 188/207/65 191/208/65 
f 194/210/65 191/208/65 195/209/65 
f 194/211/62 192/212/62 189/213/62 
f 194/211/62 189/213/62 188/214/62 
f 194/204/68 195/205/68 193/206/68 
f 194/204/68 193/206/68 192/203/68 
f 103/186/67 196/215/67 197/216/67 
f 103/186/67 197/216/67 104/187/67 
f 196/215/101 198/217/102 199/218/102 
f 196/215/101 199/218/102 197/216/101 
f 198/219/102 200/220/103 201/221/103 
f 198/219/102 201/221/103 199/222/102 
f 200/220/65 106/189/65 107/190/65 
f 200/220/65 107/190/65 201/221/65 
f 104/223/66 197/224/66 199/225/66 
f 104/223/66 199/225/66 105/226/66 
f 201/227/66 105/226/66 199/225/66 
f 201/227/66 107/228/66 105/226/66 
# 0 polygons - 126 triangles

#
# object Merged_mesh__06_Material28_tar_roof01
#

v  2.1350 12.8591 -5.3085
v  2.1350 12.5692 -5.3085
v  2.9033 12.5692 -6.1988
v  2.9033 13.2918 -6.1988
v  2.1350 13.7520 -5.3085
v  2.9033 12.8591 -6.1988
v  3.1758 12.5692 -7.9703
v  3.1758 12.8591 -7.9703
v  2.9033 12.5692 -9.7417
v  2.9033 12.8591 -9.7417
v  2.2768 12.5692 -10.6321
v  2.2768 12.8591 -10.6321
v  2.2768 13.2918 -10.6321
v  2.9033 13.2918 -9.7417
v  3.1758 13.2918 -7.9703
v  0.8304 14.7335 -6.1988
v  1.9224 14.4323 -6.1988
v  1.9224 14.4323 -7.9703
v  -2.1407 13.7520 -5.3085
v  -1.9281 14.4323 -6.1988
v  -2.9089 13.2918 -6.1988
v  -1.3337 13.8605 -4.8109
v  -0.8360 14.2398 -4.8109
v  -0.8360 14.7335 -6.1988
v  0.8304 14.2398 -4.8109
v  1.3281 13.8605 -4.8109
v  1.9224 14.4323 -9.7417
v  1.3281 14.5124 -10.6321
v  0.8304 14.7335 -9.7417
v  0.8304 14.5124 -10.6321
v  -0.8360 14.5124 -10.6321
v  -0.8360 14.7335 -9.7417
v  -1.9281 14.4323 -9.7417
v  -1.9281 14.4323 -7.9703
v  -3.1814 13.2918 -7.9703
v  -0.8360 14.7335 -7.9703
v  0.8304 14.7335 -7.9703
v  -2.9089 13.2918 -9.7417
v  -2.2824 13.2918 -10.6321
v  -1.3337 14.5124 -10.6321
v  -0.8360 12.8591 -10.6321
v  -0.5631 14.1183 -10.6321
v  -0.5631 13.2533 -10.6321
v  0.8304 12.8591 -10.6321
v  0.8304 12.5692 -10.6321
v  -0.8360 12.5692 -10.6321
v  -1.3337 12.5692 -10.6321
v  -1.3337 12.8591 -10.6321
v  -2.2824 12.5692 -10.6321
v  -2.2824 12.8591 -10.6321
v  0.5575 14.1183 -10.6321
v  0.5575 13.2533 -10.6321
v  1.3281 12.8591 -10.6321
v  1.3281 12.5692 -10.6321
v  0.8304 12.5692 -9.7417
v  1.4503 12.5692 -9.7417
v  1.4503 12.5692 -7.9703
v  1.4503 12.5692 -6.1988
v  1.3281 12.5692 -4.8109
v  0.8304 12.5692 -7.9703
v  0.8304 12.5692 -6.1988
v  0.8304 12.5692 -4.8109
v  -0.8360 12.5692 -4.8109
v  -0.8360 12.5692 -6.1988
v  -1.4559 12.5692 -6.1988
v  -1.4559 12.5692 -7.9703
v  -3.1814 12.5692 -7.9703
v  -2.9089 12.5692 -9.7417
v  -1.4559 12.5692 -9.7417
v  -0.8360 12.5692 -9.7417
v  -1.3337 12.5692 -4.8109
v  -2.1407 12.5692 -5.3085
v  -2.9089 12.5692 -6.1988
v  -0.8360 12.5692 -7.9703
v  -2.9089 12.8591 -9.7417
v  -3.1814 12.8591 -7.9703
v  -2.9089 12.8591 -6.1988
v  -2.1407 12.8591 -5.3085
v  -0.8360 12.8591 -4.8109
v  0.8304 12.8591 -4.8109
v  1.3281 12.8591 -4.8109
v  -1.3337 12.8591 -4.8109
# 82 vertices

vn 0.6486 0.0000 0.7612
vn 0.9080 0.0000 0.4189
vn 0.8883 0.2909 0.3554
vn 0.6455 0.4061 0.6468
vn 1.0000 0.0000 -0.0000
vn 0.9276 0.0000 -0.3736
vn 0.4607 0.0000 -0.8875
vn 0.5101 0.2145 -0.8330
vn 0.8831 0.3371 -0.3263
vn 0.9254 0.3788 -0.0134
vn 0.1501 0.9701 0.1908
vn 0.4908 0.8417 0.2250
vn 0.4945 0.8691 -0.0148
vn -0.6455 0.4061 0.6468
vn -0.5228 0.8307 0.1912
vn -0.8884 0.3091 0.3395
vn -0.3627 0.3222 0.8744
vn -0.1581 0.5957 0.7875
vn -0.1306 0.9774 0.1664
vn 0.2239 0.6139 0.7569
vn 0.3528 0.3774 0.8562
vn 0.5696 0.8041 -0.1703
vn 0.2623 0.6444 -0.7183
vn 0.1123 0.9890 -0.0962
vn 0.0000 0.6160 -0.7877
vn -0.0501 0.6414 -0.7656
vn -0.1319 0.9841 -0.1192
vn -0.5436 0.8164 -0.1948
vn -0.4945 0.8691 0.0148
vn -0.9254 0.3788 0.0134
vn -0.1342 0.9910 -0.0000
vn 0.1342 0.9910 -0.0000
vn -0.8837 0.3189 -0.3425
vn -0.5101 0.2145 -0.8330
vn -0.2147 0.7234 -0.6562
vn 0.0000 0.0000 -1.0000
vn -0.4607 0.0000 -0.8875
vn 0.0000 -1.0000 -0.0000
vn -0.9276 0.0000 -0.3736
vn -1.0000 0.0000 -0.0000
vn -0.9080 0.0000 0.4189
vn -0.6486 0.0000 0.7612
vn 0.0000 0.0000 1.0000
vn 0.2728 0.0000 0.9621
vn -0.2728 0.0000 0.9621
# 45 vertex normals

vt 0.3408 2.4338 1.0000
vt 0.2837 2.5023 1.0000
vt 0.1707 2.1758 1.0000
vt 0.3131 2.0051 1.0000
vt 0.5168 2.2230 1.0000
vt 0.2278 2.1073 1.0000
vt -0.0541 1.5261 1.0000
vt 0.0030 1.4577 1.0000
vt -0.2790 0.8765 1.0000
vt -0.2218 0.8081 1.0000
vt -0.3920 0.5500 1.0000
vt -0.3348 0.4816 1.0000
vt -0.2495 0.3794 1.0000
vt -0.1365 0.7059 1.0000
vt 0.0883 1.3555 1.0000
vt 0.9533 -0.4168 1.0000
vt 1.4481 -0.4235 1.0000
vt 1.4481 0.3221 1.0000
vt -0.3930 -0.8132 1.0000
vt -0.2966 -0.4235 1.0000
vt -0.7411 -0.4486 1.0000
vt -0.0273 -1.0202 1.0000
vt 0.1982 -1.0118 1.0000
vt 0.1982 -0.4168 1.0000
vt 0.9533 -1.0118 1.0000
vt 1.1788 -1.0202 1.0000
vt 1.5445 -0.8132 1.0000
vt 1.8926 -0.4486 1.0000
vt 2.0160 0.2970 1.0000
vt 1.8926 1.0426 1.0000
vt 1.4481 1.0677 1.0000
vt 1.6087 1.4173 1.0000
vt 1.1788 1.4441 1.0000
vt 0.9533 1.0743 1.0000
vt 0.9533 1.4441 1.0000
vt 0.1982 1.4441 1.0000
vt 0.1982 1.0743 1.0000
vt -0.2966 1.0677 1.0000
vt -0.2966 0.3221 1.0000
vt -0.8645 0.2970 1.0000
vt 0.1982 0.3287 1.0000
vt 0.9533 0.3287 1.0000
vt -0.7411 1.0426 1.0000
vt -0.4572 1.4173 1.0000
vt -0.0273 1.4441 1.0000
vt 1.1022 -0.1886 1.0000
vt 0.9298 0.5513 1.0000
vt 0.9298 0.0430 1.0000
vt 0.0493 -0.1886 1.0000
vt 0.0493 -0.3590 1.0000
vt 1.1022 -0.3590 1.0000
vt 1.4166 -0.3590 1.0000
vt 1.4166 -0.1886 1.0000
vt 2.0160 -0.3590 1.0000
vt 2.0160 -0.1886 1.0000
vt 2.0160 0.0657 1.0000
vt 1.4166 0.7829 1.0000
vt 1.1022 0.7829 1.0000
vt 0.2217 0.5513 1.0000
vt 0.2217 0.0430 1.0000
vt 0.0493 0.7829 1.0000
vt -0.2651 -0.1886 1.0000
vt -0.2651 0.7829 1.0000
vt -0.8645 -0.1886 1.0000
vt -0.8645 0.0657 1.0000
vt -0.8645 -0.3590 1.0000
vt -0.2651 -0.3590 1.0000
vt 0.9533 -0.6395 1.0000
vt 1.2342 -0.6395 1.0000
vt 1.2342 0.1071 1.0000
vt 1.1788 -1.0147 1.0000
vt 0.9533 -1.0147 1.0000
vt 1.6087 -1.0147 1.0000
vt 1.8926 -0.6395 1.0000
vt 2.0160 0.1071 1.0000
vt 1.8926 0.8537 1.0000
vt 1.2342 0.8537 1.0000
vt 1.5445 1.2290 1.0000
vt 1.1788 1.4387 1.0000
vt 0.9533 0.1071 1.0000
vt 0.9533 0.8537 1.0000
vt 0.9533 1.4387 1.0000
vt 0.1982 1.4387 1.0000
vt 0.1982 0.8537 1.0000
vt -0.0827 0.8537 1.0000
vt -0.0827 0.1071 1.0000
vt -0.8645 0.1071 1.0000
vt -0.7411 -0.6395 1.0000
vt -0.0827 -0.6395 1.0000
vt -0.4572 -1.0147 1.0000
vt -0.0273 -1.0147 1.0000
vt 0.1982 -1.0147 1.0000
vt 0.1982 -0.6395 1.0000
vt -0.0273 1.4387 1.0000
vt -0.3930 1.2290 1.0000
vt -0.7411 0.8537 1.0000
vt 0.1982 0.1071 1.0000
vt -0.7853 2.7012 1.0000
vt -0.6839 2.3129 1.0000
vt -0.6839 2.7012 1.0000
vt -0.7853 2.3129 1.0000
vt -0.8533 2.7012 1.0000
vt -0.8533 2.3129 1.0000
vt -0.8533 1.5403 1.0000
vt -0.7853 1.5403 1.0000
vt -0.8533 0.7677 1.0000
vt -0.7853 0.7677 1.0000
vt -0.8533 0.3794 1.0000
vt -0.7853 0.3794 1.0000
vt -0.5760 0.3794 1.0000
vt -0.6839 0.7677 1.0000
vt -0.6839 1.5403 1.0000
vt 1.0483 0.9484 1.0000
vt 1.1163 1.6752 1.0000
vt 1.0483 1.6752 1.0000
vt 1.1163 0.9484 1.0000
vt 1.0483 0.7314 1.0000
vt 1.1163 0.7314 1.0000
vt 1.0483 0.3794 1.0000
vt 1.1163 0.3794 1.0000
vt 1.3257 0.3794 1.0000
vt 1.3511 0.7314 1.0000
vt 1.4400 0.9484 1.0000
vt 1.4400 1.6752 1.0000
vt 1.1163 1.8923 1.0000
vt 1.0483 1.8923 1.0000
vt 1.0483 2.2442 1.0000
vt 1.1163 2.2442 1.0000
vt 1.3511 1.8923 1.0000
vt 1.3257 2.2442 1.0000
# 130 texture coords

g Merged_mesh__06_Material28_tar_roof01
usemtl _06_Material28_tar_roof01
f 202/229/104 203/230/104 204/231/105 
f 202/229/104 205/232/106 206/233/107 
f 202/229/104 207/234/105 205/232/106 
f 202/229/104 204/231/105 207/234/105 
f 207/234/105 204/231/105 208/235/108 
f 207/234/105 208/235/108 209/236/108 
f 210/237/109 209/236/108 208/235/108 
f 210/237/109 211/238/109 209/236/108 
f 212/239/110 211/238/109 210/237/109 
f 212/239/110 213/240/110 211/238/109 
f 211/238/109 213/240/110 214/241/111 
f 211/238/109 214/241/111 215/242/112 
f 211/238/109 215/242/112 216/243/113 
f 211/238/109 216/243/113 209/236/108 
f 207/234/105 209/236/108 216/243/113 
f 207/234/105 216/243/113 205/232/106 
f 217/244/114 218/245/115 219/246/116 
f 220/247/117 221/248/118 222/249/119 
f 223/250/120 221/248/118 220/247/117 
f 224/251/121 221/248/118 223/250/120 
f 224/251/121 225/252/122 221/248/118 
f 226/253/123 225/252/122 224/251/121 
f 226/253/123 217/244/114 225/252/122 
f 227/254/124 217/244/114 226/253/123 
f 227/254/124 218/245/115 217/244/114 
f 206/255/107 218/245/115 227/254/124 
f 205/256/106 218/245/115 206/255/107 
f 218/245/115 205/256/106 216/257/113 
f 218/245/115 216/257/113 219/246/116 
f 215/258/112 219/246/116 216/257/113 
f 215/258/112 228/259/125 219/246/116 
f 214/260/111 228/259/125 215/258/112 
f 214/260/111 229/261/126 228/259/125 
f 229/261/126 230/262/127 228/259/125 
f 229/261/126 231/263/128 230/262/127 
f 230/262/127 231/263/128 232/264/129 
f 230/262/127 232/264/129 233/265/130 
f 232/264/129 234/266/131 233/265/130 
f 233/265/130 234/266/131 235/267/132 
f 234/266/131 236/268/133 235/267/132 
f 222/249/119 235/267/132 236/268/133 
f 222/249/119 221/248/118 235/267/132 
f 221/248/118 237/269/134 235/267/132 
f 221/248/118 225/252/122 237/269/134 
f 217/244/114 237/269/134 225/252/122 
f 217/244/114 238/270/135 237/269/134 
f 217/244/114 219/246/116 238/270/135 
f 228/259/125 238/270/135 219/246/116 
f 228/259/125 230/262/127 238/270/135 
f 230/262/127 237/269/134 238/270/135 
f 230/262/127 233/265/130 237/269/134 
f 233/265/130 235/267/132 237/269/134 
f 234/266/131 239/271/136 236/268/133 
f 240/272/137 239/271/136 234/266/131 
f 240/272/137 234/266/131 241/273/138 
f 232/264/129 241/273/138 234/266/131 
f 242/274/139 243/275/139 244/276/139 
f 245/277/139 242/274/139 244/276/139 
f 245/277/139 246/278/139 247/279/139 
f 245/277/139 247/279/139 242/274/139 
f 242/274/139 247/279/139 248/280/139 
f 242/274/139 248/280/139 249/281/139 
f 250/282/140 249/281/139 248/280/139 
f 250/282/140 251/283/140 249/281/139 
f 249/281/139 251/283/140 240/284/137 
f 249/281/139 240/284/137 241/285/138 
f 242/274/139 249/281/139 241/285/138 
f 242/274/139 241/285/138 232/286/129 
f 242/274/139 232/286/129 243/275/139 
f 232/286/129 252/287/139 243/275/139 
f 244/276/139 243/275/139 252/287/139 
f 244/276/139 252/287/139 253/288/139 
f 245/277/139 244/276/139 253/288/139 
f 231/289/128 245/277/139 253/288/139 
f 254/290/139 245/277/139 231/289/128 
f 254/290/139 231/289/128 229/291/126 
f 213/292/110 254/290/139 229/291/126 
f 213/292/110 229/291/126 214/293/111 
f 232/286/129 231/289/128 252/287/139 
f 231/289/128 253/288/139 252/287/139 
f 213/292/110 212/294/110 255/295/139 
f 213/292/110 255/295/139 254/290/139 
f 254/290/139 255/295/139 246/278/139 
f 254/290/139 246/278/139 245/277/139 
f 256/296/141 257/297/141 258/298/141 
f 255/299/141 256/296/141 246/300/141 
f 255/299/141 257/297/141 256/296/141 
f 212/301/141 257/297/141 255/299/141 
f 212/301/141 210/302/141 257/297/141 
f 257/297/141 210/302/141 208/303/141 
f 257/297/141 208/303/141 258/298/141 
f 204/304/141 258/298/141 208/303/141 
f 204/304/141 259/305/141 258/298/141 
f 203/306/141 259/305/141 204/304/141 
f 203/306/141 260/307/141 259/305/141 
f 256/296/141 258/298/141 261/308/141 
f 259/305/141 261/308/141 258/298/141 
f 259/305/141 262/309/141 261/308/141 
f 260/307/141 262/309/141 259/305/141 
f 260/307/141 263/310/141 262/309/141 
f 262/309/141 263/310/141 264/311/141 
f 262/309/141 264/311/141 265/312/141 
f 264/311/141 266/313/141 265/312/141 
f 265/312/141 266/313/141 267/314/141 
f 266/313/141 268/315/141 267/314/141 
f 269/316/141 267/314/141 268/315/141 
f 269/316/141 270/317/141 267/314/141 
f 250/318/141 270/317/141 269/316/141 
f 250/318/141 248/319/141 270/317/141 
f 247/320/141 270/317/141 248/319/141 
f 247/320/141 271/321/141 270/317/141 
f 246/300/141 271/321/141 247/320/141 
f 246/300/141 256/296/141 271/321/141 
f 264/311/141 272/322/141 266/313/141 
f 272/322/141 273/323/141 274/324/141 
f 272/322/141 274/324/141 266/313/141 
f 266/313/141 274/324/141 268/315/141 
f 265/312/141 267/314/141 275/325/141 
f 262/309/141 265/312/141 275/325/141 
f 262/309/141 275/325/141 261/308/141 
f 256/296/141 261/308/141 275/325/141 
f 256/296/141 275/325/141 271/321/141 
f 270/317/141 271/321/141 275/325/141 
f 270/317/141 275/325/141 267/314/141 
f 251/326/140 239/327/136 240/328/137 
f 251/326/140 276/329/142 239/327/136 
f 250/330/140 276/329/142 251/326/140 
f 250/330/140 269/331/142 276/329/142 
f 276/329/142 269/331/142 268/332/143 
f 276/329/142 268/332/143 277/333/143 
f 274/334/144 277/333/143 268/332/143 
f 274/334/144 278/335/144 277/333/143 
f 273/336/145 278/335/144 274/334/144 
f 273/336/145 279/337/145 278/335/144 
f 278/335/144 279/337/145 220/338/117 
f 278/335/144 220/338/117 222/339/119 
f 278/335/144 222/339/119 236/340/133 
f 278/335/144 236/340/133 277/333/143 
f 276/329/142 277/333/143 236/340/133 
f 276/329/142 236/340/133 239/327/136 
f 263/341/146 280/342/146 264/343/146 
f 263/341/146 281/344/146 280/342/146 
f 260/345/147 281/344/146 263/341/146 
f 260/345/147 282/346/147 281/344/146 
f 203/347/104 282/346/147 260/345/147 
f 203/347/104 202/348/104 282/346/147 
f 282/346/147 202/348/104 206/349/107 
f 282/346/147 206/349/107 227/350/124 
f 281/344/146 282/346/147 227/350/124 
f 281/344/146 227/350/124 226/351/123 
f 281/344/146 226/351/123 224/352/121 
f 281/344/146 224/352/121 280/342/146 
f 283/353/148 280/342/146 224/352/121 
f 264/343/146 280/342/146 283/353/148 
f 264/343/146 283/353/148 272/354/148 
f 273/355/145 272/354/148 283/353/148 
f 273/355/145 283/353/148 279/356/145 
f 279/356/145 283/353/148 223/357/120 
f 279/356/145 223/357/120 220/358/117 
f 283/353/148 224/352/121 223/357/120 
# 0 polygons - 160 triangles

#
# object Merged_mesh__07_Material_door01
#

v  3.5399 0.3347 -10.3274
v  2.9166 0.3347 -11.4070
v  2.9166 3.0846 -11.4070
v  3.5399 3.0846 -10.3274
v  3.4542 3.0846 -10.2779
v  3.4542 0.3347 -10.2779
v  2.8309 3.0846 -11.3575
v  2.8309 0.3347 -11.3575
# 8 vertices

vn 0.8660 0.0000 -0.5000
vn 0.5000 0.0000 0.8660
vn 0.0000 1.0000 -0.0000
vn -0.5000 0.0000 -0.8660
vn 0.0000 -1.0000 -0.0000
# 5 vertex normals

vt 0.0479 0.0000 1.0000
vt 0.9521 0.0000 1.0000
vt 0.9521 1.0000 1.0000
vt 0.0479 1.0000 1.0000
vt 1.3033 0.9947 1.0000
vt 1.3033 -0.0053 1.0000
vt 0.0093 -0.0053 1.0000
vt 0.0093 0.9947 1.0000
vt 2.9745 0.9947 1.0000
vt 1.6805 0.9947 1.0000
vt 2.9745 -0.0053 1.0000
vt 1.6805 -0.0053 1.0000
# 12 texture coords

g Merged_mesh__07_Material_door01
usemtl _07_Material_door01
f 284/359/149 285/360/149 286/361/149 
f 284/359/149 286/361/149 287/362/149 
f 288/363/150 289/364/150 284/365/150 
f 288/363/150 284/365/150 287/366/150 
f 290/367/151 288/363/151 287/366/151 
f 290/367/151 287/366/151 286/368/151 
f 291/369/152 290/367/152 286/368/152 
f 291/369/152 286/368/152 285/370/152 
f 289/364/153 291/369/153 285/370/153 
f 289/364/153 285/370/153 284/365/153 
# 0 polygons - 10 triangles

